Rubik-Light.ufo
<glyph name="exclam" format="2">
  <advance width="225"/>
  <unicode hex="0021"/>
  <guideline y="143"/>
  <guideline y="83"/>
  <outline>
    <contour>
      <point x="104" y="143" type="curve" smooth="yes"/>
      <point x="121" y="143" type="line" smooth="yes"/>
      <point x="134" y="143"/>
      <point x="143" y="152"/>
      <point x="143" y="165" type="curve" smooth="yes"/>
      <point x="143" y="678" type="line" smooth="yes"/>
      <point x="143" y="691"/>
      <point x="134" y="700"/>
      <point x="121" y="700" type="curve" smooth="yes"/>
      <point x="104" y="700" type="line" smooth="yes"/>
      <point x="91" y="700"/>
      <point x="82" y="691"/>
      <point x="82" y="678" type="curve" smooth="yes"/>
      <point x="82" y="165" type="line" smooth="yes"/>
      <point x="82" y="152"/>
      <point x="91" y="143"/>
    </contour>
    <contour>
      <point x="93" y="0" type="curve" smooth="yes"/>
      <point x="131" y="0" type="line" smooth="yes"/>
      <point x="144" y="0"/>
      <point x="154" y="9"/>
      <point x="154" y="22" type="curve" smooth="yes"/>
      <point x="154" y="60" type="line" smooth="yes"/>
      <point x="154" y="73"/>
      <point x="144" y="83"/>
      <point x="131" y="83" type="curve" smooth="yes"/>
      <point x="93" y="83" type="line" smooth="yes"/>
      <point x="80" y="83"/>
      <point x="71" y="73"/>
      <point x="71" y="60" type="curve" smooth="yes"/>
      <point x="71" y="22" type="line" smooth="yes"/>
      <point x="71" y="9"/>
      <point x="80" y="0"/>
    </contour>
  </outline>
</glyph>
<glyph name="quotedbl" format="2">
  <advance width="340"/>
  <unicode hex="0022"/>
  <outline>
    <contour>
      <point x="227" y="508" type="curve" smooth="yes"/>
      <point x="246" y="508" type="line" smooth="yes"/>
      <point x="257" y="508"/>
      <point x="262" y="516"/>
      <point x="263" y="527" type="curve" smooth="yes"/>
      <point x="278" y="690" type="line"/>
      <point x="279" y="702"/>
      <point x="271" y="710"/>
      <point x="259" y="710" type="curve" smooth="yes"/>
      <point x="214" y="710" type="line" smooth="yes"/>
      <point x="202" y="710"/>
      <point x="194" y="702"/>
      <point x="195" y="690" type="curve" smooth="yes"/>
      <point x="210" y="527" type="line" smooth="yes"/>
      <point x="211" y="516"/>
      <point x="216" y="508"/>
    </contour>
    <contour>
      <point x="94" y="508" type="curve" smooth="yes"/>
      <point x="113" y="508" type="line" smooth="yes"/>
      <point x="124" y="508"/>
      <point x="129" y="516"/>
      <point x="130" y="527" type="curve" smooth="yes"/>
      <point x="145" y="690" type="line"/>
      <point x="146" y="702"/>
      <point x="138" y="710"/>
      <point x="126" y="710" type="curve" smooth="yes"/>
      <point x="81" y="710" type="line" smooth="yes"/>
      <point x="69" y="710"/>
      <point x="61" y="702"/>
      <point x="62" y="690" type="curve" smooth="yes"/>
      <point x="77" y="527" type="line" smooth="yes"/>
      <point x="78" y="516"/>
      <point x="83" y="508"/>
    </contour>
  </outline>
</glyph>
<glyph name="numbersign" format="2">
  <advance width="701"/>
  <unicode hex="0023"/>
  <guideline y="474"/>
  <guideline y="220"/>
  <guideline x="482"/>
  <guideline x="255"/>
  <outline>
    <contour>
      <point x="185" y="39" type="curve"/>
      <point x="203" y="39" type="line"/>
      <point x="216" y="39"/>
      <point x="224" y="48"/>
      <point x="226" y="60" type="curve"/>
      <point x="245" y="191" type="line"/>
      <point x="412" y="191" type="line"/>
      <point x="392" y="60" type="line"/>
      <point x="390" y="48"/>
      <point x="400" y="39"/>
      <point x="412" y="39" type="curve"/>
      <point x="430" y="39" type="line"/>
      <point x="443" y="39"/>
      <point x="451" y="48"/>
      <point x="453" y="60" type="curve"/>
      <point x="472" y="191" type="line"/>
      <point x="601" y="191" type="line"/>
      <point x="614" y="191"/>
      <point x="623" y="200"/>
      <point x="623" y="213" type="curve"/>
      <point x="623" y="227" type="line"/>
      <point x="623" y="240"/>
      <point x="614" y="249"/>
      <point x="601" y="249" type="curve"/>
      <point x="481" y="249" type="line"/>
      <point x="510" y="445" type="line"/>
      <point x="627" y="445" type="line"/>
      <point x="640" y="445"/>
      <point x="649" y="454"/>
      <point x="649" y="467" type="curve"/>
      <point x="649" y="481" type="line"/>
      <point x="649" y="494"/>
      <point x="640" y="503"/>
      <point x="627" y="503" type="curve"/>
      <point x="518" y="503" type="line"/>
      <point x="538" y="634" type="line"/>
      <point x="539" y="646"/>
      <point x="530" y="655"/>
      <point x="518" y="655" type="curve"/>
      <point x="500" y="655" type="line"/>
      <point x="487" y="655"/>
      <point x="480" y="645"/>
      <point x="478" y="634" type="curve"/>
      <point x="458" y="503" type="line"/>
      <point x="291" y="503" type="line"/>
      <point x="311" y="634" type="line"/>
      <point x="312" y="646"/>
      <point x="303" y="655"/>
      <point x="291" y="655" type="curve"/>
      <point x="273" y="655" type="line"/>
      <point x="260" y="655"/>
      <point x="253" y="645"/>
      <point x="251" y="634" type="curve"/>
      <point x="231" y="503" type="line"/>
      <point x="100" y="503" type="line"/>
      <point x="87" y="503"/>
      <point x="78" y="494"/>
      <point x="78" y="481" type="curve"/>
      <point x="78" y="467" type="line"/>
      <point x="78" y="454"/>
      <point x="87" y="445"/>
      <point x="100" y="445" type="curve"/>
      <point x="222" y="445" type="line"/>
      <point x="193" y="249" type="line"/>
      <point x="74" y="249" type="line"/>
      <point x="61" y="249"/>
      <point x="52" y="240"/>
      <point x="52" y="227" type="curve"/>
      <point x="52" y="213" type="line"/>
      <point x="52" y="200"/>
      <point x="61" y="191"/>
      <point x="74" y="191" type="curve"/>
      <point x="185" y="191" type="line"/>
      <point x="165" y="60" type="line"/>
      <point x="163" y="48"/>
      <point x="173" y="39"/>
    </contour>
    <contour>
      <point x="254" y="249" type="line"/>
      <point x="283" y="445" type="line"/>
      <point x="449" y="445" type="line"/>
      <point x="420" y="249" type="line"/>
    </contour>
  </outline>
</glyph>
<glyph name="ampersand" format="2">
  <advance width="674"/>
  <unicode hex="0026"/>
  <guideline y="366"/>
  <guideline y="-10"/>
  <guideline y="550"/>
  <guideline x="285"/>
  <guideline x="589"/>
  <guideline x="60"/>
  <outline>
    <contour>
      <point x="281" y="-10" type="curve" smooth="yes"/>
      <point x="379" y="-10"/>
      <point x="452" y="30"/>
      <point x="503" y="84" type="curve"/>
      <point x="577" y="10" type="line" smooth="yes"/>
      <point x="583" y="4"/>
      <point x="591" y="0"/>
      <point x="605" y="0" type="curve" smooth="yes"/>
      <point x="627" y="0" type="line" smooth="yes"/>
      <point x="640" y="0"/>
      <point x="647" y="7"/>
      <point x="647" y="19" type="curve" smooth="yes"/>
      <point x="647" y="24"/>
      <point x="643" y="30"/>
      <point x="638" y="35" type="curve" smooth="yes"/>
      <point x="540" y="131" type="line"/>
      <point x="592" y="208"/>
      <point x="610" y="283"/>
      <point x="612" y="344" type="curve" smooth="yes"/>
      <point x="612" y="357"/>
      <point x="603" y="366"/>
      <point x="590" y="366" type="curve" smooth="yes"/>
      <point x="571" y="366" type="line" smooth="yes"/>
      <point x="558" y="366"/>
      <point x="550" y="357"/>
      <point x="549" y="344" type="curve" smooth="yes"/>
      <point x="541" y="274"/>
      <point x="521" y="221"/>
      <point x="494" y="176" type="curve"/>
      <point x="303" y="363" type="line"/>
      <point x="383" y="408"/>
      <point x="460" y="457"/>
      <point x="460" y="550" type="curve" smooth="yes"/>
      <point x="460" y="642"/>
      <point x="387" y="710"/>
      <point x="286" y="710" type="curve" smooth="yes"/>
      <point x="185" y="710"/>
      <point x="112" y="637"/>
      <point x="112" y="550" type="curve" smooth="yes"/>
      <point x="112" y="491"/>
      <point x="137" y="447"/>
      <point x="205" y="375" type="curve"/>
      <point x="130" y="331"/>
      <point x="61" y="278"/>
      <point x="61" y="184" type="curve" smooth="yes"/>
      <point x="61" y="72"/>
      <point x="152" y="-10"/>
    </contour>
    <contour>
      <point x="281" y="50" type="curve" smooth="yes"/>
      <point x="199" y="50"/>
      <point x="124" y="97"/>
      <point x="124" y="184" type="curve" smooth="yes"/>
      <point x="124" y="253"/>
      <point x="180" y="294"/>
      <point x="247" y="332" type="curve"/>
      <point x="457" y="129" type="line"/>
      <point x="405" y="75"/>
      <point x="341" y="50"/>
    </contour>
    <contour>
      <point x="260" y="407" type="curve"/>
      <point x="192" y="478"/>
      <point x="175" y="510"/>
      <point x="175" y="550" type="curve" smooth="yes"/>
      <point x="175" y="612"/>
      <point x="227" y="650"/>
      <point x="286" y="650" type="curve" smooth="yes"/>
      <point x="348" y="650"/>
      <point x="397" y="611"/>
      <point x="397" y="550" type="curve" smooth="yes"/>
      <point x="397" y="485"/>
      <point x="332" y="447"/>
    </contour>
  </outline>
</glyph>
<glyph name="quotesingle" format="2">
  <advance width="207"/>
  <unicode hex="0027"/>
  <guideline x="51"/>
  <outline>
    <contour>
      <point x="94" y="508" type="curve" smooth="yes"/>
      <point x="113" y="508" type="line" smooth="yes"/>
      <point x="124" y="508"/>
      <point x="129" y="516"/>
      <point x="130" y="527" type="curve" smooth="yes"/>
      <point x="145" y="690" type="line"/>
      <point x="146" y="702"/>
      <point x="138" y="710"/>
      <point x="126" y="710" type="curve" smooth="yes"/>
      <point x="81" y="710" type="line" smooth="yes"/>
      <point x="69" y="710"/>
      <point x="61" y="702"/>
      <point x="62" y="690" type="curve" smooth="yes"/>
      <point x="77" y="527" type="line" smooth="yes"/>
      <point x="78" y="516"/>
      <point x="83" y="508"/>
    </contour>
  </outline>
</glyph>
<glyph name="parenleft" format="2">
  <advance width="319"/>
  <unicode hex="0028"/>
  <guideline y="-159"/>
  <guideline y="776"/>
  <guideline y="309"/>
  <guideline x="300"/>
  <outline>
    <contour>
      <point x="272" y="-159" type="curve" smooth="yes"/>
      <point x="284" y="-159"/>
      <point x="294" y="-149"/>
      <point x="294" y="-137" type="curve" smooth="yes"/>
      <point x="294" y="-123" type="line" smooth="yes"/>
      <point x="294" y="-111"/>
      <point x="284" y="-101"/>
      <point x="275" y="-101" type="curve" smooth="yes"/>
      <point x="163" y="-101"/>
      <point x="123" y="-8"/>
      <point x="123" y="309" type="curve" smooth="yes"/>
      <point x="123" y="626"/>
      <point x="163" y="718"/>
      <point x="275" y="718" type="curve" smooth="yes"/>
      <point x="284" y="718"/>
      <point x="294" y="728"/>
      <point x="294" y="740" type="curve" smooth="yes"/>
      <point x="294" y="754" type="line" smooth="yes"/>
      <point x="294" y="766"/>
      <point x="284" y="776"/>
      <point x="272" y="776" type="curve" smooth="yes"/>
      <point x="103" y="776"/>
      <point x="64" y="632"/>
      <point x="64" y="309" type="curve" smooth="yes"/>
      <point x="64" y="-14"/>
      <point x="103" y="-159"/>
    </contour>
  </outline>
</glyph>
<glyph name="parenright" format="2">
  <advance width="319"/>
  <unicode hex="0029"/>
  <outline>
    <contour>
      <point x="47" y="-159" type="curve" smooth="yes"/>
      <point x="216" y="-159"/>
      <point x="255" y="-14"/>
      <point x="255" y="309" type="curve" smooth="yes"/>
      <point x="255" y="632"/>
      <point x="216" y="776"/>
      <point x="47" y="776" type="curve" smooth="yes"/>
      <point x="35" y="776"/>
      <point x="25" y="766"/>
      <point x="25" y="754" type="curve" smooth="yes"/>
      <point x="25" y="740" type="line" smooth="yes"/>
      <point x="25" y="728"/>
      <point x="35" y="718"/>
      <point x="44" y="718" type="curve" smooth="yes"/>
      <point x="156" y="718"/>
      <point x="196" y="626"/>
      <point x="196" y="309" type="curve" smooth="yes"/>
      <point x="196" y="-8"/>
      <point x="156" y="-101"/>
      <point x="44" y="-101" type="curve" smooth="yes"/>
      <point x="35" y="-101"/>
      <point x="25" y="-111"/>
      <point x="25" y="-123" type="curve" smooth="yes"/>
      <point x="25" y="-137" type="line" smooth="yes"/>
      <point x="25" y="-149"/>
      <point x="35" y="-159"/>
    </contour>
  </outline>
</glyph>
<glyph name="plus" format="2">
  <advance width="628"/>
  <unicode hex="002B"/>
  <guideline y="300"/>
  <guideline x="319"/>
  <outline>
    <contour>
      <point x="306" y="33" type="curve" smooth="yes"/>
      <point x="321" y="33" type="line" smooth="yes"/>
      <point x="334" y="33"/>
      <point x="343" y="42"/>
      <point x="343" y="55" type="curve" smooth="yes"/>
      <point x="343" y="274" type="line"/>
      <point x="561" y="274" type="line" smooth="yes"/>
      <point x="574" y="274"/>
      <point x="583" y="283"/>
      <point x="583" y="296" type="curve" smooth="yes"/>
      <point x="583" y="310" type="line" smooth="yes"/>
      <point x="583" y="323"/>
      <point x="574" y="332"/>
      <point x="561" y="332" type="curve" smooth="yes"/>
      <point x="343" y="332" type="line"/>
      <point x="343" y="545" type="line" smooth="yes"/>
      <point x="343" y="558"/>
      <point x="334" y="567"/>
      <point x="321" y="567" type="curve" smooth="yes"/>
      <point x="306" y="567" type="line" smooth="yes"/>
      <point x="293" y="567"/>
      <point x="284" y="558"/>
      <point x="284" y="545" type="curve" smooth="yes"/>
      <point x="284" y="332" type="line"/>
      <point x="67" y="332" type="line" smooth="yes"/>
      <point x="54" y="332"/>
      <point x="45" y="323"/>
      <point x="45" y="310" type="curve" smooth="yes"/>
      <point x="45" y="296" type="line" smooth="yes"/>
      <point x="45" y="283"/>
      <point x="54" y="274"/>
      <point x="67" y="274" type="curve" smooth="yes"/>
      <point x="284" y="274" type="line"/>
      <point x="284" y="55" type="line" smooth="yes"/>
      <point x="284" y="42"/>
      <point x="293" y="33"/>
    </contour>
  </outline>
</glyph>
<glyph name="hyphen" format="2">
  <advance width="487"/>
  <unicode hex="002D"/>
  <guideline y="300"/>
  <outline>
    <contour>
      <point x="96" y="271" type="curve" smooth="yes"/>
      <point x="391" y="271" type="line" smooth="yes"/>
      <point x="404" y="271"/>
      <point x="413" y="280"/>
      <point x="413" y="293" type="curve" smooth="yes"/>
      <point x="413" y="307" type="line" smooth="yes"/>
      <point x="413" y="320"/>
      <point x="404" y="329"/>
      <point x="391" y="329" type="curve" smooth="yes"/>
      <point x="96" y="329" type="line" smooth="yes"/>
      <point x="83" y="329"/>
      <point x="74" y="320"/>
      <point x="74" y="307" type="curve" smooth="yes"/>
      <point x="74" y="293" type="line" smooth="yes"/>
      <point x="74" y="280"/>
      <point x="83" y="271"/>
    </contour>
  </outline>
</glyph>
<glyph name="period" format="2">
  <advance width="238"/>
  <unicode hex="002E"/>
  <outline>
    <contour>
      <point x="95" y="0" type="curve" smooth="yes"/>
      <point x="143" y="0" type="line" smooth="yes"/>
      <point x="156" y="0"/>
      <point x="166" y="9"/>
      <point x="166" y="22" type="curve" smooth="yes"/>
      <point x="166" y="70" type="line" smooth="yes"/>
      <point x="166" y="83"/>
      <point x="156" y="93"/>
      <point x="143" y="93" type="curve" smooth="yes"/>
      <point x="95" y="93" type="line" smooth="yes"/>
      <point x="82" y="93"/>
      <point x="73" y="83"/>
      <point x="73" y="70" type="curve" smooth="yes"/>
      <point x="73" y="22" type="line" smooth="yes"/>
      <point x="73" y="9"/>
      <point x="82" y="0"/>
    </contour>
  </outline>
</glyph>
<glyph name="one" format="2">
  <advance width="398"/>
  <unicode hex="0031"/>
  <outline>
    <contour>
      <point x="276" y="0" type="curve" smooth="yes"/>
      <point x="295" y="0" type="line" smooth="yes"/>
      <point x="308" y="0"/>
      <point x="317" y="9"/>
      <point x="317" y="22" type="curve" smooth="yes"/>
      <point x="317" y="678" type="line" smooth="yes"/>
      <point x="317" y="691"/>
      <point x="308" y="700"/>
      <point x="295" y="700" type="curve" smooth="yes"/>
      <point x="276" y="700" type="line" smooth="yes"/>
      <point x="267" y="700"/>
      <point x="259" y="699"/>
      <point x="250" y="693" type="curve"/>
      <point x="37" y="529" type="line" smooth="yes"/>
      <point x="26" y="521"/>
      <point x="25" y="508"/>
      <point x="33" y="498" type="curve" smooth="yes"/>
      <point x="44" y="484" type="line" smooth="yes"/>
      <point x="52" y="473"/>
      <point x="64" y="472"/>
      <point x="75" y="480" type="curve" smooth="yes"/>
      <point x="254" y="618" type="line"/>
      <point x="254" y="22" type="line" smooth="yes"/>
      <point x="254" y="9"/>
      <point x="263" y="0"/>
    </contour>
  </outline>
</glyph>
<glyph name="colon" format="2">
  <advance width="241"/>
  <unicode hex="003A"/>
  <outline>
    <contour>
      <point x="96" y="350" type="curve" smooth="yes"/>
      <point x="144" y="350" type="line" smooth="yes"/>
      <point x="157" y="350"/>
      <point x="167" y="359"/>
      <point x="167" y="372" type="curve" smooth="yes"/>
      <point x="167" y="420" type="line" smooth="yes"/>
      <point x="167" y="433"/>
      <point x="157" y="443"/>
      <point x="144" y="443" type="curve" smooth="yes"/>
      <point x="96" y="443" type="line" smooth="yes"/>
      <point x="83" y="443"/>
      <point x="74" y="433"/>
      <point x="74" y="420" type="curve" smooth="yes"/>
      <point x="74" y="372" type="line" smooth="yes"/>
      <point x="74" y="359"/>
      <point x="83" y="350"/>
    </contour>
    <contour>
      <point x="96" y="0" type="curve" smooth="yes"/>
      <point x="144" y="0" type="line" smooth="yes"/>
      <point x="157" y="0"/>
      <point x="167" y="9"/>
      <point x="167" y="22" type="curve" smooth="yes"/>
      <point x="167" y="70" type="line" smooth="yes"/>
      <point x="167" y="83"/>
      <point x="157" y="93"/>
      <point x="144" y="93" type="curve" smooth="yes"/>
      <point x="96" y="93" type="line" smooth="yes"/>
      <point x="83" y="93"/>
      <point x="74" y="83"/>
      <point x="74" y="70" type="curve" smooth="yes"/>
      <point x="74" y="22" type="line" smooth="yes"/>
      <point x="74" y="9"/>
      <point x="83" y="0"/>
    </contour>
  </outline>
</glyph>
<glyph name="semicolon" format="2">
  <advance width="259"/>
  <unicode hex="003B"/>
  <guideline x="171"/>
  <outline>
    <contour>
      <point x="88" y="-75" type="curve" smooth="yes"/>
      <point x="105" y="-75" type="line" smooth="yes"/>
      <point x="120" y="-75"/>
      <point x="125" y="-67"/>
      <point x="131" y="-54" type="curve"/>
      <point x="174" y="59" type="line" smooth="yes"/>
      <point x="177" y="66"/>
      <point x="178" y="72"/>
      <point x="178" y="77" type="curve" smooth="yes"/>
      <point x="178" y="85"/>
      <point x="172" y="93"/>
      <point x="163" y="93" type="curve" smooth="yes"/>
      <point x="118" y="93" type="line" smooth="yes"/>
      <point x="102" y="93"/>
      <point x="95" y="82"/>
      <point x="93" y="66" type="curve" smooth="yes"/>
      <point x="74" y="-54" type="line" smooth="yes"/>
      <point x="72" y="-66"/>
      <point x="77" y="-75"/>
    </contour>
    <contour>
      <point x="108" y="350" type="curve" smooth="yes"/>
      <point x="156" y="350" type="line" smooth="yes"/>
      <point x="169" y="350"/>
      <point x="179" y="359"/>
      <point x="179" y="372" type="curve" smooth="yes"/>
      <point x="179" y="420" type="line" smooth="yes"/>
      <point x="179" y="433"/>
      <point x="169" y="443"/>
      <point x="156" y="443" type="curve" smooth="yes"/>
      <point x="108" y="443" type="line" smooth="yes"/>
      <point x="95" y="443"/>
      <point x="86" y="433"/>
      <point x="86" y="420" type="curve" smooth="yes"/>
      <point x="86" y="372" type="line" smooth="yes"/>
      <point x="86" y="359"/>
      <point x="95" y="350"/>
    </contour>
  </outline>
</glyph>
<glyph name="A" format="2">
  <advance width="650"/>
  <unicode hex="0041"/>
  <guideline y="680"/>
  <guideline x="35"/>
  <guideline x="637"/>
  <guideline x="336"/>
  <anchor x="325" y="0" name="bottom"/>
  <anchor x="585" y="10" name="ogonek"/>
  <anchor x="325" y="700" name="top"/>
  <outline>
    <contour>
      <point x="44" y="0" type="curve" smooth="yes"/>
      <point x="64" y="0" type="line" smooth="yes"/>
      <point x="77" y="0"/>
      <point x="84" y="10"/>
      <point x="86" y="15" type="curve" smooth="yes"/>
      <point x="148" y="175" type="line"/>
      <point x="502" y="175" type="line"/>
      <point x="564" y="15" type="line" smooth="yes"/>
      <point x="566" y="10"/>
      <point x="573" y="0"/>
      <point x="586" y="0" type="curve" smooth="yes"/>
      <point x="606" y="0" type="line" smooth="yes"/>
      <point x="617" y="0"/>
      <point x="626" y="9"/>
      <point x="626" y="20" type="curve" smooth="yes"/>
      <point x="626" y="22"/>
      <point x="625" y="28"/>
      <point x="624" y="31" type="curve" smooth="yes"/>
      <point x="371" y="680" type="line" smooth="yes"/>
      <point x="366" y="693"/>
      <point x="358" y="700"/>
      <point x="342" y="700" type="curve" smooth="yes"/>
      <point x="308" y="700" type="line" smooth="yes"/>
      <point x="292" y="700"/>
      <point x="284" y="693"/>
      <point x="279" y="680" type="curve" smooth="yes"/>
      <point x="26" y="31" type="line" smooth="yes"/>
      <point x="25" y="28"/>
      <point x="24" y="22"/>
      <point x="24" y="20" type="curve" smooth="yes"/>
      <point x="24" y="9"/>
      <point x="33" y="0"/>
    </contour>
    <contour>
      <point x="172" y="235" type="line"/>
      <point x="325" y="629" type="line"/>
      <point x="478" y="235" type="line"/>
    </contour>
  </outline>
</glyph>
<glyph name="B" format="2">
  <advance width="653"/>
  <unicode hex="0042"/>
  <guideline y="271"/>
  <guideline y="437"/>
  <guideline y="521"/>
  <guideline y="198"/>
  <guideline y="9"/>
  <guideline x="355"/>
  <guideline x="583"/>
  <guideline x="94"/>
  <outline>
    <contour>
      <point x="116" y="0" type="curve" smooth="yes"/>
      <point x="384" y="0" type="line"/>
      <point x="520" y="0"/>
      <point x="592" y="97"/>
      <point x="592" y="198" type="curve" smooth="yes"/>
      <point x="592" y="282"/>
      <point x="543" y="342"/>
      <point x="490" y="369" type="curve"/>
      <point x="530" y="388"/>
      <point x="578" y="435"/>
      <point x="578" y="521" type="curve" smooth="yes"/>
      <point x="578" y="616"/>
      <point x="517" y="700"/>
      <point x="377" y="700" type="curve" smooth="yes"/>
      <point x="116" y="700" type="line" smooth="yes"/>
      <point x="103" y="700"/>
      <point x="94" y="691"/>
      <point x="94" y="677" type="curve" smooth="yes"/>
      <point x="94" y="22" type="line" smooth="yes"/>
      <point x="94" y="9"/>
      <point x="103" y="0"/>
    </contour>
    <contour>
      <point x="157" y="60" type="line"/>
      <point x="157" y="336" type="line"/>
      <point x="374" y="336" type="line"/>
      <point x="473" y="336"/>
      <point x="529" y="279"/>
      <point x="529" y="198" type="curve" smooth="yes"/>
      <point x="529" y="118"/>
      <point x="473" y="60"/>
      <point x="374" y="60" type="curve" smooth="yes"/>
    </contour>
    <contour>
      <point x="157" y="396" type="line"/>
      <point x="157" y="640" type="line"/>
      <point x="364" y="640" type="line"/>
      <point x="463" y="640"/>
      <point x="515" y="600"/>
      <point x="515" y="521" type="curve" smooth="yes"/>
      <point x="515" y="442"/>
      <point x="463" y="396"/>
      <point x="364" y="396" type="curve" smooth="yes"/>
    </contour>
  </outline>
</glyph>
<glyph name="D" format="2">
  <advance width="677"/>
  <unicode hex="0044"/>
  <guideline y="425"/>
  <guideline y="276"/>
  <guideline y="9"/>
  <guideline x="320"/>
  <guideline x="603"/>
  <guideline x="94"/>
  <outline>
    <contour>
      <point x="116" y="0" type="curve" smooth="yes"/>
      <point x="334" y="0" type="line" smooth="yes"/>
      <point x="540" y="0"/>
      <point x="603" y="87"/>
      <point x="607" y="271" type="curve" smooth="yes"/>
      <point x="608" y="331"/>
      <point x="608" y="370"/>
      <point x="607" y="430" type="curve" smooth="yes"/>
      <point x="604" y="604"/>
      <point x="541" y="700"/>
      <point x="329" y="700" type="curve"/>
      <point x="116" y="700" type="line" smooth="yes"/>
      <point x="103" y="700"/>
      <point x="94" y="691"/>
      <point x="94" y="677" type="curve" smooth="yes"/>
      <point x="94" y="22" type="line" smooth="yes"/>
      <point x="94" y="9"/>
      <point x="103" y="0"/>
    </contour>
    <contour>
      <point x="157" y="60" type="line"/>
      <point x="157" y="640" type="line"/>
      <point x="324" y="640" type="line" smooth="yes"/>
      <point x="484" y="640"/>
      <point x="541" y="571"/>
      <point x="544" y="425" type="curve" smooth="yes"/>
      <point x="545" y="365"/>
      <point x="545" y="336"/>
      <point x="544" y="276" type="curve" smooth="yes"/>
      <point x="541" y="120"/>
      <point x="488" y="60"/>
      <point x="329" y="60" type="curve" smooth="yes"/>
    </contour>
  </outline>
</glyph>
<glyph name="E" format="2">
  <advance width="592"/>
  <unicode hex="0045"/>
  <guideline y="334"/>
  <guideline y="9"/>
  <guideline y="376"/>
  <guideline y="691"/>
  <guideline y="649"/>
  <guideline x="664"/>
  <guideline x="94"/>
  <guideline x="511"/>
  <anchor x="296" y="0" name="bottom"/>
  <anchor x="533" y="10" name="ogonek"/>
  <anchor x="296" y="700" name="top"/>
  <anchor x="20" y="700" name="topleft"/>
  <outline>
    <contour>
      <point x="116" y="0" type="curve" smooth="yes"/>
      <point x="514" y="0" type="line" smooth="yes"/>
      <point x="528" y="0"/>
      <point x="537" y="9"/>
      <point x="537" y="22" type="curve" smooth="yes"/>
      <point x="537" y="37" type="line" smooth="yes"/>
      <point x="537" y="51"/>
      <point x="528" y="60"/>
      <point x="514" y="60" type="curve"/>
      <point x="157" y="60" type="line"/>
      <point x="157" y="325" type="line"/>
      <point x="484" y="325" type="line" smooth="yes"/>
      <point x="498" y="325"/>
      <point x="507" y="334"/>
      <point x="507" y="347" type="curve" smooth="yes"/>
      <point x="507" y="362" type="line" smooth="yes"/>
      <point x="507" y="376"/>
      <point x="498" y="385"/>
      <point x="484" y="385" type="curve" smooth="yes"/>
      <point x="157" y="385" type="line"/>
      <point x="157" y="640" type="line"/>
      <point x="506" y="640" type="line" smooth="yes"/>
      <point x="520" y="640"/>
      <point x="529" y="649"/>
      <point x="529" y="662" type="curve" smooth="yes"/>
      <point x="529" y="677" type="line" smooth="yes"/>
      <point x="529" y="691"/>
      <point x="520" y="700"/>
      <point x="506" y="700" type="curve" smooth="yes"/>
      <point x="116" y="700" type="line" smooth="yes"/>
      <point x="103" y="700"/>
      <point x="94" y="691"/>
      <point x="94" y="677" type="curve" smooth="yes"/>
      <point x="94" y="22" type="line" smooth="yes"/>
      <point x="94" y="9"/>
      <point x="103" y="0"/>
    </contour>
  </outline>
</glyph>
<glyph name="H" format="2">
  <advance width="700"/>
  <unicode hex="0048"/>
  <guideline y="350"/>
  <guideline y="9"/>
  <guideline y="691"/>
  <guideline x="94"/>
  <guideline x="139"/>
  <guideline x="543"/>
  <guideline x="588"/>
  <outline>
    <contour>
      <point x="116" y="0" type="curve" smooth="yes"/>
      <point x="134" y="0" type="line" smooth="yes"/>
      <point x="148" y="0"/>
      <point x="157" y="9"/>
      <point x="157" y="22" type="curve" smooth="yes"/>
      <point x="157" y="325" type="line"/>
      <point x="543" y="325" type="line"/>
      <point x="543" y="22" type="line" smooth="yes"/>
      <point x="543" y="9"/>
      <point x="552" y="0"/>
      <point x="565" y="0" type="curve" smooth="yes"/>
      <point x="583" y="0" type="line" smooth="yes"/>
      <point x="597" y="0"/>
      <point x="606" y="9"/>
      <point x="606" y="22" type="curve" smooth="yes"/>
      <point x="606" y="677" type="line" smooth="yes"/>
      <point x="606" y="691"/>
      <point x="597" y="700"/>
      <point x="583" y="700" type="curve" smooth="yes"/>
      <point x="565" y="700" type="line"/>
      <point x="552" y="700"/>
      <point x="543" y="691"/>
      <point x="543" y="677" type="curve" smooth="yes"/>
      <point x="543" y="385" type="line"/>
      <point x="157" y="385" type="line"/>
      <point x="157" y="677" type="line" smooth="yes"/>
      <point x="157" y="691"/>
      <point x="148" y="700"/>
      <point x="134" y="700" type="curve" smooth="yes"/>
      <point x="116" y="700" type="line" smooth="yes"/>
      <point x="103" y="700"/>
      <point x="94" y="691"/>
      <point x="94" y="677" type="curve" smooth="yes"/>
      <point x="94" y="22" type="line" smooth="yes"/>
      <point x="94" y="9"/>
      <point x="103" y="0"/>
    </contour>
  </outline>
</glyph>
<glyph name="I" format="2">
  <advance width="251"/>
  <unicode hex="0049"/>
  <guideline x="85"/>
  <guideline x="148"/>
  <anchor x="126" y="0" name="bottom"/>
  <anchor x="226" y="10" name="ogonek"/>
  <anchor x="126" y="700" name="top"/>
  <anchor x="20" y="700" name="topleft"/>
  <outline>
    <contour>
      <point x="116" y="0" type="curve" smooth="yes"/>
      <point x="135" y="0" type="line" smooth="yes"/>
      <point x="148" y="0"/>
      <point x="157" y="9"/>
      <point x="157" y="22" type="curve" smooth="yes"/>
      <point x="157" y="678" type="line" smooth="yes"/>
      <point x="157" y="691"/>
      <point x="148" y="700"/>
      <point x="135" y="700" type="curve" smooth="yes"/>
      <point x="116" y="700" type="line" smooth="yes"/>
      <point x="103" y="700"/>
      <point x="94" y="691"/>
      <point x="94" y="678" type="curve" smooth="yes"/>
      <point x="94" y="22" type="line" smooth="yes"/>
      <point x="94" y="9"/>
      <point x="103" y="0"/>
    </contour>
  </outline>
</glyph>
<glyph name="J" format="2">
  <advance width="618"/>
  <unicode hex="004A"/>
  <guideline y="-10"/>
  <guideline y="133"/>
  <guideline y="677"/>
  <guideline x="303"/>
  <guideline x="60"/>
  <guideline x="91"/>
  <outline>
    <contour>
      <point x="288" y="-10" type="curve" smooth="yes"/>
      <point x="445" y="-10"/>
      <point x="530" y="99"/>
      <point x="530" y="255" type="curve"/>
      <point x="530" y="677" type="line" smooth="yes"/>
      <point x="530" y="691"/>
      <point x="521" y="700"/>
      <point x="507" y="700" type="curve" smooth="yes"/>
      <point x="98" y="700" type="line" smooth="yes"/>
      <point x="85" y="700"/>
      <point x="76" y="691"/>
      <point x="76" y="678" type="curve" smooth="yes"/>
      <point x="76" y="662" type="line" smooth="yes"/>
      <point x="76" y="649"/>
      <point x="85" y="640"/>
      <point x="98" y="640" type="curve" smooth="yes"/>
      <point x="467" y="640" type="line"/>
      <point x="467" y="256" type="line" smooth="yes"/>
      <point x="467" y="135"/>
      <point x="405" y="50"/>
      <point x="288" y="50" type="curve" smooth="yes"/>
      <point x="196" y="50"/>
      <point x="116" y="91"/>
      <point x="108" y="195" type="curve" smooth="yes"/>
      <point x="107" y="207"/>
      <point x="99" y="216"/>
      <point x="86" y="216" type="curve" smooth="yes"/>
      <point x="66" y="216" type="line" smooth="yes"/>
      <point x="52" y="216"/>
      <point x="45" y="206"/>
      <point x="45" y="194" type="curve" smooth="yes"/>
      <point x="50" y="52"/>
      <point x="158" y="-10"/>
    </contour>
  </outline>
</glyph>
<glyph name="L" format="2">
  <advance width="548"/>
  <unicode hex="004C"/>
  <anchor x="274" y="0" name="bottom"/>
  <anchor x="274" y="350" name="center"/>
  <anchor x="125" y="700" name="top"/>
  <anchor x="528" y="700" name="topright"/>
  <outline>
    <contour>
      <point x="116" y="0" type="curve"/>
      <point x="502" y="0" type="line"/>
      <point x="516" y="0"/>
      <point x="525" y="9"/>
      <point x="525" y="22" type="curve"/>
      <point x="525" y="37" type="line"/>
      <point x="525" y="51"/>
      <point x="516" y="60"/>
      <point x="502" y="60" type="curve"/>
      <point x="157" y="60" type="line"/>
      <point x="157" y="678" type="line"/>
      <point x="157" y="691"/>
      <point x="148" y="700"/>
      <point x="135" y="700" type="curve"/>
      <point x="116" y="700" type="line"/>
      <point x="103" y="700"/>
      <point x="94" y="691"/>
      <point x="94" y="678" type="curve"/>
      <point x="94" y="22" type="line"/>
      <point x="94" y="9"/>
      <point x="103" y="0"/>
    </contour>
  </outline>
</glyph>
<glyph name="M" format="2">
  <advance width="780"/>
  <unicode hex="004D"/>
  <guideline y="168"/>
  <guideline y="9"/>
  <guideline y="691"/>
  <guideline x="126"/>
  <guideline x="636"/>
  <outline>
    <contour>
      <point x="117" y="0" type="curve" smooth="yes"/>
      <point x="135" y="0" type="line" smooth="yes"/>
      <point x="148" y="0"/>
      <point x="157" y="9"/>
      <point x="157" y="22" type="curve" smooth="yes"/>
      <point x="157" y="564" type="line"/>
      <point x="348" y="188" type="line" smooth="yes"/>
      <point x="354" y="175"/>
      <point x="363" y="168"/>
      <point x="379" y="168" type="curve" smooth="yes"/>
      <point x="401" y="168" type="line" smooth="yes"/>
      <point x="417" y="168"/>
      <point x="426" y="175"/>
      <point x="432" y="188" type="curve" smooth="yes"/>
      <point x="623" y="564" type="line"/>
      <point x="623" y="22" type="line" smooth="yes"/>
      <point x="623" y="9"/>
      <point x="632" y="0"/>
      <point x="645" y="0" type="curve" smooth="yes"/>
      <point x="663" y="0" type="line" smooth="yes"/>
      <point x="677" y="0"/>
      <point x="686" y="9"/>
      <point x="686" y="22" type="curve" smooth="yes"/>
      <point x="686" y="677" type="line" smooth="yes"/>
      <point x="686" y="691"/>
      <point x="677" y="700"/>
      <point x="663" y="700" type="curve" smooth="yes"/>
      <point x="639" y="700" type="line" smooth="yes"/>
      <point x="626" y="700"/>
      <point x="620" y="691"/>
      <point x="618" y="687" type="curve" smooth="yes"/>
      <point x="390" y="245" type="line"/>
      <point x="163" y="687" type="line" smooth="yes"/>
      <point x="161" y="691"/>
      <point x="155" y="700"/>
      <point x="142" y="700" type="curve" smooth="yes"/>
      <point x="117" y="700" type="line" smooth="yes"/>
      <point x="103" y="700"/>
      <point x="94" y="691"/>
      <point x="94" y="677" type="curve" smooth="yes"/>
      <point x="94" y="22" type="line" smooth="yes"/>
      <point x="94" y="9"/>
      <point x="103" y="0"/>
    </contour>
  </outline>
</glyph>
<glyph name="O" format="2">
  <advance width="662"/>
  <unicode hex="004F"/>
  <guideline y="-10"/>
  <guideline y="710"/>
  <guideline y="335"/>
  <guideline y="434"/>
  <guideline y="266"/>
  <guideline x="496"/>
  <anchor x="331" y="0" name="bottom"/>
  <anchor x="331" y="350" name="center"/>
  <anchor x="596" y="10" name="ogonek"/>
  <anchor x="331" y="700" name="top"/>
  <anchor x="20" y="700" name="topleft"/>
  <anchor x="642" y="700" name="topright"/>
  <outline>
    <contour>
      <point x="331" y="-10" type="curve" smooth="yes"/>
      <point x="497" y="-10"/>
      <point x="590" y="77"/>
      <point x="595" y="266" type="curve" smooth="yes"/>
      <point x="597" y="326"/>
      <point x="597" y="374"/>
      <point x="595" y="434" type="curve" smooth="yes"/>
      <point x="590" y="620"/>
      <point x="487" y="710"/>
      <point x="331" y="710" type="curve" smooth="yes"/>
      <point x="175" y="710"/>
      <point x="72" y="620"/>
      <point x="67" y="434" type="curve" smooth="yes"/>
      <point x="65" y="374"/>
      <point x="65" y="326"/>
      <point x="67" y="266" type="curve" smooth="yes"/>
      <point x="72" y="77"/>
      <point x="165" y="-10"/>
    </contour>
    <contour>
      <point x="331" y="50" type="curve" smooth="yes"/>
      <point x="217" y="50"/>
      <point x="135" y="115"/>
      <point x="130" y="271" type="curve" smooth="yes"/>
      <point x="128" y="331"/>
      <point x="128" y="369"/>
      <point x="130" y="429" type="curve" smooth="yes"/>
      <point x="135" y="585"/>
      <point x="218" y="650"/>
      <point x="331" y="650" type="curve" smooth="yes"/>
      <point x="444" y="650"/>
      <point x="527" y="585"/>
      <point x="532" y="429" type="curve" smooth="yes"/>
      <point x="534" y="369"/>
      <point x="534" y="331"/>
      <point x="532" y="271" type="curve" smooth="yes"/>
      <point x="527" y="115"/>
      <point x="445" y="50"/>
    </contour>
  </outline>
</glyph>
<glyph name="P" format="2">
  <advance width="628"/>
  <unicode hex="0050"/>
  <guideline y="493"/>
  <guideline y="403"/>
  <guideline y="218"/>
  <guideline y="310"/>
  <guideline y="9"/>
  <guideline y="691"/>
  <guideline x="345"/>
  <guideline x="94"/>
  <guideline x="139"/>
  <outline>
    <contour>
      <point x="116" y="0" type="curve" smooth="yes"/>
      <point x="134" y="0" type="line" smooth="yes"/>
      <point x="148" y="0"/>
      <point x="157" y="9"/>
      <point x="157" y="22" type="curve" smooth="yes"/>
      <point x="157" y="286" type="line"/>
      <point x="359" y="286" type="line" smooth="yes"/>
      <point x="499" y="286"/>
      <point x="589" y="357"/>
      <point x="589" y="493" type="curve" smooth="yes"/>
      <point x="589" y="629"/>
      <point x="499" y="700"/>
      <point x="359" y="700" type="curve" smooth="yes"/>
      <point x="116" y="700" type="line" smooth="yes"/>
      <point x="103" y="700"/>
      <point x="94" y="691"/>
      <point x="94" y="677" type="curve" smooth="yes"/>
      <point x="94" y="22" type="line" smooth="yes"/>
      <point x="94" y="9"/>
      <point x="103" y="0"/>
    </contour>
    <contour>
      <point x="157" y="346" type="line"/>
      <point x="157" y="640" type="line"/>
      <point x="354" y="640" type="line" smooth="yes"/>
      <point x="470" y="640"/>
      <point x="526" y="588"/>
      <point x="526" y="493" type="curve" smooth="yes"/>
      <point x="526" y="398"/>
      <point x="470" y="346"/>
      <point x="354" y="346" type="curve" smooth="yes"/>
    </contour>
  </outline>
</glyph>
<glyph name="Q" format="2">
  <advance width="662"/>
  <unicode hex="0051"/>
  <guideline y="710"/>
  <guideline y="-10"/>
  <guideline y="-56"/>
  <guideline x="82"/>
  <guideline x="750"/>
  <guideline x="580"/>
  <outline>
    <contour>
      <point x="547" y="-65" type="curve"/>
      <point x="569" y="-65" type="line"/>
      <point x="580" y="-65"/>
      <point x="589" y="-56"/>
      <point x="589" y="-45" type="curve" smooth="yes"/>
      <point x="589" y="-39"/>
      <point x="587" y="-36"/>
      <point x="586" y="-34" type="curve"/>
      <point x="522" y="56" type="line"/>
      <point x="568" y="101"/>
      <point x="592" y="171"/>
      <point x="595" y="266" type="curve" smooth="yes"/>
      <point x="597" y="326"/>
      <point x="597" y="374"/>
      <point x="595" y="434" type="curve" smooth="yes"/>
      <point x="590" y="620"/>
      <point x="487" y="710"/>
      <point x="331" y="710" type="curve" smooth="yes"/>
      <point x="175" y="710"/>
      <point x="72" y="620"/>
      <point x="67" y="434" type="curve" smooth="yes"/>
      <point x="65" y="374"/>
      <point x="65" y="326"/>
      <point x="67" y="266" type="curve" smooth="yes"/>
      <point x="72" y="77"/>
      <point x="165" y="-10"/>
      <point x="331" y="-10" type="curve" smooth="yes"/>
      <point x="386" y="-10"/>
      <point x="432" y="0"/>
      <point x="471" y="19" type="curve"/>
      <point x="515" y="-42" type="line"/>
      <point x="521" y="-50"/>
      <point x="532" y="-65"/>
    </contour>
    <contour>
      <point x="331" y="50" type="curve" smooth="yes"/>
      <point x="217" y="50"/>
      <point x="135" y="115"/>
      <point x="130" y="271" type="curve" smooth="yes"/>
      <point x="128" y="331"/>
      <point x="128" y="369"/>
      <point x="130" y="429" type="curve" smooth="yes"/>
      <point x="135" y="585"/>
      <point x="218" y="650"/>
      <point x="331" y="650" type="curve" smooth="yes"/>
      <point x="444" y="650"/>
      <point x="527" y="585"/>
      <point x="532" y="429" type="curve" smooth="yes"/>
      <point x="534" y="369"/>
      <point x="534" y="331"/>
      <point x="532" y="271" type="curve" smooth="yes"/>
      <point x="527" y="115"/>
      <point x="445" y="50"/>
    </contour>
  </outline>
</glyph>
<glyph name="R" format="2">
  <advance width="640"/>
  <unicode hex="0052"/>
  <guideline y="691"/>
  <guideline y="9"/>
  <guideline x="616"/>
  <guideline x="574"/>
  <guideline x="94"/>
  <guideline x="139"/>
  <anchor x="320" y="0" name="bottom"/>
  <anchor x="300" y="700" name="top"/>
  <outline>
    <contour>
      <point x="116" y="0" type="curve" smooth="yes"/>
      <point x="134" y="0" type="line" smooth="yes"/>
      <point x="148" y="0"/>
      <point x="157" y="9"/>
      <point x="157" y="22" type="curve" smooth="yes"/>
      <point x="157" y="296" type="line"/>
      <point x="363" y="296" type="line"/>
      <point x="522" y="27" type="line" smooth="yes"/>
      <point x="530" y="13"/>
      <point x="538" y="0"/>
      <point x="560" y="0" type="curve" smooth="yes"/>
      <point x="572" y="0" type="line" smooth="yes"/>
      <point x="583" y="0"/>
      <point x="592" y="9"/>
      <point x="592" y="20" type="curve" smooth="yes"/>
      <point x="592" y="24"/>
      <point x="591" y="27"/>
      <point x="589" y="31" type="curve" smooth="yes"/>
      <point x="428" y="305" type="line"/>
      <point x="523" y="327"/>
      <point x="579" y="391"/>
      <point x="579" y="498" type="curve" smooth="yes"/>
      <point x="579" y="634"/>
      <point x="489" y="700"/>
      <point x="349" y="700" type="curve" smooth="yes"/>
      <point x="116" y="700" type="line" smooth="yes"/>
      <point x="103" y="700"/>
      <point x="94" y="691"/>
      <point x="94" y="677" type="curve" smooth="yes"/>
      <point x="94" y="22" type="line" smooth="yes"/>
      <point x="94" y="9"/>
      <point x="103" y="0"/>
    </contour>
    <contour>
      <point x="157" y="356" type="line"/>
      <point x="157" y="640" type="line"/>
      <point x="344" y="640" type="line" smooth="yes"/>
      <point x="460" y="640"/>
      <point x="516" y="593"/>
      <point x="516" y="498" type="curve" smooth="yes"/>
      <point x="516" y="403"/>
      <point x="460" y="356"/>
      <point x="344" y="356" type="curve" smooth="yes"/>
    </contour>
  </outline>
</glyph>
<glyph name="T" format="2">
  <advance width="557"/>
  <unicode hex="0054"/>
  <guideline y="495"/>
  <guideline y="9"/>
  <guideline y="691"/>
  <guideline y="649"/>
  <guideline x="279"/>
  <guideline x="324"/>
  <guideline x="59"/>
  <guideline x="544"/>
  <outline>
    <contour>
      <point x="269" y="0" type="curve" smooth="yes"/>
      <point x="287" y="0" type="line" smooth="yes"/>
      <point x="301" y="0"/>
      <point x="310" y="9"/>
      <point x="310" y="22" type="curve" smooth="yes"/>
      <point x="310" y="640" type="line"/>
      <point x="507" y="640" type="line" smooth="yes"/>
      <point x="521" y="640"/>
      <point x="530" y="649"/>
      <point x="530" y="662" type="curve" smooth="yes"/>
      <point x="530" y="677" type="line" smooth="yes"/>
      <point x="530" y="691"/>
      <point x="521" y="700"/>
      <point x="507" y="700" type="curve" smooth="yes"/>
      <point x="49" y="700" type="line" smooth="yes"/>
      <point x="36" y="700"/>
      <point x="27" y="691"/>
      <point x="27" y="677" type="curve" smooth="yes"/>
      <point x="27" y="662" type="line" smooth="yes"/>
      <point x="27" y="649"/>
      <point x="36" y="640"/>
      <point x="49" y="640" type="curve" smooth="yes"/>
      <point x="247" y="640" type="line"/>
      <point x="247" y="22" type="line" smooth="yes"/>
      <point x="247" y="9"/>
      <point x="256" y="0"/>
    </contour>
  </outline>
</glyph>
<glyph name="Z" format="2">
  <advance width="579"/>
  <unicode hex="005A"/>
  <guideline y="51"/>
  <guideline y="9"/>
  <guideline y="691"/>
  <guideline y="649"/>
  <guideline x="189"/>
  <guideline x="815"/>
  <guideline x="732"/>
  <guideline x="-431"/>
  <guideline x="74"/>
  <guideline x="541"/>
  <anchor x="290" y="0" name="bottom"/>
  <anchor x="280" y="700" name="top"/>
  <outline>
    <contour>
      <point x="64" y="0" type="curve" smooth="yes"/>
      <point x="514" y="0" type="line" smooth="yes"/>
      <point x="528" y="0"/>
      <point x="537" y="9"/>
      <point x="537" y="22" type="curve" smooth="yes"/>
      <point x="537" y="37" type="line" smooth="yes"/>
      <point x="537" y="51"/>
      <point x="528" y="60"/>
      <point x="514" y="60" type="curve" smooth="yes"/>
      <point x="122" y="60" type="line"/>
      <point x="514" y="621" type="line" smooth="yes"/>
      <point x="520" y="630"/>
      <point x="527" y="640"/>
      <point x="527" y="657" type="curve" smooth="yes"/>
      <point x="527" y="677" type="line" smooth="yes"/>
      <point x="527" y="691"/>
      <point x="518" y="700"/>
      <point x="504" y="700" type="curve" smooth="yes"/>
      <point x="73" y="700" type="line" smooth="yes"/>
      <point x="60" y="700"/>
      <point x="51" y="691"/>
      <point x="51" y="677" type="curve" smooth="yes"/>
      <point x="51" y="662" type="line" smooth="yes"/>
      <point x="51" y="649"/>
      <point x="60" y="640"/>
      <point x="73" y="640" type="curve" smooth="yes"/>
      <point x="451" y="640" type="line"/>
      <point x="57" y="81" type="line" smooth="yes"/>
      <point x="53" y="75"/>
      <point x="42" y="63"/>
      <point x="42" y="43" type="curve" smooth="yes"/>
      <point x="42" y="23" type="line" smooth="yes"/>
      <point x="42" y="9"/>
      <point x="51" y="0"/>
    </contour>
  </outline>
</glyph>
<glyph name="asciicircum" format="2">
  <advance width="418"/>
  <unicode hex="005E"/>
  <guideline y="575"/>
  <guideline y="705"/>
  <outline>
    <contour>
      <point x="87" y="575" type="curve" smooth="yes"/>
      <point x="104" y="575" type="line" smooth="yes"/>
      <point x="112" y="575"/>
      <point x="124" y="578"/>
      <point x="129" y="582" type="curve" smooth="yes"/>
      <point x="209" y="642" type="line"/>
      <point x="289" y="582" type="line" smooth="yes"/>
      <point x="294" y="578"/>
      <point x="306" y="575"/>
      <point x="314" y="575" type="curve" smooth="yes"/>
      <point x="331" y="575" type="line" smooth="yes"/>
      <point x="341" y="575"/>
      <point x="345" y="578"/>
      <point x="345" y="586" type="curve" smooth="yes"/>
      <point x="345" y="592"/>
      <point x="341" y="598"/>
      <point x="333" y="606" type="curve" smooth="yes"/>
      <point x="246" y="691" type="line" smooth="yes"/>
      <point x="232" y="705"/>
      <point x="224" y="705"/>
      <point x="214" y="705" type="curve" smooth="yes"/>
      <point x="204" y="705" type="line" smooth="yes"/>
      <point x="194" y="705"/>
      <point x="186" y="705"/>
      <point x="172" y="691" type="curve" smooth="yes"/>
      <point x="85" y="606" type="line" smooth="yes"/>
      <point x="77" y="598"/>
      <point x="73" y="592"/>
      <point x="73" y="586" type="curve" smooth="yes"/>
      <point x="73" y="578"/>
      <point x="77" y="575"/>
    </contour>
  </outline>
</glyph>
<glyph name="underscore" format="2">
  <advance width="753"/>
  <unicode hex="005F"/>
  <outline>
    <contour>
      <point x="89" y="-28" type="curve" smooth="yes"/>
      <point x="664" y="-28" type="line"/>
      <point x="677" y="-28"/>
      <point x="686" y="-19"/>
      <point x="686" y="-6" type="curve" smooth="yes"/>
      <point x="686" y="8" type="line" smooth="yes"/>
      <point x="686" y="21"/>
      <point x="677" y="30"/>
      <point x="664" y="30" type="curve" smooth="yes"/>
      <point x="89" y="30" type="line" smooth="yes"/>
      <point x="76" y="30"/>
      <point x="67" y="21"/>
      <point x="67" y="8" type="curve" smooth="yes"/>
      <point x="67" y="-6" type="line" smooth="yes"/>
      <point x="67" y="-19"/>
      <point x="76" y="-28"/>
    </contour>
  </outline>
</glyph>
<glyph name="h" format="2">
  <advance width="591"/>
  <unicode hex="0068"/>
  <guideline y="9"/>
  <guideline y="301"/>
  <guideline y="414"/>
  <guideline y="710"/>
  <guideline x="79"/>
  <guideline x="291"/>
  <outline>
    <contour>
      <point x="104" y="0" type="curve" smooth="yes"/>
      <point x="121" y="0" type="line" smooth="yes"/>
      <point x="134" y="0"/>
      <point x="143" y="9"/>
      <point x="143" y="22" type="curve" smooth="yes"/>
      <point x="143" y="301" type="line" smooth="yes"/>
      <point x="143" y="408"/>
      <point x="206" y="472"/>
      <point x="301" y="472" type="curve" smooth="yes"/>
      <point x="401" y="472"/>
      <point x="454" y="407"/>
      <point x="454" y="301" type="curve" smooth="yes"/>
      <point x="454" y="22" type="line" smooth="yes"/>
      <point x="454" y="9"/>
      <point x="463" y="0"/>
      <point x="476" y="0" type="curve" smooth="yes"/>
      <point x="493" y="0" type="line" smooth="yes"/>
      <point x="506" y="0"/>
      <point x="515" y="9"/>
      <point x="515" y="22" type="curve" smooth="yes"/>
      <point x="515" y="306" type="line" smooth="yes"/>
      <point x="515" y="433"/>
      <point x="447" y="530"/>
      <point x="311" y="530" type="curve" smooth="yes"/>
      <point x="225" y="530"/>
      <point x="179" y="498"/>
      <point x="143" y="451" type="curve"/>
      <point x="143" y="688" type="line" smooth="yes"/>
      <point x="143" y="701"/>
      <point x="134" y="710"/>
      <point x="121" y="710" type="curve" smooth="yes"/>
      <point x="104" y="710" type="line" smooth="yes"/>
      <point x="91" y="710"/>
      <point x="82" y="701"/>
      <point x="82" y="688" type="curve" smooth="yes"/>
      <point x="82" y="22" type="line" smooth="yes"/>
      <point x="82" y="9"/>
      <point x="91" y="0"/>
    </contour>
  </outline>
</glyph>
<glyph name="i" format="2">
  <advance width="223"/>
  <unicode hex="0069"/>
  <guideline y="510"/>
  <guideline y="22"/>
  <guideline y="627"/>
  <guideline x="79"/>
  <guideline x="121"/>
  <guideline x="70"/>
  <guideline x="131"/>
  <outline>
    <contour>
      <point x="103" y="0" type="curve" smooth="yes"/>
      <point x="120" y="0" type="line" smooth="yes"/>
      <point x="133" y="0"/>
      <point x="142" y="9"/>
      <point x="142" y="22" type="curve" smooth="yes"/>
      <point x="142" y="498" type="line" smooth="yes"/>
      <point x="142" y="511"/>
      <point x="133" y="520"/>
      <point x="120" y="520" type="curve" smooth="yes"/>
      <point x="103" y="520" type="line" smooth="yes"/>
      <point x="90" y="520"/>
      <point x="81" y="511"/>
      <point x="81" y="498" type="curve" smooth="yes"/>
      <point x="81" y="22" type="line" smooth="yes"/>
      <point x="81" y="9"/>
      <point x="90" y="0"/>
    </contour>
    <contour>
      <point x="92" y="627" type="curve" smooth="yes"/>
      <point x="130" y="627" type="line" smooth="yes"/>
      <point x="143" y="627"/>
      <point x="153" y="636"/>
      <point x="153" y="649" type="curve" smooth="yes"/>
      <point x="153" y="687" type="line" smooth="yes"/>
      <point x="153" y="700"/>
      <point x="143" y="710"/>
      <point x="130" y="710" type="curve" smooth="yes"/>
      <point x="92" y="710" type="line" smooth="yes"/>
      <point x="79" y="710"/>
      <point x="70" y="700"/>
      <point x="70" y="687" type="curve" smooth="yes"/>
      <point x="70" y="649" type="line" smooth="yes"/>
      <point x="70" y="636"/>
      <point x="79" y="627"/>
    </contour>
  </outline>
</glyph>
<glyph name="j" format="2">
  <advance width="233"/>
  <unicode hex="006A"/>
  <guideline y="740"/>
  <guideline y="-190"/>
  <guideline x="-46"/>
  <outline>
    <contour>
      <point x="-4" y="-190" type="curve" smooth="yes"/>
      <point x="0" y="-190" type="line" smooth="yes"/>
      <point x="122" y="-190"/>
      <point x="151" y="-116"/>
      <point x="151" y="-22" type="curve" smooth="yes"/>
      <point x="151" y="498" type="line" smooth="yes"/>
      <point x="151" y="511"/>
      <point x="142" y="520"/>
      <point x="129" y="520" type="curve" smooth="yes"/>
      <point x="112" y="520" type="line" smooth="yes"/>
      <point x="99" y="520"/>
      <point x="90" y="511"/>
      <point x="90" y="498" type="curve" smooth="yes"/>
      <point x="90" y="-22" type="line" smooth="yes"/>
      <point x="90" y="-83"/>
      <point x="81" y="-132"/>
      <point x="0" y="-132" type="curve" smooth="yes"/>
      <point x="-4" y="-132" type="line" smooth="yes"/>
      <point x="-17" y="-132"/>
      <point x="-26" y="-141"/>
      <point x="-26" y="-154" type="curve" smooth="yes"/>
      <point x="-26" y="-168" type="line" smooth="yes"/>
      <point x="-26" y="-181"/>
      <point x="-17" y="-190"/>
    </contour>
    <contour>
      <point x="101" y="627" type="curve" smooth="yes"/>
      <point x="139" y="627" type="line" smooth="yes"/>
      <point x="152" y="627"/>
      <point x="162" y="636"/>
      <point x="162" y="649" type="curve" smooth="yes"/>
      <point x="162" y="687" type="line" smooth="yes"/>
      <point x="162" y="700"/>
      <point x="152" y="710"/>
      <point x="139" y="710" type="curve" smooth="yes"/>
      <point x="101" y="710" type="line" smooth="yes"/>
      <point x="88" y="710"/>
      <point x="79" y="700"/>
      <point x="79" y="687" type="curve" smooth="yes"/>
      <point x="79" y="649" type="line" smooth="yes"/>
      <point x="79" y="636"/>
      <point x="88" y="627"/>
    </contour>
  </outline>
</glyph>
<glyph name="l" format="2">
  <advance width="225"/>
  <unicode hex="006C"/>
  <guideline y="9"/>
  <guideline y="710"/>
  <outline>
    <contour>
      <point x="104" y="0" type="curve" smooth="yes"/>
      <point x="121" y="0" type="line" smooth="yes"/>
      <point x="134" y="0"/>
      <point x="143" y="9"/>
      <point x="143" y="22" type="curve" smooth="yes"/>
      <point x="143" y="688" type="line" smooth="yes"/>
      <point x="143" y="701"/>
      <point x="134" y="710"/>
      <point x="121" y="710" type="curve" smooth="yes"/>
      <point x="104" y="710" type="line" smooth="yes"/>
      <point x="91" y="710"/>
      <point x="82" y="701"/>
      <point x="82" y="688" type="curve" smooth="yes"/>
      <point x="82" y="22" type="line" smooth="yes"/>
      <point x="82" y="9"/>
      <point x="91" y="0"/>
    </contour>
  </outline>
</glyph>
<glyph name="o" format="2">
  <advance width="558"/>
  <unicode hex="006F"/>
  <guideline y="302"/>
  <guideline y="218"/>
  <guideline y="411"/>
  <guideline y="109"/>
  <guideline x="278"/>
  <guideline x="56"/>
  <guideline x="500"/>
  <outline>
    <contour>
      <point x="279" y="-10" type="curve" smooth="yes"/>
      <point x="423" y="-10"/>
      <point x="497" y="89"/>
      <point x="501" y="218" type="curve" smooth="yes"/>
      <point x="502" y="238"/>
      <point x="502" y="282"/>
      <point x="501" y="302" type="curve" smooth="yes"/>
      <point x="497" y="431"/>
      <point x="423" y="530"/>
      <point x="279" y="530" type="curve" smooth="yes"/>
      <point x="135" y="530"/>
      <point x="61" y="431"/>
      <point x="57" y="302" type="curve" smooth="yes"/>
      <point x="56" y="282"/>
      <point x="56" y="238"/>
      <point x="57" y="218" type="curve" smooth="yes"/>
      <point x="61" y="89"/>
      <point x="135" y="-10"/>
    </contour>
    <contour>
      <point x="279" y="48" type="curve" smooth="yes"/>
      <point x="186" y="48"/>
      <point x="122" y="109"/>
      <point x="118" y="223" type="curve" smooth="yes"/>
      <point x="117" y="243"/>
      <point x="117" y="277"/>
      <point x="118" y="297" type="curve" smooth="yes"/>
      <point x="122" y="411"/>
      <point x="186" y="472"/>
      <point x="279" y="472" type="curve" smooth="yes"/>
      <point x="372" y="472"/>
      <point x="436" y="411"/>
      <point x="440" y="297" type="curve" smooth="yes"/>
      <point x="441" y="277"/>
      <point x="441" y="243"/>
      <point x="440" y="223" type="curve" smooth="yes"/>
      <point x="436" y="109"/>
      <point x="372" y="48"/>
    </contour>
  </outline>
</glyph>
<glyph name="t" format="2">
  <advance width="359"/>
  <unicode hex="0074"/>
  <guideline y="175"/>
  <guideline x="342"/>
  <guideline x="35"/>
  <outline>
    <contour>
      <point x="256" y="0" type="curve" smooth="yes"/>
      <point x="315" y="0" type="line" smooth="yes"/>
      <point x="328" y="0"/>
      <point x="337" y="9"/>
      <point x="337" y="22" type="curve" smooth="yes"/>
      <point x="337" y="36" type="line" smooth="yes"/>
      <point x="337" y="49"/>
      <point x="328" y="58"/>
      <point x="315" y="58" type="curve" smooth="yes"/>
      <point x="261" y="58" type="line" smooth="yes"/>
      <point x="201" y="58"/>
      <point x="181" y="100"/>
      <point x="181" y="171" type="curve" smooth="yes"/>
      <point x="181" y="462" type="line"/>
      <point x="305" y="462" type="line" smooth="yes"/>
      <point x="318" y="462"/>
      <point x="327" y="471"/>
      <point x="327" y="484" type="curve" smooth="yes"/>
      <point x="327" y="498" type="line" smooth="yes"/>
      <point x="327" y="511"/>
      <point x="318" y="520"/>
      <point x="305" y="520" type="curve" smooth="yes"/>
      <point x="181" y="520" type="line"/>
      <point x="181" y="688" type="line" smooth="yes"/>
      <point x="181" y="701"/>
      <point x="172" y="710"/>
      <point x="159" y="710" type="curve" smooth="yes"/>
      <point x="142" y="710" type="line" smooth="yes"/>
      <point x="129" y="710"/>
      <point x="120" y="701"/>
      <point x="120" y="688" type="curve" smooth="yes"/>
      <point x="120" y="520" type="line"/>
      <point x="42" y="520" type="line" smooth="yes"/>
      <point x="29" y="520"/>
      <point x="20" y="511"/>
      <point x="20" y="498" type="curve" smooth="yes"/>
      <point x="20" y="484" type="line" smooth="yes"/>
      <point x="20" y="471"/>
      <point x="29" y="462"/>
      <point x="42" y="462" type="curve" smooth="yes"/>
      <point x="120" y="462" type="line"/>
      <point x="120" y="167" type="line" smooth="yes"/>
      <point x="120" y="73"/>
      <point x="151" y="0"/>
    </contour>
  </outline>
</glyph>
<glyph name="u" format="2">
  <advance width="585"/>
  <unicode hex="0075"/>
  <guideline y="-10"/>
  <guideline x="432"/>
  <guideline x="126"/>
  <guideline x="65"/>
  <outline>
    <contour>
      <point x="276" y="-10" type="curve" smooth="yes"/>
      <point x="362" y="-10"/>
      <point x="407" y="22"/>
      <point x="443" y="69" type="curve"/>
      <point x="443" y="22" type="line" smooth="yes"/>
      <point x="443" y="9"/>
      <point x="452" y="0"/>
      <point x="465" y="0" type="curve" smooth="yes"/>
      <point x="482" y="0" type="line" smooth="yes"/>
      <point x="495" y="0"/>
      <point x="504" y="9"/>
      <point x="504" y="22" type="curve" smooth="yes"/>
      <point x="504" y="498" type="line" smooth="yes"/>
      <point x="504" y="511"/>
      <point x="495" y="520"/>
      <point x="482" y="520" type="curve" smooth="yes"/>
      <point x="465" y="520" type="line" smooth="yes"/>
      <point x="452" y="520"/>
      <point x="443" y="511"/>
      <point x="443" y="498" type="curve" smooth="yes"/>
      <point x="443" y="219" type="line" smooth="yes"/>
      <point x="443" y="112"/>
      <point x="381" y="48"/>
      <point x="286" y="48" type="curve" smooth="yes"/>
      <point x="186" y="48"/>
      <point x="137" y="106"/>
      <point x="137" y="219" type="curve" smooth="yes"/>
      <point x="137" y="498" type="line" smooth="yes"/>
      <point x="137" y="511"/>
      <point x="128" y="520"/>
      <point x="115" y="520" type="curve" smooth="yes"/>
      <point x="98" y="520" type="line" smooth="yes"/>
      <point x="85" y="520"/>
      <point x="76" y="511"/>
      <point x="76" y="498" type="curve" smooth="yes"/>
      <point x="76" y="214" type="line" smooth="yes"/>
      <point x="76" y="87"/>
      <point x="140" y="-10"/>
    </contour>
  </outline>
</glyph>
<glyph name="braceleft" format="2">
  <advance width="344"/>
  <unicode hex="007B"/>
  <guideline y="776"/>
  <guideline y="-159"/>
  <guideline x="323"/>
  <outline>
    <contour>
      <point x="290" y="-159" type="curve" smooth="yes"/>
      <point x="295" y="-159" type="line" smooth="yes"/>
      <point x="308" y="-159"/>
      <point x="317" y="-150"/>
      <point x="317" y="-137" type="curve" smooth="yes"/>
      <point x="317" y="-123" type="line" smooth="yes"/>
      <point x="317" y="-110"/>
      <point x="308" y="-101"/>
      <point x="295" y="-101" type="curve" smooth="yes"/>
      <point x="290" y="-101" type="line" smooth="yes"/>
      <point x="187" y="-100"/>
      <point x="183" y="-27"/>
      <point x="183" y="152" type="curve" smooth="yes"/>
      <point x="183" y="230"/>
      <point x="160" y="278"/>
      <point x="108" y="309" type="curve"/>
      <point x="160" y="340"/>
      <point x="183" y="388"/>
      <point x="183" y="466" type="curve" smooth="yes"/>
      <point x="183" y="645"/>
      <point x="187" y="717"/>
      <point x="290" y="718" type="curve" smooth="yes"/>
      <point x="295" y="718" type="line" smooth="yes"/>
      <point x="308" y="718"/>
      <point x="317" y="727"/>
      <point x="317" y="740" type="curve" smooth="yes"/>
      <point x="317" y="754" type="line" smooth="yes"/>
      <point x="317" y="767"/>
      <point x="308" y="776"/>
      <point x="295" y="776" type="curve" smooth="yes"/>
      <point x="290" y="776" type="line" smooth="yes"/>
      <point x="133" y="776"/>
      <point x="122" y="670"/>
      <point x="122" y="487" type="curve" smooth="yes"/>
      <point x="122" y="412"/>
      <point x="104" y="382"/>
      <point x="67" y="356" type="curve"/>
      <point x="61" y="352" type="line"/>
      <point x="43" y="340"/>
      <point x="37" y="331"/>
      <point x="37" y="315" type="curve" smooth="yes"/>
      <point x="37" y="303" type="line" smooth="yes"/>
      <point x="37" y="287"/>
      <point x="43" y="278"/>
      <point x="61" y="266" type="curve"/>
      <point x="66" y="263" type="line"/>
      <point x="103" y="237"/>
      <point x="122" y="207"/>
      <point x="122" y="131" type="curve" smooth="yes"/>
      <point x="122" y="-52"/>
      <point x="133" y="-159"/>
    </contour>
  </outline>
</glyph>
<glyph name="bar" format="2">
  <advance width="219"/>
  <unicode hex="007C"/>
  <guideline y="-208"/>
  <outline>
    <contour>
      <point x="101" y="-208" type="curve" smooth="yes"/>
      <point x="118" y="-208" type="line" smooth="yes"/>
      <point x="131" y="-208"/>
      <point x="140" y="-199"/>
      <point x="140" y="-186" type="curve" smooth="yes"/>
      <point x="140" y="874" type="line" smooth="yes"/>
      <point x="140" y="887"/>
      <point x="131" y="896"/>
      <point x="118" y="896" type="curve" smooth="yes"/>
      <point x="101" y="896" type="line" smooth="yes"/>
      <point x="88" y="896"/>
      <point x="79" y="887"/>
      <point x="79" y="874" type="curve" smooth="yes"/>
      <point x="79" y="-186" type="line" smooth="yes"/>
      <point x="79" y="-199"/>
      <point x="88" y="-208"/>
    </contour>
  </outline>
</glyph>
<glyph name="asciitilde" format="2">
  <advance width="563"/>
  <unicode hex="007E"/>
  <guideline y="300"/>
  <guideline x="70"/>
  <guideline x="480"/>
  <guideline x="275"/>
  <outline>
    <contour>
      <point x="94" y="252" type="curve" smooth="yes"/>
      <point x="98" y="252"/>
      <point x="102" y="254"/>
      <point x="107" y="256" type="curve" smooth="yes"/>
      <point x="123" y="265"/>
      <point x="145" y="287"/>
      <point x="186" y="287" type="curve" smooth="yes"/>
      <point x="261" y="287"/>
      <point x="297" y="252"/>
      <point x="377" y="252" type="curve" smooth="yes"/>
      <point x="433" y="252"/>
      <point x="487" y="282"/>
      <point x="487" y="307" type="curve" smooth="yes"/>
      <point x="487" y="330" type="line" smooth="yes"/>
      <point x="487" y="340"/>
      <point x="480" y="347"/>
      <point x="470" y="347" type="curve" smooth="yes"/>
      <point x="466" y="347"/>
      <point x="462" y="345"/>
      <point x="457" y="343" type="curve" smooth="yes"/>
      <point x="441" y="334"/>
      <point x="419" y="312"/>
      <point x="378" y="312" type="curve" smooth="yes"/>
      <point x="306" y="312"/>
      <point x="271" y="347"/>
      <point x="187" y="347" type="curve" smooth="yes"/>
      <point x="131" y="347"/>
      <point x="77" y="317"/>
      <point x="77" y="292" type="curve" smooth="yes"/>
      <point x="77" y="269" type="line" smooth="yes"/>
      <point x="77" y="259"/>
      <point x="84" y="252"/>
    </contour>
  </outline>
</glyph>
<glyph name="exclamdown" format="2">
  <advance width="217"/>
  <unicode hex="00A1"/>
  <guideline y="352"/>
  <outline>
    <contour>
      <point x="117" y="376" type="curve" smooth="yes"/>
      <point x="100" y="376" type="line" smooth="yes"/>
      <point x="87" y="376"/>
      <point x="78" y="367"/>
      <point x="78" y="354" type="curve" smooth="yes"/>
      <point x="78" y="-159" type="line" smooth="yes"/>
      <point x="78" y="-172"/>
      <point x="87" y="-181"/>
      <point x="100" y="-181" type="curve" smooth="yes"/>
      <point x="117" y="-181" type="line" smooth="yes"/>
      <point x="130" y="-181"/>
      <point x="139" y="-172"/>
      <point x="139" y="-159" type="curve" smooth="yes"/>
      <point x="139" y="354" type="line" smooth="yes"/>
      <point x="139" y="367"/>
      <point x="130" y="376"/>
    </contour>
    <contour>
      <point x="128" y="519" type="curve" smooth="yes"/>
      <point x="90" y="519" type="line" smooth="yes"/>
      <point x="77" y="519"/>
      <point x="67" y="510"/>
      <point x="67" y="497" type="curve" smooth="yes"/>
      <point x="67" y="459" type="line" smooth="yes"/>
      <point x="67" y="446"/>
      <point x="77" y="436"/>
      <point x="90" y="436" type="curve" smooth="yes"/>
      <point x="128" y="436" type="line" smooth="yes"/>
      <point x="141" y="436"/>
      <point x="150" y="446"/>
      <point x="150" y="459" type="curve" smooth="yes"/>
      <point x="150" y="497" type="line" smooth="yes"/>
      <point x="150" y="510"/>
      <point x="141" y="519"/>
    </contour>
  </outline>
</glyph>
<glyph name="yen" format="2">
  <advance width="586"/>
  <unicode hex="00A5"/>
  <guideline x="322"/>
  <outline>
    <contour>
      <point x="283" y="0" type="curve" smooth="yes"/>
      <point x="302" y="0" type="line" smooth="yes"/>
      <point x="316" y="0"/>
      <point x="325" y="9"/>
      <point x="325" y="22" type="curve" smooth="yes"/>
      <point x="325" y="294" type="line"/>
      <point x="546" y="667" type="line" smooth="yes"/>
      <point x="548" y="671"/>
      <point x="550" y="675"/>
      <point x="550" y="680" type="curve" smooth="yes"/>
      <point x="550" y="691"/>
      <point x="541" y="700"/>
      <point x="530" y="700" type="curve" smooth="yes"/>
      <point x="508" y="700" type="line" smooth="yes"/>
      <point x="499" y="700"/>
      <point x="491" y="695"/>
      <point x="485" y="685" type="curve" smooth="yes"/>
      <point x="293" y="361" type="line"/>
      <point x="101" y="685" type="line" smooth="yes"/>
      <point x="95" y="695"/>
      <point x="87" y="700"/>
      <point x="78" y="700" type="curve" smooth="yes"/>
      <point x="56" y="700" type="line" smooth="yes"/>
      <point x="45" y="700"/>
      <point x="36" y="691"/>
      <point x="36" y="680" type="curve" smooth="yes"/>
      <point x="36" y="675"/>
      <point x="38" y="671"/>
      <point x="40" y="667" type="curve" smooth="yes"/>
      <point x="261" y="294" type="line"/>
      <point x="261" y="22" type="line" smooth="yes"/>
      <point x="261" y="9"/>
      <point x="270" y="0"/>
    </contour>
    <contour>
      <point x="113" y="123" type="curve" smooth="yes"/>
      <point x="473" y="123" type="line" smooth="yes"/>
      <point x="486" y="123"/>
      <point x="495" y="132"/>
      <point x="495" y="145" type="curve" smooth="yes"/>
      <point x="495" y="161" type="line" smooth="yes"/>
      <point x="495" y="174"/>
      <point x="486" y="183"/>
      <point x="473" y="183" type="curve" smooth="yes"/>
      <point x="113" y="183" type="line" smooth="yes"/>
      <point x="100" y="183"/>
      <point x="91" y="174"/>
      <point x="91" y="161" type="curve" smooth="yes"/>
      <point x="91" y="145" type="line" smooth="yes"/>
      <point x="91" y="132"/>
      <point x="100" y="123"/>
    </contour>
    <contour>
      <point x="113" y="243" type="curve" smooth="yes"/>
      <point x="473" y="243" type="line" smooth="yes"/>
      <point x="486" y="243"/>
      <point x="495" y="252"/>
      <point x="495" y="265" type="curve" smooth="yes"/>
      <point x="495" y="281" type="line" smooth="yes"/>
      <point x="495" y="294"/>
      <point x="486" y="303"/>
      <point x="473" y="303" type="curve" smooth="yes"/>
      <point x="113" y="303" type="line" smooth="yes"/>
      <point x="100" y="303"/>
      <point x="91" y="294"/>
      <point x="91" y="281" type="curve" smooth="yes"/>
      <point x="91" y="265" type="line" smooth="yes"/>
      <point x="91" y="252"/>
      <point x="100" y="243"/>
    </contour>
  </outline>
</glyph>
<glyph name="brokenbar" format="2">
  <advance width="225"/>
  <unicode hex="00A6"/>
  <outline>
    <contour>
      <point x="104" y="475" type="curve" smooth="yes"/>
      <point x="121" y="475" type="line" smooth="yes"/>
      <point x="134" y="475"/>
      <point x="143" y="484"/>
      <point x="143" y="497" type="curve" smooth="yes"/>
      <point x="143" y="807" type="line"/>
      <point x="143" y="820"/>
      <point x="134" y="829"/>
      <point x="121" y="829" type="curve" smooth="yes"/>
      <point x="104" y="829" type="line" smooth="yes"/>
      <point x="91" y="829"/>
      <point x="82" y="820"/>
      <point x="82" y="807" type="curve" smooth="yes"/>
      <point x="82" y="497" type="line" smooth="yes"/>
      <point x="82" y="484"/>
      <point x="91" y="475"/>
    </contour>
    <contour>
      <point x="104" y="0" type="curve" smooth="yes"/>
      <point x="121" y="0" type="line" smooth="yes"/>
      <point x="134" y="0"/>
      <point x="143" y="9"/>
      <point x="143" y="22" type="curve" smooth="yes"/>
      <point x="143" y="332" type="line"/>
      <point x="143" y="345"/>
      <point x="134" y="354"/>
      <point x="121" y="354" type="curve" smooth="yes"/>
      <point x="104" y="354" type="line" smooth="yes"/>
      <point x="91" y="354"/>
      <point x="82" y="345"/>
      <point x="82" y="332" type="curve" smooth="yes"/>
      <point x="82" y="22" type="line" smooth="yes"/>
      <point x="82" y="9"/>
      <point x="91" y="0"/>
    </contour>
  </outline>
</glyph>
<glyph name="dieresis" format="2">
  <advance width="376"/>
  <unicode hex="00A8"/>
  <guideline y="575"/>
  <guideline x="153"/>
  <outline>
    <contour>
      <point x="245" y="627" type="curve" smooth="yes"/>
      <point x="283" y="627" type="line" smooth="yes"/>
      <point x="296" y="627"/>
      <point x="306" y="636"/>
      <point x="306" y="649" type="curve" smooth="yes"/>
      <point x="306" y="687" type="line" smooth="yes"/>
      <point x="306" y="700"/>
      <point x="296" y="710"/>
      <point x="283" y="710" type="curve" smooth="yes"/>
      <point x="245" y="710" type="line" smooth="yes"/>
      <point x="232" y="710"/>
      <point x="223" y="700"/>
      <point x="223" y="687" type="curve" smooth="yes"/>
      <point x="223" y="649" type="line" smooth="yes"/>
      <point x="223" y="636"/>
      <point x="232" y="627"/>
    </contour>
    <contour>
      <point x="92" y="627" type="curve" smooth="yes"/>
      <point x="130" y="627" type="line" smooth="yes"/>
      <point x="143" y="627"/>
      <point x="153" y="636"/>
      <point x="153" y="649" type="curve" smooth="yes"/>
      <point x="153" y="687" type="line" smooth="yes"/>
      <point x="153" y="700"/>
      <point x="143" y="710"/>
      <point x="130" y="710" type="curve" smooth="yes"/>
      <point x="92" y="710" type="line" smooth="yes"/>
      <point x="79" y="710"/>
      <point x="70" y="700"/>
      <point x="70" y="687" type="curve" smooth="yes"/>
      <point x="70" y="649" type="line" smooth="yes"/>
      <point x="70" y="636"/>
      <point x="79" y="627"/>
    </contour>
  </outline>
</glyph>
<glyph name="macron" format="2">
  <advance width="383"/>
  <unicode hex="00AF"/>
  <guideline y="595"/>
  <outline>
    <contour>
      <point x="92" y="622" type="curve" smooth="yes"/>
      <point x="291" y="622" type="line" smooth="yes"/>
      <point x="304" y="622"/>
      <point x="313" y="631"/>
      <point x="313" y="644" type="curve" smooth="yes"/>
      <point x="313" y="658" type="line" smooth="yes"/>
      <point x="313" y="671"/>
      <point x="304" y="680"/>
      <point x="291" y="680" type="curve" smooth="yes"/>
      <point x="92" y="680" type="line" smooth="yes"/>
      <point x="79" y="680"/>
      <point x="70" y="671"/>
      <point x="70" y="658" type="curve" smooth="yes"/>
      <point x="70" y="644" type="line" smooth="yes"/>
      <point x="70" y="631"/>
      <point x="79" y="622"/>
    </contour>
  </outline>
</glyph>
<glyph name="degree" format="2">
  <advance width="378"/>
  <unicode hex="00B0"/>
  <guideline y="710"/>
  <outline>
    <contour>
      <point x="189" y="448" type="curve" smooth="yes"/>
      <point x="264" y="448"/>
      <point x="325" y="504"/>
      <point x="325" y="579" type="curve" smooth="yes"/>
      <point x="325" y="654"/>
      <point x="264" y="710"/>
      <point x="189" y="710" type="curve" smooth="yes"/>
      <point x="114" y="710"/>
      <point x="53" y="654"/>
      <point x="53" y="579" type="curve" smooth="yes"/>
      <point x="53" y="504"/>
      <point x="114" y="448"/>
    </contour>
    <contour>
      <point x="189" y="503" type="curve" smooth="yes"/>
      <point x="144" y="503"/>
      <point x="113" y="534"/>
      <point x="113" y="579" type="curve" smooth="yes"/>
      <point x="113" y="624"/>
      <point x="144" y="655"/>
      <point x="189" y="655" type="curve" smooth="yes"/>
      <point x="234" y="655"/>
      <point x="265" y="624"/>
      <point x="265" y="579" type="curve" smooth="yes"/>
      <point x="265" y="534"/>
      <point x="234" y="503"/>
    </contour>
  </outline>
</glyph>
<glyph name="plusminus" format="2">
  <advance width="556"/>
  <unicode hex="00B1"/>
  <guideline y="400"/>
  <guideline x="259"/>
  <guideline x="57"/>
  <outline>
    <contour>
      <point x="270" y="193" type="curve" smooth="yes"/>
      <point x="286" y="193" type="line" smooth="yes"/>
      <point x="299" y="193"/>
      <point x="308" y="202"/>
      <point x="308" y="215" type="curve" smooth="yes"/>
      <point x="308" y="373" type="line"/>
      <point x="465" y="373" type="line" smooth="yes"/>
      <point x="478" y="373"/>
      <point x="487" y="382"/>
      <point x="487" y="395" type="curve" smooth="yes"/>
      <point x="487" y="409" type="line" smooth="yes"/>
      <point x="487" y="422"/>
      <point x="478" y="431"/>
      <point x="465" y="431" type="curve" smooth="yes"/>
      <point x="308" y="431" type="line"/>
      <point x="308" y="585" type="line" smooth="yes"/>
      <point x="308" y="598"/>
      <point x="299" y="607"/>
      <point x="286" y="607" type="curve" smooth="yes"/>
      <point x="270" y="607" type="line" smooth="yes"/>
      <point x="257" y="607"/>
      <point x="248" y="598"/>
      <point x="248" y="585" type="curve" smooth="yes"/>
      <point x="248" y="431" type="line"/>
      <point x="91" y="431" type="line" smooth="yes"/>
      <point x="78" y="431"/>
      <point x="69" y="422"/>
      <point x="69" y="409" type="curve" smooth="yes"/>
      <point x="69" y="395" type="line" smooth="yes"/>
      <point x="69" y="382"/>
      <point x="78" y="373"/>
      <point x="91" y="373" type="curve" smooth="yes"/>
      <point x="248" y="373" type="line"/>
      <point x="248" y="215" type="line" smooth="yes"/>
      <point x="248" y="202"/>
      <point x="257" y="193"/>
    </contour>
    <contour>
      <point x="101" y="0" type="curve" smooth="yes"/>
      <point x="455" y="0" type="line" smooth="yes"/>
      <point x="468" y="0"/>
      <point x="477" y="9"/>
      <point x="477" y="22" type="curve" smooth="yes"/>
      <point x="477" y="36" type="line" smooth="yes"/>
      <point x="477" y="49"/>
      <point x="468" y="58"/>
      <point x="455" y="58" type="curve" smooth="yes"/>
      <point x="101" y="58" type="line" smooth="yes"/>
      <point x="88" y="58"/>
      <point x="79" y="49"/>
      <point x="79" y="36" type="curve" smooth="yes"/>
      <point x="79" y="22" type="line" smooth="yes"/>
      <point x="79" y="9"/>
      <point x="88" y="0"/>
    </contour>
  </outline>
</glyph>
<glyph name="micro" format="2">
  <advance width="586"/>
  <unicode hex="00B5"/>
  <guideline y="-200"/>
  <guideline y="-10"/>
  <guideline x="287"/>
  <outline>
    <contour>
      <point x="98" y="-200" type="curve"/>
      <point x="115" y="-200" type="line"/>
      <point x="128" y="-200"/>
      <point x="137" y="-191"/>
      <point x="137" y="-178" type="curve"/>
      <point x="137" y="69" type="line"/>
      <point x="171" y="24"/>
      <point x="215" y="-10"/>
      <point x="293" y="-10" type="curve" smooth="yes"/>
      <point x="371" y="-10"/>
      <point x="415" y="24"/>
      <point x="449" y="69" type="curve"/>
      <point x="449" y="22" type="line"/>
      <point x="449" y="9"/>
      <point x="458" y="0"/>
      <point x="471" y="0" type="curve"/>
      <point x="488" y="0" type="line"/>
      <point x="501" y="0"/>
      <point x="510" y="9"/>
      <point x="510" y="22" type="curve"/>
      <point x="510" y="498" type="line"/>
      <point x="510" y="511"/>
      <point x="501" y="520"/>
      <point x="488" y="520" type="curve"/>
      <point x="471" y="520" type="line"/>
      <point x="458" y="520"/>
      <point x="449" y="511"/>
      <point x="449" y="498" type="curve"/>
      <point x="449" y="219" type="line"/>
      <point x="449" y="112"/>
      <point x="368" y="48"/>
      <point x="293" y="48" type="curve" smooth="yes"/>
      <point x="218" y="48"/>
      <point x="137" y="112"/>
      <point x="137" y="219" type="curve"/>
      <point x="137" y="498" type="line"/>
      <point x="137" y="511"/>
      <point x="128" y="520"/>
      <point x="115" y="520" type="curve"/>
      <point x="98" y="520" type="line"/>
      <point x="85" y="520"/>
      <point x="76" y="511"/>
      <point x="76" y="498" type="curve"/>
      <point x="76" y="-178" type="line"/>
      <point x="76" y="-191"/>
      <point x="85" y="-200"/>
    </contour>
  </outline>
</glyph>
<glyph name="paragraph" format="2">
  <advance width="491"/>
  <unicode hex="00B6"/>
  <guideline y="-100"/>
  <guideline y="346"/>
  <guideline y="522"/>
  <guideline x="237"/>
  <outline>
    <contour>
      <point x="231" y="-100" type="curve" smooth="yes"/>
      <point x="248" y="-100" type="line" smooth="yes"/>
      <point x="261" y="-100"/>
      <point x="270" y="-91"/>
      <point x="270" y="-78" type="curve" smooth="yes"/>
      <point x="270" y="642" type="line"/>
      <point x="349" y="642" type="line"/>
      <point x="349" y="-78" type="line" smooth="yes"/>
      <point x="349" y="-91"/>
      <point x="358" y="-100"/>
      <point x="371" y="-100" type="curve" smooth="yes"/>
      <point x="388" y="-100" type="line" smooth="yes"/>
      <point x="401" y="-100"/>
      <point x="410" y="-91"/>
      <point x="410" y="-78" type="curve" smooth="yes"/>
      <point x="410" y="678" type="line" smooth="yes"/>
      <point x="410" y="691"/>
      <point x="401" y="700"/>
      <point x="388" y="700" type="curve" smooth="yes"/>
      <point x="209" y="700" type="line" smooth="yes"/>
      <point x="111" y="700"/>
      <point x="32" y="621"/>
      <point x="32" y="523" type="curve" smooth="yes"/>
      <point x="32" y="425"/>
      <point x="111" y="346"/>
      <point x="209" y="346" type="curve"/>
      <point x="209" y="-78" type="line" smooth="yes"/>
      <point x="209" y="-91"/>
      <point x="218" y="-100"/>
    </contour>
  </outline>
</glyph>
<glyph name="ordmasculine" format="2">
  <advance width="361"/>
  <unicode hex="00BA"/>
  <guideline y="589"/>
  <guideline y="545"/>
  <guideline y="429"/>
  <guideline y="705"/>
  <guideline x="134"/>
  <outline>
    <contour>
      <point x="181" y="429" type="curve" smooth="yes"/>
      <point x="250" y="429"/>
      <point x="297" y="465"/>
      <point x="301" y="540" type="curve" smooth="yes"/>
      <point x="302" y="550"/>
      <point x="302" y="584"/>
      <point x="301" y="594" type="curve" smooth="yes"/>
      <point x="297" y="669"/>
      <point x="244" y="705"/>
      <point x="181" y="705" type="curve" smooth="yes"/>
      <point x="118" y="705"/>
      <point x="65" y="669"/>
      <point x="61" y="594" type="curve" smooth="yes"/>
      <point x="60" y="584"/>
      <point x="60" y="550"/>
      <point x="61" y="540" type="curve" smooth="yes"/>
      <point x="65" y="465"/>
      <point x="112" y="429"/>
    </contour>
    <contour>
      <point x="181" y="487" type="curve" smooth="yes"/>
      <point x="144" y="487"/>
      <point x="124" y="507"/>
      <point x="122" y="545" type="curve" smooth="yes"/>
      <point x="121" y="555"/>
      <point x="121" y="579"/>
      <point x="122" y="589" type="curve" smooth="yes"/>
      <point x="124" y="624"/>
      <point x="144" y="647"/>
      <point x="181" y="647" type="curve" smooth="yes"/>
      <point x="218" y="647"/>
      <point x="238" y="624"/>
      <point x="240" y="589" type="curve" smooth="yes"/>
      <point x="241" y="579"/>
      <point x="241" y="555"/>
      <point x="240" y="545" type="curve" smooth="yes"/>
      <point x="238" y="507"/>
      <point x="218" y="487"/>
    </contour>
  </outline>
</glyph>
<glyph name="questiondown" format="2">
  <advance width="496"/>
  <unicode hex="00BF"/>
  <outline>
    <contour>
      <point x="253" y="377" type="curve"/>
      <point x="236" y="377" type="line" smooth="yes"/>
      <point x="223" y="377"/>
      <point x="214" y="368"/>
      <point x="214" y="355" type="curve" smooth="yes"/>
      <point x="214" y="339"/>
      <point x="214" y="323"/>
      <point x="214" y="307" type="curve" smooth="yes"/>
      <point x="214" y="186"/>
      <point x="46" y="137"/>
      <point x="36" y="-3" type="curve" smooth="yes"/>
      <point x="29" y="-97"/>
      <point x="98" y="-190"/>
      <point x="245" y="-190" type="curve" smooth="yes"/>
      <point x="372" y="-190"/>
      <point x="462" y="-102"/>
      <point x="465" y="9" type="curve" smooth="yes"/>
      <point x="465" y="21"/>
      <point x="456" y="29"/>
      <point x="444" y="29" type="curve" smooth="yes"/>
      <point x="428" y="29" type="line" smooth="yes"/>
      <point x="418" y="29"/>
      <point x="407" y="25"/>
      <point x="404" y="7" type="curve" smooth="yes"/>
      <point x="387" y="-95"/>
      <point x="323" y="-132"/>
      <point x="245" y="-132" type="curve" smooth="yes"/>
      <point x="167" y="-132"/>
      <point x="87" y="-85"/>
      <point x="97" y="-2" type="curve" smooth="yes"/>
      <point x="110" y="103"/>
      <point x="275" y="154"/>
      <point x="275" y="307" type="curve" smooth="yes"/>
      <point x="275" y="323"/>
      <point x="275" y="339"/>
      <point x="275" y="355" type="curve" smooth="yes"/>
      <point x="275" y="368"/>
      <point x="266" y="377"/>
    </contour>
    <contour>
      <point x="265" y="520" type="curve" smooth="yes"/>
      <point x="227" y="520" type="line" smooth="yes"/>
      <point x="214" y="520"/>
      <point x="204" y="511"/>
      <point x="204" y="498" type="curve" smooth="yes"/>
      <point x="204" y="460" type="line" smooth="yes"/>
      <point x="204" y="447"/>
      <point x="214" y="437"/>
      <point x="227" y="437" type="curve" smooth="yes"/>
      <point x="265" y="437" type="line" smooth="yes"/>
      <point x="278" y="437"/>
      <point x="287" y="447"/>
      <point x="287" y="460" type="curve" smooth="yes"/>
      <point x="287" y="498" type="line" smooth="yes"/>
      <point x="287" y="511"/>
      <point x="278" y="520"/>
    </contour>
  </outline>
</glyph>
<glyph name="Oslash" format="2">
  <advance width="682"/>
  <unicode hex="00D8"/>
  <guideline y="145"/>
  <guideline x="351"/>
  <guideline x="679"/>
  <guideline x="85"/>
  <guideline x="20"/>
  <anchor x="341" y="0" name="bottom"/>
  <anchor x="341" y="700" name="top"/>
  <outline>
    <contour>
      <point x="342" y="-10" type="curve" smooth="yes"/>
      <point x="508" y="-10"/>
      <point x="601" y="77"/>
      <point x="606" y="266" type="curve" smooth="yes"/>
      <point x="608" y="323"/>
      <point x="608" y="370"/>
      <point x="606" y="427" type="curve"/>
      <point x="648" y="443" type="line" smooth="yes"/>
      <point x="664" y="449"/>
      <point x="670" y="453"/>
      <point x="670" y="468" type="curve" smooth="yes"/>
      <point x="670" y="487" type="line" smooth="yes"/>
      <point x="670" y="499"/>
      <point x="662" y="505"/>
      <point x="651" y="505" type="curve" smooth="yes"/>
      <point x="647" y="505"/>
      <point x="643" y="504"/>
      <point x="638" y="502" type="curve" smooth="yes"/>
      <point x="601" y="488" type="line"/>
      <point x="579" y="637"/>
      <point x="482" y="710"/>
      <point x="342" y="710" type="curve" smooth="yes"/>
      <point x="186" y="710"/>
      <point x="83" y="620"/>
      <point x="78" y="434" type="curve" smooth="yes"/>
      <point x="76" y="380"/>
      <point x="75" y="336"/>
      <point x="77" y="284" type="curve"/>
      <point x="33" y="267" type="line" smooth="yes"/>
      <point x="17" y="261"/>
      <point x="11" y="257"/>
      <point x="11" y="242" type="curve" smooth="yes"/>
      <point x="11" y="223" type="line" smooth="yes"/>
      <point x="11" y="211"/>
      <point x="19" y="205"/>
      <point x="30" y="205" type="curve" smooth="yes"/>
      <point x="34" y="205"/>
      <point x="38" y="206"/>
      <point x="43" y="208" type="curve" smooth="yes"/>
      <point x="81" y="222" type="line"/>
      <point x="98" y="63"/>
      <point x="189" y="-10"/>
    </contour>
    <contour>
      <point x="342" y="50" type="curve" smooth="yes"/>
      <point x="234" y="50"/>
      <point x="155" y="108"/>
      <point x="142" y="246" type="curve"/>
      <point x="544" y="403" type="line"/>
      <point x="545" y="357"/>
      <point x="544" y="322"/>
      <point x="543" y="271" type="curve" smooth="yes"/>
      <point x="538" y="115"/>
      <point x="456" y="50"/>
    </contour>
    <contour>
      <point x="139" y="309" type="line"/>
      <point x="138" y="349"/>
      <point x="139" y="383"/>
      <point x="141" y="429" type="curve" smooth="yes"/>
      <point x="146" y="585"/>
      <point x="229" y="650"/>
      <point x="342" y="650" type="curve" smooth="yes"/>
      <point x="446" y="650"/>
      <point x="524" y="595"/>
      <point x="540" y="464" type="curve"/>
    </contour>
  </outline>
</glyph>
<glyph name="Thorn" format="2">
  <advance width="633"/>
  <unicode hex="00DE"/>
  <guideline y="119"/>
  <guideline y="601"/>
  <guideline y="570"/>
  <guideline y="350"/>
  <outline>
    <contour>
      <point x="116" y="0" type="curve"/>
      <point x="134" y="0" type="line"/>
      <point x="148" y="0"/>
      <point x="157" y="9"/>
      <point x="157" y="22" type="curve"/>
      <point x="157" y="143" type="line"/>
      <point x="359" y="143" type="line"/>
      <point x="499" y="143"/>
      <point x="589" y="214"/>
      <point x="589" y="350" type="curve" smooth="yes"/>
      <point x="589" y="486"/>
      <point x="499" y="557"/>
      <point x="359" y="557" type="curve"/>
      <point x="157" y="557" type="line"/>
      <point x="157" y="678" type="line"/>
      <point x="157" y="691"/>
      <point x="148" y="700"/>
      <point x="135" y="700" type="curve"/>
      <point x="116" y="700" type="line"/>
      <point x="103" y="700"/>
      <point x="94" y="691"/>
      <point x="94" y="678" type="curve"/>
      <point x="94" y="22" type="line"/>
      <point x="94" y="9"/>
      <point x="103" y="0"/>
    </contour>
    <contour>
      <point x="157" y="203" type="line"/>
      <point x="157" y="497" type="line"/>
      <point x="354" y="497" type="line"/>
      <point x="470" y="497"/>
      <point x="526" y="445"/>
      <point x="526" y="350" type="curve" smooth="yes"/>
      <point x="526" y="255"/>
      <point x="470" y="203"/>
      <point x="354" y="203" type="curve"/>
    </contour>
  </outline>
</glyph>
<glyph name="eth" format="2">
  <advance width="550"/>
  <unicode hex="00F0"/>
  <guideline y="512"/>
  <guideline x="214"/>
  <guideline x="484"/>
  <outline>
    <contour>
      <point x="273" y="-10" type="curve" smooth="yes"/>
      <point x="416" y="-10"/>
      <point x="492" y="92"/>
      <point x="492" y="229" type="curve" smooth="yes"/>
      <point x="492" y="230"/>
      <point x="492" y="231"/>
      <point x="492" y="232" type="curve" smooth="yes"/>
      <point x="490" y="402"/>
      <point x="455" y="501"/>
      <point x="398" y="575" type="curve"/>
      <point x="460" y="599" type="line"/>
      <point x="476" y="605"/>
      <point x="482" y="609"/>
      <point x="482" y="624" type="curve"/>
      <point x="482" y="643" type="line"/>
      <point x="482" y="655"/>
      <point x="474" y="661"/>
      <point x="463" y="661" type="curve" smooth="yes"/>
      <point x="459" y="661"/>
      <point x="455" y="660"/>
      <point x="450" y="658" type="curve"/>
      <point x="357" y="622" type="line"/>
      <point x="336" y="644"/>
      <point x="313" y="665"/>
      <point x="288" y="687" type="curve" smooth="yes"/>
      <point x="278" y="695"/>
      <point x="268" y="700"/>
      <point x="252" y="700" type="curve"/>
      <point x="232" y="700" type="line"/>
      <point x="220" y="700"/>
      <point x="212" y="692"/>
      <point x="212" y="680" type="curve" smooth="yes"/>
      <point x="212" y="675"/>
      <point x="215" y="669"/>
      <point x="229" y="658" type="curve" smooth="yes"/>
      <point x="253" y="638"/>
      <point x="276" y="618"/>
      <point x="296" y="599" type="curve"/>
      <point x="234" y="575" type="line"/>
      <point x="218" y="569"/>
      <point x="212" y="565"/>
      <point x="212" y="550" type="curve"/>
      <point x="212" y="531" type="line"/>
      <point x="212" y="519"/>
      <point x="220" y="513"/>
      <point x="231" y="513" type="curve" smooth="yes"/>
      <point x="235" y="513"/>
      <point x="239" y="514"/>
      <point x="244" y="516" type="curve"/>
      <point x="340" y="553" type="line"/>
      <point x="368" y="518"/>
      <point x="389" y="479"/>
      <point x="405" y="431" type="curve"/>
      <point x="371" y="456"/>
      <point x="326" y="470"/>
      <point x="273" y="470" type="curve" smooth="yes"/>
      <point x="129" y="470"/>
      <point x="53" y="368"/>
      <point x="54" y="231" type="curve"/>
      <point x="53" y="94"/>
      <point x="129" y="-10"/>
    </contour>
    <contour>
      <point x="273" y="48" type="curve" smooth="yes"/>
      <point x="170" y="48"/>
      <point x="117" y="127"/>
      <point x="115" y="226" type="curve" smooth="yes"/>
      <point x="115" y="227"/>
      <point x="115" y="229"/>
      <point x="115" y="232" type="curve" smooth="yes"/>
      <point x="115" y="332"/>
      <point x="168" y="412"/>
      <point x="273" y="412" type="curve" smooth="yes"/>
      <point x="378" y="412"/>
      <point x="431" y="332"/>
      <point x="431" y="232" type="curve" smooth="yes"/>
      <point x="431" y="230"/>
      <point x="431" y="229"/>
      <point x="431" y="228" type="curve" smooth="yes"/>
      <point x="430" y="128"/>
      <point x="377" y="48"/>
    </contour>
  </outline>
</glyph>
<glyph name="Hbar" format="2">
  <advance width="700"/>
  <unicode hex="0126"/>
  <outline>
    <contour>
      <point x="43" y="513" type="curve" smooth="yes"/>
      <point x="667" y="513" type="line" smooth="yes"/>
      <point x="680" y="513"/>
      <point x="689" y="522"/>
      <point x="689" y="535" type="curve" smooth="yes"/>
      <point x="689" y="549" type="line" smooth="yes"/>
      <point x="689" y="562"/>
      <point x="680" y="571"/>
      <point x="667" y="571" type="curve" smooth="yes"/>
      <point x="43" y="571" type="line" smooth="yes"/>
      <point x="30" y="571"/>
      <point x="21" y="562"/>
      <point x="21" y="549" type="curve" smooth="yes"/>
      <point x="21" y="535" type="line" smooth="yes"/>
      <point x="21" y="522"/>
      <point x="30" y="513"/>
    </contour>
    <component base="H"/>
  </outline>
</glyph>
<glyph name="Iogonek" format="2">
  <advance width="269"/>
  <unicode hex="012E"/>
  <guideline x="110"/>
  <outline>
    <contour>
      <point x="134" y="-220" type="curve" smooth="yes"/>
      <point x="153" y="-220" type="line" smooth="yes"/>
      <point x="166" y="-220"/>
      <point x="175" y="-211"/>
      <point x="175" y="-198" type="curve" smooth="yes"/>
      <point x="175" y="-185" type="line" smooth="yes"/>
      <point x="175" y="-172"/>
      <point x="166" y="-163"/>
      <point x="153" y="-163" type="curve" smooth="yes"/>
      <point x="138" y="-163" type="line" smooth="yes"/>
      <point x="94" y="-163"/>
      <point x="62" y="-133"/>
      <point x="62" y="-82" type="curve" smooth="yes"/>
      <point x="62" y="-31"/>
      <point x="94" y="0"/>
      <point x="138" y="0" type="curve" smooth="yes"/>
      <point x="153" y="0" type="line" smooth="yes"/>
      <point x="166" y="0"/>
      <point x="175" y="9"/>
      <point x="175" y="22" type="curve" smooth="yes"/>
      <point x="175" y="678" type="line" smooth="yes"/>
      <point x="175" y="691"/>
      <point x="166" y="700"/>
      <point x="153" y="700" type="curve" smooth="yes"/>
      <point x="134" y="700" type="line" smooth="yes"/>
      <point x="121" y="700"/>
      <point x="112" y="691"/>
      <point x="112" y="678" type="curve" smooth="yes"/>
      <point x="112" y="74" type="line"/>
      <point x="112" y="71"/>
      <point x="112" y="67"/>
      <point x="112" y="64" type="curve"/>
      <point x="112" y="55" type="line"/>
      <point x="44" y="46"/>
      <point x="2" y="-5"/>
      <point x="2" y="-82" type="curve" smooth="yes"/>
      <point x="2" y="-167"/>
      <point x="53" y="-220"/>
    </contour>
  </outline>
</glyph>
<glyph name="IJ" format="2">
  <advance width="589"/>
  <unicode hex="0132"/>
  <guideline x="642"/>
  <outline>
    <contour>
      <point x="259" y="-10" type="curve" smooth="yes"/>
      <point x="416" y="-10"/>
      <point x="501" y="99"/>
      <point x="501" y="255" type="curve"/>
      <point x="501" y="677" type="line"/>
      <point x="501" y="691"/>
      <point x="492" y="700"/>
      <point x="478" y="700" type="curve"/>
      <point x="460" y="700" type="line"/>
      <point x="447" y="700"/>
      <point x="438" y="691"/>
      <point x="438" y="678" type="curve"/>
      <point x="438" y="256" type="line"/>
      <point x="438" y="135"/>
      <point x="376" y="50"/>
      <point x="259" y="50" type="curve" smooth="yes"/>
      <point x="246" y="50"/>
      <point x="237" y="41"/>
      <point x="237" y="27" type="curve"/>
      <point x="237" y="12" type="line"/>
      <point x="237" y="-1"/>
      <point x="246" y="-10"/>
    </contour>
    <contour>
      <point x="116" y="0" type="curve"/>
      <point x="135" y="0" type="line"/>
      <point x="148" y="0"/>
      <point x="157" y="9"/>
      <point x="157" y="22" type="curve"/>
      <point x="157" y="678" type="line"/>
      <point x="157" y="691"/>
      <point x="148" y="700"/>
      <point x="135" y="700" type="curve"/>
      <point x="116" y="700" type="line"/>
      <point x="103" y="700"/>
      <point x="94" y="691"/>
      <point x="94" y="678" type="curve"/>
      <point x="94" y="22" type="line"/>
      <point x="94" y="9"/>
      <point x="103" y="0"/>
    </contour>
  </outline>
</glyph>
<glyph name="Lslash" format="2">
  <advance width="556"/>
  <unicode hex="0141"/>
  <guideline y="215"/>
  <guideline y="548"/>
  <guideline y="438"/>
  <guideline y="267"/>
  <guideline y="353"/>
  <guideline x="129"/>
  <guideline x="325"/>
  <guideline x="-5"/>
  <outline>
    <contour>
      <point x="124" y="0" type="curve" smooth="yes"/>
      <point x="511" y="0" type="line" smooth="yes"/>
      <point x="524" y="0"/>
      <point x="533" y="9"/>
      <point x="533" y="22" type="curve" smooth="yes"/>
      <point x="533" y="38" type="line" smooth="yes"/>
      <point x="533" y="51"/>
      <point x="524" y="60"/>
      <point x="511" y="60" type="curve" smooth="yes"/>
      <point x="165" y="60" type="line"/>
      <point x="165" y="317" type="line"/>
      <point x="320" y="377" type="line" smooth="yes"/>
      <point x="336" y="383"/>
      <point x="342" y="387"/>
      <point x="342" y="402" type="curve" smooth="yes"/>
      <point x="342" y="421" type="line" smooth="yes"/>
      <point x="342" y="433"/>
      <point x="334" y="439"/>
      <point x="323" y="439" type="curve" smooth="yes"/>
      <point x="319" y="439"/>
      <point x="315" y="438"/>
      <point x="310" y="436" type="curve" smooth="yes"/>
      <point x="165" y="380" type="line"/>
      <point x="165" y="678" type="line" smooth="yes"/>
      <point x="165" y="691"/>
      <point x="156" y="700"/>
      <point x="143" y="700" type="curve" smooth="yes"/>
      <point x="124" y="700" type="line" smooth="yes"/>
      <point x="111" y="700"/>
      <point x="102" y="691"/>
      <point x="102" y="678" type="curve" smooth="yes"/>
      <point x="102" y="355" type="line"/>
      <point x="34" y="329" type="line" smooth="yes"/>
      <point x="18" y="323"/>
      <point x="12" y="319"/>
      <point x="12" y="304" type="curve" smooth="yes"/>
      <point x="12" y="285" type="line" smooth="yes"/>
      <point x="12" y="273"/>
      <point x="20" y="267"/>
      <point x="31" y="267" type="curve" smooth="yes"/>
      <point x="35" y="267"/>
      <point x="39" y="268"/>
      <point x="44" y="270" type="curve" smooth="yes"/>
      <point x="102" y="292" type="line"/>
      <point x="102" y="22" type="line" smooth="yes"/>
      <point x="102" y="9"/>
      <point x="111" y="0"/>
    </contour>
  </outline>
</glyph>
<glyph name="uogonek" format="2">
  <advance width="585"/>
  <unicode hex="0173"/>
  <guideline y="213"/>
  <guideline x="493"/>
  <outline>
    <contour>
      <point x="473" y="-220" type="curve" smooth="yes"/>
      <point x="482" y="-220" type="line" smooth="yes"/>
      <point x="495" y="-220"/>
      <point x="504" y="-211"/>
      <point x="504" y="-198" type="curve" smooth="yes"/>
      <point x="504" y="-185" type="line" smooth="yes"/>
      <point x="504" y="-172"/>
      <point x="495" y="-163"/>
      <point x="482" y="-163" type="curve" smooth="yes"/>
      <point x="477" y="-163" type="line" smooth="yes"/>
      <point x="443" y="-163"/>
      <point x="421" y="-141"/>
      <point x="421" y="-90" type="curve" smooth="yes"/>
      <point x="421" y="-45"/>
      <point x="442" y="-21"/>
      <point x="485" y="-2" type="curve"/>
      <point x="488" y="0" type="line"/>
      <point x="500" y="6"/>
      <point x="504" y="14"/>
      <point x="504" y="22" type="curve" smooth="yes"/>
      <point x="504" y="498" type="line" smooth="yes"/>
      <point x="504" y="511"/>
      <point x="495" y="520"/>
      <point x="482" y="520" type="curve" smooth="yes"/>
      <point x="465" y="520" type="line" smooth="yes"/>
      <point x="452" y="520"/>
      <point x="443" y="511"/>
      <point x="443" y="498" type="curve" smooth="yes"/>
      <point x="443" y="219" type="line" smooth="yes"/>
      <point x="443" y="112"/>
      <point x="381" y="48"/>
      <point x="286" y="48" type="curve" smooth="yes"/>
      <point x="186" y="48"/>
      <point x="137" y="106"/>
      <point x="137" y="219" type="curve" smooth="yes"/>
      <point x="137" y="498" type="line" smooth="yes"/>
      <point x="137" y="511"/>
      <point x="128" y="520"/>
      <point x="115" y="520" type="curve" smooth="yes"/>
      <point x="98" y="520" type="line" smooth="yes"/>
      <point x="85" y="520"/>
      <point x="76" y="511"/>
      <point x="76" y="498" type="curve" smooth="yes"/>
      <point x="76" y="214" type="line" smooth="yes"/>
      <point x="76" y="87"/>
      <point x="140" y="-10"/>
      <point x="276" y="-10" type="curve" smooth="yes"/>
      <point x="362" y="-10"/>
      <point x="407" y="22"/>
      <point x="443" y="69" type="curve"/>
      <point x="443" y="43" type="line"/>
      <point x="443" y="40"/>
      <point x="443" y="38"/>
      <point x="443" y="35" type="curve"/>
      <point x="407" y="18"/>
      <point x="361" y="-26"/>
      <point x="361" y="-90" type="curve" smooth="yes"/>
      <point x="361" y="-175"/>
      <point x="412" y="-220"/>
    </contour>
  </outline>
</glyph>
<glyph name="jdotless" format="2">
  <advance width="269"/>
  <unicode hex="0237"/>
  <guideline y="-190"/>
  <guideline x="45"/>
  <outline>
    <contour>
      <point x="32" y="-190" type="curve" smooth="yes"/>
      <point x="36" y="-190" type="line" smooth="yes"/>
      <point x="158" y="-190"/>
      <point x="187" y="-116"/>
      <point x="187" y="-22" type="curve" smooth="yes"/>
      <point x="187" y="498" type="line" smooth="yes"/>
      <point x="187" y="511"/>
      <point x="178" y="520"/>
      <point x="165" y="520" type="curve" smooth="yes"/>
      <point x="42" y="520" type="line" smooth="yes"/>
      <point x="29" y="520"/>
      <point x="20" y="511"/>
      <point x="20" y="498" type="curve" smooth="yes"/>
      <point x="20" y="484" type="line" smooth="yes"/>
      <point x="20" y="471"/>
      <point x="29" y="462"/>
      <point x="42" y="462" type="curve" smooth="yes"/>
      <point x="126" y="462" type="line"/>
      <point x="126" y="-22" type="line" smooth="yes"/>
      <point x="126" y="-83"/>
      <point x="117" y="-132"/>
      <point x="36" y="-132" type="curve" smooth="yes"/>
      <point x="32" y="-132" type="line" smooth="yes"/>
      <point x="19" y="-132"/>
      <point x="10" y="-141"/>
      <point x="10" y="-154" type="curve" smooth="yes"/>
      <point x="10" y="-168" type="line" smooth="yes"/>
      <point x="10" y="-181"/>
      <point x="19" y="-190"/>
    </contour>
  </outline>
</glyph>
<glyph name="circumflex" format="2">
  <advance width="412"/>
  <unicode hex="02C6"/>
  <guideline y="595"/>
  <outline>
    <contour>
      <point x="84" y="595" type="curve" smooth="yes"/>
      <point x="101" y="595" type="line" smooth="yes"/>
      <point x="109" y="595"/>
      <point x="121" y="598"/>
      <point x="126" y="602" type="curve" smooth="yes"/>
      <point x="206" y="662" type="line"/>
      <point x="286" y="602" type="line" smooth="yes"/>
      <point x="291" y="598"/>
      <point x="303" y="595"/>
      <point x="311" y="595" type="curve" smooth="yes"/>
      <point x="328" y="595" type="line" smooth="yes"/>
      <point x="338" y="595"/>
      <point x="342" y="598"/>
      <point x="342" y="606" type="curve" smooth="yes"/>
      <point x="342" y="612"/>
      <point x="338" y="618"/>
      <point x="330" y="626" type="curve" smooth="yes"/>
      <point x="243" y="711" type="line" smooth="yes"/>
      <point x="229" y="725"/>
      <point x="221" y="725"/>
      <point x="211" y="725" type="curve" smooth="yes"/>
      <point x="201" y="725" type="line" smooth="yes"/>
      <point x="191" y="725"/>
      <point x="183" y="725"/>
      <point x="169" y="711" type="curve" smooth="yes"/>
      <point x="82" y="626" type="line" smooth="yes"/>
      <point x="74" y="618"/>
      <point x="70" y="612"/>
      <point x="70" y="606" type="curve" smooth="yes"/>
      <point x="70" y="598"/>
      <point x="74" y="595"/>
    </contour>
  </outline>
</glyph>
<glyph name="caron" format="2">
  <advance width="412"/>
  <unicode hex="02C7"/>
  <guideline y="595"/>
  <outline>
    <contour>
      <point x="201" y="595" type="curve" smooth="yes"/>
      <point x="211" y="595" type="line" smooth="yes"/>
      <point x="221" y="595"/>
      <point x="229" y="595"/>
      <point x="243" y="609" type="curve" smooth="yes"/>
      <point x="330" y="694" type="line" smooth="yes"/>
      <point x="338" y="702"/>
      <point x="342" y="708"/>
      <point x="342" y="714" type="curve" smooth="yes"/>
      <point x="342" y="722"/>
      <point x="338" y="725"/>
      <point x="328" y="725" type="curve" smooth="yes"/>
      <point x="311" y="725" type="line" smooth="yes"/>
      <point x="303" y="725"/>
      <point x="291" y="722"/>
      <point x="286" y="718" type="curve" smooth="yes"/>
      <point x="206" y="658" type="line"/>
      <point x="126" y="718" type="line" smooth="yes"/>
      <point x="121" y="722"/>
      <point x="109" y="725"/>
      <point x="101" y="725" type="curve" smooth="yes"/>
      <point x="84" y="725" type="line" smooth="yes"/>
      <point x="74" y="725"/>
      <point x="70" y="722"/>
      <point x="70" y="714" type="curve" smooth="yes"/>
      <point x="70" y="708"/>
      <point x="74" y="702"/>
      <point x="82" y="694" type="curve" smooth="yes"/>
      <point x="169" y="609" type="line" smooth="yes"/>
      <point x="183" y="595"/>
      <point x="191" y="595"/>
    </contour>
  </outline>
</glyph>
<glyph name="ring" format="2">
  <advance width="300"/>
  <unicode hex="02DA"/>
  <guideline y="590"/>
  <outline>
    <contour>
      <point x="150" y="590" type="curve" smooth="yes"/>
      <point x="194" y="590"/>
      <point x="230" y="621"/>
      <point x="230" y="665" type="curve" smooth="yes"/>
      <point x="230" y="709"/>
      <point x="194" y="740"/>
      <point x="150" y="740" type="curve" smooth="yes"/>
      <point x="106" y="740"/>
      <point x="70" y="709"/>
      <point x="70" y="665" type="curve" smooth="yes"/>
      <point x="70" y="621"/>
      <point x="106" y="590"/>
    </contour>
    <contour>
      <point x="150" y="635" type="curve" smooth="yes"/>
      <point x="133" y="635"/>
      <point x="120" y="648"/>
      <point x="120" y="665" type="curve" smooth="yes"/>
      <point x="120" y="682"/>
      <point x="133" y="695"/>
      <point x="150" y="695" type="curve" smooth="yes"/>
      <point x="167" y="695"/>
      <point x="180" y="682"/>
      <point x="180" y="665" type="curve" smooth="yes"/>
      <point x="180" y="648"/>
      <point x="167" y="635"/>
    </contour>
  </outline>
</glyph>
<glyph name="strokeshortcomb" format="2">
  <unicode hex="0335"/>
  <anchor x="195" y="300" name="_center"/>
  <outline>
    <contour>
      <point x="72" y="271" type="curve" smooth="yes"/>
      <point x="317" y="271" type="line" smooth="yes"/>
      <point x="330" y="271"/>
      <point x="339" y="280"/>
      <point x="339" y="293" type="curve" smooth="yes"/>
      <point x="339" y="307" type="line" smooth="yes"/>
      <point x="339" y="320"/>
      <point x="330" y="329"/>
      <point x="317" y="329" type="curve" smooth="yes"/>
      <point x="72" y="329" type="line" smooth="yes"/>
      <point x="59" y="329"/>
      <point x="50" y="320"/>
      <point x="50" y="307" type="curve" smooth="yes"/>
      <point x="50" y="293" type="line" smooth="yes"/>
      <point x="50" y="280"/>
      <point x="59" y="271"/>
    </contour>
  </outline>
</glyph>
<glyph name="Nje-cy" format="2">
  <advance width="979"/>
  <unicode hex="040A"/>
  <outline>
    <contour>
      <point x="116" y="0" type="curve" smooth="yes"/>
      <point x="134" y="0" type="line" smooth="yes"/>
      <point x="148" y="0"/>
      <point x="157" y="9"/>
      <point x="157" y="22" type="curve" smooth="yes"/>
      <point x="157" y="325" type="line"/>
      <point x="523" y="325" type="line"/>
      <point x="523" y="22" type="line" smooth="yes"/>
      <point x="523" y="9"/>
      <point x="532" y="0"/>
      <point x="545" y="0" type="curve" smooth="yes"/>
      <point x="729" y="0" type="line" smooth="yes"/>
      <point x="875" y="0"/>
      <point x="939" y="111"/>
      <point x="939" y="214" type="curve" smooth="yes"/>
      <point x="939" y="350"/>
      <point x="863" y="423"/>
      <point x="729" y="423" type="curve" smooth="yes"/>
      <point x="586" y="423" type="line"/>
      <point x="586" y="678" type="line" smooth="yes"/>
      <point x="586" y="691"/>
      <point x="577" y="700"/>
      <point x="564" y="700" type="curve"/>
      <point x="545" y="700" type="line" smooth="yes"/>
      <point x="532" y="700"/>
      <point x="523" y="691"/>
      <point x="523" y="677" type="curve" smooth="yes"/>
      <point x="523" y="385" type="line"/>
      <point x="157" y="385" type="line"/>
      <point x="157" y="677" type="line" smooth="yes"/>
      <point x="157" y="691"/>
      <point x="148" y="700"/>
      <point x="134" y="700" type="curve" smooth="yes"/>
      <point x="116" y="700" type="line" smooth="yes"/>
      <point x="103" y="700"/>
      <point x="94" y="691"/>
      <point x="94" y="677" type="curve" smooth="yes"/>
      <point x="94" y="22" type="line" smooth="yes"/>
      <point x="94" y="9"/>
      <point x="103" y="0"/>
    </contour>
    <contour>
      <point x="586" y="60" type="line"/>
      <point x="586" y="363" type="line"/>
      <point x="719" y="363" type="line" smooth="yes"/>
      <point x="826" y="363"/>
      <point x="876" y="314"/>
      <point x="876" y="217" type="curve" smooth="yes"/>
      <point x="876" y="122"/>
      <point x="818" y="60"/>
      <point x="719" y="60" type="curve" smooth="yes"/>
    </contour>
  </outline>
</glyph>
<glyph name="Dzhe-cy" format="2">
  <advance width="700"/>
  <unicode hex="040F"/>
  <guideline y="-110"/>
  <guideline x="1327"/>
  <guideline x="1072"/>
  <guideline x="85"/>
  <outline>
    <contour>
      <point x="340" y="-140" type="curve"/>
      <point x="358" y="-140" type="line" smooth="yes"/>
      <point x="372" y="-140"/>
      <point x="381" y="-131"/>
      <point x="381" y="-118" type="curve" smooth="yes"/>
      <point x="381" y="0" type="line"/>
      <point x="583" y="0" type="line" smooth="yes"/>
      <point x="597" y="0"/>
      <point x="606" y="9"/>
      <point x="606" y="22" type="curve" smooth="yes"/>
      <point x="606" y="678" type="line" smooth="yes"/>
      <point x="606" y="691"/>
      <point x="597" y="700"/>
      <point x="583" y="700" type="curve" smooth="yes"/>
      <point x="565" y="700" type="line" smooth="yes"/>
      <point x="552" y="700"/>
      <point x="543" y="691"/>
      <point x="543" y="678" type="curve" smooth="yes"/>
      <point x="543" y="60" type="line"/>
      <point x="157" y="60" type="line"/>
      <point x="157" y="678" type="line" smooth="yes"/>
      <point x="157" y="691"/>
      <point x="148" y="700"/>
      <point x="134" y="700" type="curve" smooth="yes"/>
      <point x="116" y="700" type="line" smooth="yes"/>
      <point x="103" y="700"/>
      <point x="94" y="691"/>
      <point x="94" y="678" type="curve" smooth="yes"/>
      <point x="94" y="22" type="line" smooth="yes"/>
      <point x="94" y="9"/>
      <point x="103" y="0"/>
      <point x="116" y="0" type="curve" smooth="yes"/>
      <point x="318" y="0" type="line"/>
      <point x="318" y="-118" type="line" smooth="yes"/>
      <point x="318" y="-131"/>
      <point x="327" y="-140"/>
    </contour>
  </outline>
</glyph>
<glyph name="Be-cy" format="2">
  <advance width="632"/>
  <unicode hex="0411"/>
  <guideline y="280"/>
  <guideline y="447"/>
  <guideline x="516"/>
  <outline>
    <contour>
      <point x="116" y="0" type="curve" smooth="yes"/>
      <point x="380" y="0" type="line" smooth="yes"/>
      <point x="526" y="0"/>
      <point x="590" y="115"/>
      <point x="590" y="204" type="curve" smooth="yes"/>
      <point x="590" y="324"/>
      <point x="514" y="403"/>
      <point x="380" y="403" type="curve" smooth="yes"/>
      <point x="157" y="403" type="line"/>
      <point x="157" y="640" type="line"/>
      <point x="532" y="640" type="line" smooth="yes"/>
      <point x="546" y="640"/>
      <point x="555" y="649"/>
      <point x="555" y="662" type="curve" smooth="yes"/>
      <point x="555" y="677" type="line" smooth="yes"/>
      <point x="555" y="691"/>
      <point x="546" y="700"/>
      <point x="532" y="700" type="curve" smooth="yes"/>
      <point x="116" y="700" type="line" smooth="yes"/>
      <point x="103" y="700"/>
      <point x="94" y="691"/>
      <point x="94" y="677" type="curve" smooth="yes"/>
      <point x="94" y="22" type="line" smooth="yes"/>
      <point x="94" y="9"/>
      <point x="103" y="0"/>
    </contour>
    <contour>
      <point x="157" y="60" type="line"/>
      <point x="157" y="343" type="line"/>
      <point x="370" y="343" type="line" smooth="yes"/>
      <point x="477" y="343"/>
      <point x="527" y="288"/>
      <point x="527" y="207" type="curve" smooth="yes"/>
      <point x="527" y="127"/>
      <point x="469" y="60"/>
      <point x="370" y="60" type="curve" smooth="yes"/>
    </contour>
  </outline>
</glyph>
<glyph name="De-cy" format="2">
  <advance width="676"/>
  <unicode hex="0414"/>
  <guideline x="-18" y="-139" angle="0"/>
  <outline>
    <contour>
      <point x="42" y="-139" type="curve" smooth="yes"/>
      <point x="60" y="-139" type="line" smooth="yes"/>
      <point x="74" y="-139"/>
      <point x="83" y="-130"/>
      <point x="83" y="-117" type="curve" smooth="yes"/>
      <point x="83" y="0" type="line"/>
      <point x="578" y="0" type="line"/>
      <point x="578" y="-117" type="line" smooth="yes"/>
      <point x="578" y="-130"/>
      <point x="587" y="-139"/>
      <point x="600" y="-139" type="curve" smooth="yes"/>
      <point x="618" y="-139" type="line" smooth="yes"/>
      <point x="632" y="-139"/>
      <point x="641" y="-130"/>
      <point x="641" y="-117" type="curve" smooth="yes"/>
      <point x="641" y="38" type="line" smooth="yes"/>
      <point x="641" y="51"/>
      <point x="632" y="60"/>
      <point x="618" y="60" type="curve" smooth="yes"/>
      <point x="568" y="60" type="line"/>
      <point x="568" y="677" type="line" smooth="yes"/>
      <point x="568" y="691"/>
      <point x="559" y="700"/>
      <point x="545" y="700" type="curve" smooth="yes"/>
      <point x="189" y="700" type="line" smooth="yes"/>
      <point x="176" y="700"/>
      <point x="167" y="691"/>
      <point x="167" y="678" type="curve" smooth="yes"/>
      <point x="167" y="457" type="line" smooth="yes"/>
      <point x="167" y="168"/>
      <point x="127" y="60"/>
      <point x="65" y="60" type="curve" smooth="yes"/>
      <point x="42" y="60" type="line" smooth="yes"/>
      <point x="29" y="60"/>
      <point x="20" y="51"/>
      <point x="20" y="38" type="curve" smooth="yes"/>
      <point x="20" y="-117" type="line" smooth="yes"/>
      <point x="20" y="-130"/>
      <point x="29" y="-139"/>
    </contour>
    <contour>
      <point x="157" y="60" type="line"/>
      <point x="205" y="119"/>
      <point x="230" y="238"/>
      <point x="230" y="449" type="curve" smooth="yes"/>
      <point x="230" y="640" type="line"/>
      <point x="505" y="640" type="line"/>
      <point x="505" y="60" type="line"/>
    </contour>
  </outline>
</glyph>
<glyph name="Ze-cy" format="2">
  <advance width="599"/>
  <unicode hex="0417"/>
  <guideline x="-9" y="-10" angle="0"/>
  <guideline x="-9" y="180" angle="0"/>
  <guideline x="52"/>
  <guideline x="300"/>
  <anchor x="294" y="0" name="bottom"/>
  <anchor x="288" y="700" name="top"/>
  <outline>
    <contour>
      <point x="284" y="-10" type="curve" smooth="yes"/>
      <point x="439" y="-10"/>
      <point x="538" y="73"/>
      <point x="538" y="193" type="curve" smooth="yes"/>
      <point x="538" y="271"/>
      <point x="502" y="334"/>
      <point x="433" y="368" type="curve"/>
      <point x="491" y="403"/>
      <point x="513" y="463"/>
      <point x="513" y="527" type="curve" smooth="yes"/>
      <point x="513" y="618"/>
      <point x="443" y="710"/>
      <point x="288" y="710" type="curve" smooth="yes"/>
      <point x="146" y="710"/>
      <point x="59" y="647"/>
      <point x="50" y="540" type="curve" smooth="yes"/>
      <point x="49" y="528"/>
      <point x="59" y="520"/>
      <point x="71" y="520" type="curve" smooth="yes"/>
      <point x="91" y="520" type="line" smooth="yes"/>
      <point x="102" y="520"/>
      <point x="110" y="525"/>
      <point x="113" y="541" type="curve" smooth="yes"/>
      <point x="129" y="619"/>
      <point x="197" y="650"/>
      <point x="288" y="650" type="curve" smooth="yes"/>
      <point x="375" y="650"/>
      <point x="450" y="603"/>
      <point x="450" y="527" type="curve" smooth="yes"/>
      <point x="450" y="436"/>
      <point x="385" y="396"/>
      <point x="292" y="396" type="curve" smooth="yes"/>
      <point x="226" y="396" type="line" smooth="yes"/>
      <point x="213" y="396"/>
      <point x="204" y="387"/>
      <point x="204" y="373" type="curve" smooth="yes"/>
      <point x="204" y="358" type="line" smooth="yes"/>
      <point x="204" y="345"/>
      <point x="213" y="336"/>
      <point x="226" y="336" type="curve" smooth="yes"/>
      <point x="297" y="336" type="line" smooth="yes"/>
      <point x="405" y="336"/>
      <point x="475" y="283"/>
      <point x="475" y="193" type="curve" smooth="yes"/>
      <point x="475" y="103"/>
      <point x="385" y="50"/>
      <point x="284" y="50" type="curve" smooth="yes"/>
      <point x="183" y="50"/>
      <point x="120" y="94"/>
      <point x="104" y="157" type="curve" smooth="yes"/>
      <point x="99" y="177"/>
      <point x="88" y="180"/>
      <point x="77" y="180" type="curve" smooth="yes"/>
      <point x="61" y="180" type="line" smooth="yes"/>
      <point x="49" y="180"/>
      <point x="39" y="173"/>
      <point x="40" y="161" type="curve" smooth="yes"/>
      <point x="49" y="61"/>
      <point x="139" y="-10"/>
    </contour>
  </outline>
</glyph>
<glyph name="Ii-cy" format="2">
  <advance width="726"/>
  <unicode hex="0418"/>
  <anchor x="578" y="0" name="bottomright"/>
  <anchor x="357" y="700" name="top"/>
  <outline>
    <contour>
      <point x="116" y="0" type="curve" smooth="yes"/>
      <point x="138" y="0" type="line" smooth="yes"/>
      <point x="151" y="0"/>
      <point x="157" y="9"/>
      <point x="159" y="12" type="curve" smooth="yes"/>
      <point x="569" y="588" type="line"/>
      <point x="569" y="22" type="line" smooth="yes"/>
      <point x="569" y="9"/>
      <point x="578" y="0"/>
      <point x="592" y="0" type="curve" smooth="yes"/>
      <point x="610" y="0" type="line" smooth="yes"/>
      <point x="623" y="0"/>
      <point x="632" y="9"/>
      <point x="632" y="22" type="curve" smooth="yes"/>
      <point x="632" y="677" type="line" smooth="yes"/>
      <point x="632" y="691"/>
      <point x="623" y="700"/>
      <point x="610" y="700" type="curve" smooth="yes"/>
      <point x="589" y="700" type="line" smooth="yes"/>
      <point x="576" y="700"/>
      <point x="570" y="691"/>
      <point x="568" y="688" type="curve" smooth="yes"/>
      <point x="157" y="110" type="line"/>
      <point x="157" y="677" type="line" smooth="yes"/>
      <point x="157" y="691"/>
      <point x="148" y="700"/>
      <point x="135" y="700" type="curve" smooth="yes"/>
      <point x="117" y="700" type="line" smooth="yes"/>
      <point x="103" y="700"/>
      <point x="94" y="691"/>
      <point x="94" y="677" type="curve" smooth="yes"/>
      <point x="94" y="23" type="line" smooth="yes"/>
      <point x="94" y="9"/>
      <point x="103" y="0"/>
    </contour>
  </outline>
</glyph>
<glyph name="Pe-cy" format="2">
  <advance width="700"/>
  <unicode hex="041F"/>
  <guideline x="85"/>
  <anchor x="543" y="0" name="bottomright"/>
  <outline>
    <contour>
      <point x="116" y="0" type="curve"/>
      <point x="134" y="0" type="line" smooth="yes"/>
      <point x="148" y="0"/>
      <point x="157" y="9"/>
      <point x="157" y="22" type="curve" smooth="yes"/>
      <point x="157" y="640" type="line"/>
      <point x="543" y="640" type="line"/>
      <point x="543" y="22" type="line" smooth="yes"/>
      <point x="543" y="9"/>
      <point x="552" y="0"/>
      <point x="565" y="0" type="curve" smooth="yes"/>
      <point x="583" y="0" type="line" smooth="yes"/>
      <point x="597" y="0"/>
      <point x="606" y="9"/>
      <point x="606" y="22" type="curve" smooth="yes"/>
      <point x="606" y="677" type="line" smooth="yes"/>
      <point x="606" y="691"/>
      <point x="597" y="700"/>
      <point x="583" y="700" type="curve" smooth="yes"/>
      <point x="116" y="700" type="line" smooth="yes"/>
      <point x="103" y="700"/>
      <point x="94" y="691"/>
      <point x="94" y="677" type="curve" smooth="yes"/>
      <point x="94" y="22" type="line" smooth="yes"/>
      <point x="94" y="9"/>
      <point x="103" y="0"/>
    </contour>
  </outline>
</glyph>
<glyph name="Sha-cy" format="2">
  <advance width="945"/>
  <unicode hex="0428"/>
  <guideline x="462"/>
  <outline>
    <contour>
      <point x="116" y="0" type="curve" smooth="yes"/>
      <point x="828" y="0" type="line" smooth="yes"/>
      <point x="842" y="0"/>
      <point x="851" y="9"/>
      <point x="851" y="22" type="curve" smooth="yes"/>
      <point x="851" y="678" type="line" smooth="yes"/>
      <point x="851" y="691"/>
      <point x="842" y="700"/>
      <point x="828" y="700" type="curve" smooth="yes"/>
      <point x="810" y="700" type="line" smooth="yes"/>
      <point x="797" y="700"/>
      <point x="788" y="691"/>
      <point x="788" y="678" type="curve" smooth="yes"/>
      <point x="788" y="60" type="line"/>
      <point x="504" y="60" type="line"/>
      <point x="504" y="678" type="line" smooth="yes"/>
      <point x="504" y="691"/>
      <point x="495" y="700"/>
      <point x="481" y="700" type="curve" smooth="yes"/>
      <point x="463" y="700" type="line"/>
      <point x="450" y="700"/>
      <point x="441" y="691"/>
      <point x="441" y="678" type="curve" smooth="yes"/>
      <point x="441" y="60" type="line"/>
      <point x="157" y="60" type="line"/>
      <point x="157" y="678" type="line" smooth="yes"/>
      <point x="157" y="691"/>
      <point x="148" y="700"/>
      <point x="134" y="700" type="curve" smooth="yes"/>
      <point x="116" y="700" type="line" smooth="yes"/>
      <point x="103" y="700"/>
      <point x="94" y="691"/>
      <point x="94" y="678" type="curve" smooth="yes"/>
      <point x="94" y="22" type="line" smooth="yes"/>
      <point x="94" y="9"/>
      <point x="103" y="0"/>
    </contour>
  </outline>
</glyph>
<glyph name="Hardsign-cy" format="2">
  <advance width="693"/>
  <unicode hex="042A"/>
  <guideline x="237"/>
  <guideline x="118"/>
  <outline>
    <contour>
      <point x="239" y="0" type="curve" smooth="yes"/>
      <point x="443" y="0" type="line" smooth="yes"/>
      <point x="589" y="0"/>
      <point x="653" y="111"/>
      <point x="653" y="214" type="curve" smooth="yes"/>
      <point x="653" y="350"/>
      <point x="577" y="423"/>
      <point x="443" y="423" type="curve" smooth="yes"/>
      <point x="280" y="423" type="line"/>
      <point x="280" y="678" type="line" smooth="yes"/>
      <point x="280" y="691"/>
      <point x="271" y="700"/>
      <point x="258" y="700" type="curve" smooth="yes"/>
      <point x="49" y="700" type="line" smooth="yes"/>
      <point x="36" y="700"/>
      <point x="27" y="691"/>
      <point x="27" y="677" type="curve" smooth="yes"/>
      <point x="27" y="662" type="line" smooth="yes"/>
      <point x="27" y="649"/>
      <point x="36" y="640"/>
      <point x="49" y="640" type="curve" smooth="yes"/>
      <point x="217" y="640" type="line"/>
      <point x="217" y="22" type="line" smooth="yes"/>
      <point x="217" y="9"/>
      <point x="226" y="0"/>
    </contour>
    <contour>
      <point x="280" y="60" type="line"/>
      <point x="280" y="363" type="line"/>
      <point x="433" y="363" type="line" smooth="yes"/>
      <point x="540" y="363"/>
      <point x="590" y="314"/>
      <point x="590" y="217" type="curve" smooth="yes"/>
      <point x="590" y="122"/>
      <point x="532" y="60"/>
      <point x="433" y="60" type="curve" smooth="yes"/>
    </contour>
  </outline>
</glyph>
<glyph name="Yeru-cy" format="2">
  <advance width="771"/>
  <unicode hex="042B"/>
  <anchor x="386" y="700" name="top"/>
  <outline>
    <contour>
      <point x="116" y="0" type="curve" smooth="yes"/>
      <point x="300" y="0" type="line" smooth="yes"/>
      <point x="446" y="0"/>
      <point x="510" y="111"/>
      <point x="510" y="214" type="curve" smooth="yes"/>
      <point x="510" y="350"/>
      <point x="434" y="423"/>
      <point x="300" y="423" type="curve" smooth="yes"/>
      <point x="157" y="423" type="line"/>
      <point x="157" y="678" type="line" smooth="yes"/>
      <point x="157" y="691"/>
      <point x="148" y="700"/>
      <point x="134" y="700" type="curve" smooth="yes"/>
      <point x="116" y="700" type="line"/>
      <point x="103" y="700"/>
      <point x="94" y="691"/>
      <point x="94" y="678" type="curve" smooth="yes"/>
      <point x="94" y="22" type="line" smooth="yes"/>
      <point x="94" y="9"/>
      <point x="103" y="0"/>
    </contour>
    <contour>
      <point x="157" y="60" type="line"/>
      <point x="157" y="363" type="line"/>
      <point x="290" y="363" type="line"/>
      <point x="397" y="363"/>
      <point x="447" y="314"/>
      <point x="447" y="217" type="curve" smooth="yes"/>
      <point x="447" y="122"/>
      <point x="389" y="60"/>
      <point x="290" y="60" type="curve" smooth="yes"/>
    </contour>
    <component base="I" xOffset="520"/>
  </outline>
</glyph>
<glyph name="Softsign-cy" format="2">
  <advance width="580"/>
  <unicode hex="042C"/>
  <outline>
    <contour>
      <point x="116" y="0" type="curve" smooth="yes"/>
      <point x="330" y="0" type="line" smooth="yes"/>
      <point x="476" y="0"/>
      <point x="540" y="111"/>
      <point x="540" y="214" type="curve" smooth="yes"/>
      <point x="540" y="350"/>
      <point x="464" y="423"/>
      <point x="330" y="423" type="curve" smooth="yes"/>
      <point x="157" y="423" type="line"/>
      <point x="157" y="678" type="line" smooth="yes"/>
      <point x="157" y="691"/>
      <point x="148" y="700"/>
      <point x="134" y="700" type="curve" smooth="yes"/>
      <point x="116" y="700" type="line"/>
      <point x="103" y="700"/>
      <point x="94" y="691"/>
      <point x="94" y="678" type="curve" smooth="yes"/>
      <point x="94" y="22" type="line" smooth="yes"/>
      <point x="94" y="9"/>
      <point x="103" y="0"/>
    </contour>
    <contour>
      <point x="157" y="60" type="line"/>
      <point x="157" y="363" type="line"/>
      <point x="320" y="363" type="line"/>
      <point x="427" y="363"/>
      <point x="477" y="314"/>
      <point x="477" y="217" type="curve" smooth="yes"/>
      <point x="477" y="122"/>
      <point x="419" y="60"/>
      <point x="320" y="60" type="curve" smooth="yes"/>
    </contour>
  </outline>
</glyph>
<glyph name="Ereversed-cy" format="2">
  <advance width="620"/>
  <unicode hex="042D"/>
  <guideline y="541"/>
  <guideline y="159"/>
  <guideline y="350"/>
  <guideline x="204"/>
  <guideline x="296"/>
  <outline>
    <contour>
      <point x="298" y="-10" type="curve" smooth="yes"/>
      <point x="441" y="-10"/>
      <point x="549" y="72"/>
      <point x="555" y="296" type="curve" smooth="yes"/>
      <point x="556" y="334"/>
      <point x="556" y="364"/>
      <point x="555" y="404" type="curve" smooth="yes"/>
      <point x="549" y="628"/>
      <point x="441" y="710"/>
      <point x="298" y="710" type="curve" smooth="yes"/>
      <point x="158" y="710"/>
      <point x="65" y="639"/>
      <point x="53" y="540" type="curve" smooth="yes"/>
      <point x="52" y="528"/>
      <point x="62" y="520"/>
      <point x="74" y="520" type="curve" smooth="yes"/>
      <point x="94" y="520" type="line" smooth="yes"/>
      <point x="107" y="520"/>
      <point x="112" y="525"/>
      <point x="116" y="541" type="curve" smooth="yes"/>
      <point x="131" y="601"/>
      <point x="188" y="650"/>
      <point x="298" y="650" type="curve" smooth="yes"/>
      <point x="421" y="650"/>
      <point x="492" y="573"/>
      <point x="492" y="404" type="curve" smooth="yes"/>
      <point x="492" y="381" type="line"/>
      <point x="228" y="381" type="line" smooth="yes"/>
      <point x="215" y="381"/>
      <point x="206" y="372"/>
      <point x="206" y="358" type="curve" smooth="yes"/>
      <point x="206" y="344" type="line" smooth="yes"/>
      <point x="206" y="330"/>
      <point x="215" y="321"/>
      <point x="228" y="321" type="curve" smooth="yes"/>
      <point x="492" y="321" type="line"/>
      <point x="492" y="296" type="line" smooth="yes"/>
      <point x="492" y="143"/>
      <point x="421" y="50"/>
      <point x="298" y="50" type="curve" smooth="yes"/>
      <point x="188" y="50"/>
      <point x="131" y="99"/>
      <point x="116" y="159" type="curve" smooth="yes"/>
      <point x="112" y="175"/>
      <point x="107" y="180"/>
      <point x="94" y="180" type="curve" smooth="yes"/>
      <point x="74" y="180" type="line" smooth="yes"/>
      <point x="62" y="180"/>
      <point x="52" y="172"/>
      <point x="53" y="160" type="curve" smooth="yes"/>
      <point x="65" y="61"/>
      <point x="158" y="-10"/>
    </contour>
  </outline>
</glyph>
<glyph name="Ia-cy" format="2">
  <advance width="642"/>
  <unicode hex="042F"/>
  <outline>
    <contour>
      <point x="508" y="0" type="curve" smooth="yes"/>
      <point x="526" y="0" type="line"/>
      <point x="539" y="0"/>
      <point x="548" y="9"/>
      <point x="548" y="22" type="curve" smooth="yes"/>
      <point x="548" y="678" type="line" smooth="yes"/>
      <point x="548" y="691"/>
      <point x="539" y="700"/>
      <point x="526" y="700" type="curve" smooth="yes"/>
      <point x="312" y="700" type="line" smooth="yes"/>
      <point x="166" y="700"/>
      <point x="102" y="589"/>
      <point x="102" y="486" type="curve" smooth="yes"/>
      <point x="102" y="350"/>
      <point x="178" y="277"/>
      <point x="312" y="277" type="curve" smooth="yes"/>
      <point x="485" y="277" type="line"/>
      <point x="485" y="22" type="line" smooth="yes"/>
      <point x="485" y="9"/>
      <point x="494" y="0"/>
    </contour>
    <contour>
      <point x="110" y="0" type="curve" smooth="yes"/>
      <point x="122" y="0" type="line" smooth="yes"/>
      <point x="144" y="0"/>
      <point x="151" y="13"/>
      <point x="160" y="27" type="curve" smooth="yes"/>
      <point x="347" y="310" type="line"/>
      <point x="282" y="319" type="line"/>
      <point x="93" y="31" type="line" smooth="yes"/>
      <point x="91" y="27"/>
      <point x="90" y="24"/>
      <point x="90" y="20" type="curve" smooth="yes"/>
      <point x="90" y="9"/>
      <point x="99" y="0"/>
    </contour>
    <contour>
      <point x="322" y="337" type="line"/>
      <point x="215" y="337"/>
      <point x="165" y="386"/>
      <point x="165" y="483" type="curve" smooth="yes"/>
      <point x="165" y="578"/>
      <point x="223" y="640"/>
      <point x="322" y="640" type="curve" smooth="yes"/>
      <point x="485" y="640" type="line"/>
      <point x="485" y="337" type="line"/>
    </contour>
  </outline>
</glyph>
<glyph name="ve-cy" format="2">
  <advance width="542"/>
  <unicode hex="0432"/>
  <guideline x="70"/>
  <outline>
    <contour>
      <point x="103" y="0" type="curve" smooth="yes"/>
      <point x="305" y="0" type="line" smooth="yes"/>
      <point x="412" y="0"/>
      <point x="482" y="50"/>
      <point x="482" y="145" type="curve" smooth="yes"/>
      <point x="482" y="196"/>
      <point x="455" y="254"/>
      <point x="402" y="274" type="curve"/>
      <point x="447" y="295"/>
      <point x="472" y="320"/>
      <point x="472" y="384" type="curve" smooth="yes"/>
      <point x="472" y="466"/>
      <point x="410" y="520"/>
      <point x="300" y="520" type="curve" smooth="yes"/>
      <point x="103" y="520" type="line" smooth="yes"/>
      <point x="90" y="520"/>
      <point x="81" y="511"/>
      <point x="81" y="498" type="curve"/>
      <point x="81" y="22" type="line" smooth="yes"/>
      <point x="81" y="9"/>
      <point x="90" y="0"/>
    </contour>
    <contour>
      <point x="142" y="58" type="line"/>
      <point x="142" y="233" type="line"/>
      <point x="297" y="233" type="line" smooth="yes"/>
      <point x="380" y="233"/>
      <point x="421" y="206"/>
      <point x="421" y="145" type="curve" smooth="yes"/>
      <point x="421" y="87"/>
      <point x="370" y="58"/>
      <point x="297" y="58" type="curve" smooth="yes"/>
    </contour>
    <contour>
      <point x="142" y="291" type="line"/>
      <point x="142" y="462" type="line"/>
      <point x="290" y="462" type="line" smooth="yes"/>
      <point x="363" y="462"/>
      <point x="411" y="442"/>
      <point x="411" y="384" type="curve" smooth="yes"/>
      <point x="411" y="326"/>
      <point x="363" y="291"/>
      <point x="290" y="291" type="curve" smooth="yes"/>
    </contour>
  </outline>
</glyph>
<glyph name="de-cy" format="2">
  <advance width="576"/>
  <unicode hex="0434"/>
  <guideline x="-75" y="-110" angle="0"/>
  <guideline x="391"/>
  <guideline x="-15"/>
  <guideline x="433"/>
  <outline>
    <contour>
      <point x="42" y="-110" type="curve" smooth="yes"/>
      <point x="59" y="-110" type="line" smooth="yes"/>
      <point x="72" y="-110"/>
      <point x="81" y="-101"/>
      <point x="81" y="-88" type="curve" smooth="yes"/>
      <point x="81" y="0" type="line"/>
      <point x="480" y="0" type="line"/>
      <point x="480" y="-88" type="line" smooth="yes"/>
      <point x="480" y="-101"/>
      <point x="489" y="-110"/>
      <point x="502" y="-110" type="curve" smooth="yes"/>
      <point x="519" y="-110" type="line" smooth="yes"/>
      <point x="532" y="-110"/>
      <point x="541" y="-101"/>
      <point x="541" y="-88" type="curve" smooth="yes"/>
      <point x="541" y="38" type="line" smooth="yes"/>
      <point x="541" y="51"/>
      <point x="532" y="60"/>
      <point x="519" y="60" type="curve" smooth="yes"/>
      <point x="470" y="60" type="line"/>
      <point x="470" y="498" type="line" smooth="yes"/>
      <point x="470" y="511"/>
      <point x="461" y="520"/>
      <point x="448" y="520" type="curve" smooth="yes"/>
      <point x="160" y="520" type="line" smooth="yes"/>
      <point x="147" y="520"/>
      <point x="138" y="511"/>
      <point x="138" y="498" type="curve" smooth="yes"/>
      <point x="138" y="375" type="line" smooth="yes"/>
      <point x="138" y="144"/>
      <point x="101" y="59"/>
      <point x="45" y="58" type="curve" smooth="yes"/>
      <point x="42" y="58" type="line" smooth="yes"/>
      <point x="29" y="58"/>
      <point x="20" y="49"/>
      <point x="20" y="36" type="curve" smooth="yes"/>
      <point x="20" y="-88" type="line" smooth="yes"/>
      <point x="20" y="-101"/>
      <point x="29" y="-110"/>
    </contour>
    <contour>
      <point x="133" y="58" type="line"/>
      <point x="175" y="111"/>
      <point x="199" y="208"/>
      <point x="199" y="368" type="curve" smooth="yes"/>
      <point x="199" y="462" type="line"/>
      <point x="409" y="462" type="line"/>
      <point x="409" y="60" type="line"/>
    </contour>
  </outline>
</glyph>
<glyph name="ze-cy" format="2">
  <advance width="492"/>
  <unicode hex="0437"/>
  <anchor x="251" y="0" name="bottom"/>
  <anchor x="247" y="520" name="top"/>
  <outline>
    <contour>
      <point x="246" y="-10" type="curve" smooth="yes"/>
      <point x="362" y="-10"/>
      <point x="454" y="38"/>
      <point x="452" y="144" type="curve" smooth="yes"/>
      <point x="451" y="207"/>
      <point x="432" y="252"/>
      <point x="372" y="276" type="curve"/>
      <point x="419" y="300"/>
      <point x="432" y="330"/>
      <point x="432" y="385" type="curve" smooth="yes"/>
      <point x="432" y="444"/>
      <point x="386" y="530"/>
      <point x="246" y="530" type="curve" smooth="yes"/>
      <point x="120" y="530"/>
      <point x="53" y="463"/>
      <point x="53" y="379" type="curve" smooth="yes"/>
      <point x="53" y="367"/>
      <point x="62" y="359"/>
      <point x="74" y="359" type="curve"/>
      <point x="91" y="359" type="line" smooth="yes"/>
      <point x="103" y="359"/>
      <point x="111" y="364"/>
      <point x="115" y="380" type="curve" smooth="yes"/>
      <point x="130" y="440"/>
      <point x="157" y="472"/>
      <point x="246" y="472" type="curve" smooth="yes"/>
      <point x="341" y="472"/>
      <point x="371" y="422"/>
      <point x="371" y="375" type="curve" smooth="yes"/>
      <point x="371" y="320"/>
      <point x="335" y="298"/>
      <point x="275" y="298" type="curve" smooth="yes"/>
      <point x="228" y="298" type="line" smooth="yes"/>
      <point x="215" y="298"/>
      <point x="206" y="289"/>
      <point x="206" y="276" type="curve" smooth="yes"/>
      <point x="206" y="262" type="line" smooth="yes"/>
      <point x="206" y="249"/>
      <point x="215" y="240"/>
      <point x="228" y="240" type="curve" smooth="yes"/>
      <point x="282" y="240" type="line" smooth="yes"/>
      <point x="355" y="240"/>
      <point x="391" y="208"/>
      <point x="391" y="144" type="curve" smooth="yes"/>
      <point x="391" y="77"/>
      <point x="328" y="48"/>
      <point x="256" y="48" type="curve" smooth="yes"/>
      <point x="181" y="48"/>
      <point x="125" y="67"/>
      <point x="108" y="130" type="curve" smooth="yes"/>
      <point x="104" y="146"/>
      <point x="96" y="151"/>
      <point x="84" y="151" type="curve" smooth="yes"/>
      <point x="67" y="151" type="line" smooth="yes"/>
      <point x="55" y="151"/>
      <point x="46" y="143"/>
      <point x="46" y="131" type="curve" smooth="yes"/>
      <point x="46" y="76"/>
      <point x="100" y="-10"/>
    </contour>
  </outline>
</glyph>
<glyph name="ii-cy" format="2">
  <advance width="596"/>
  <unicode hex="0438"/>
  <guideline x="465"/>
  <anchor x="466" y="0" name="bottomright"/>
  <anchor x="298" y="520" name="top"/>
  <outline>
    <contour>
      <point x="101" y="0" type="curve" smooth="yes"/>
      <point x="120" y="0" type="line" smooth="yes"/>
      <point x="133" y="0"/>
      <point x="141" y="8"/>
      <point x="146" y="15" type="curve" smooth="yes"/>
      <point x="475" y="446" type="line"/>
      <point x="454" y="441" type="line"/>
      <point x="454" y="22" type="line" smooth="yes"/>
      <point x="454" y="9"/>
      <point x="463" y="0"/>
      <point x="476" y="0" type="curve" smooth="yes"/>
      <point x="493" y="0" type="line" smooth="yes"/>
      <point x="506" y="0"/>
      <point x="515" y="9"/>
      <point x="515" y="22" type="curve" smooth="yes"/>
      <point x="515" y="501" type="line" smooth="yes"/>
      <point x="515" y="511"/>
      <point x="505" y="520"/>
      <point x="495" y="520" type="curve" smooth="yes"/>
      <point x="476" y="520" type="line" smooth="yes"/>
      <point x="463" y="520"/>
      <point x="456" y="513"/>
      <point x="450" y="505" type="curve" smooth="yes"/>
      <point x="124" y="78" type="line"/>
      <point x="142" y="49" type="line"/>
      <point x="142" y="498" type="line" smooth="yes"/>
      <point x="142" y="511"/>
      <point x="133" y="520"/>
      <point x="120" y="520" type="curve" smooth="yes"/>
      <point x="103" y="520" type="line" smooth="yes"/>
      <point x="90" y="520"/>
      <point x="81" y="511"/>
      <point x="81" y="498" type="curve" smooth="yes"/>
      <point x="81" y="20" type="line" smooth="yes"/>
      <point x="81" y="9"/>
      <point x="90" y="0"/>
    </contour>
  </outline>
</glyph>
<glyph name="ka-cy" format="2">
  <advance width="506"/>
  <unicode hex="043A"/>
  <guideline y="260"/>
  <guideline x="-857"/>
  <guideline x="70"/>
  <anchor x="405" y="0" name="bottomright"/>
  <anchor x="193" y="260" name="center"/>
  <anchor x="250" y="520" name="top"/>
  <outline>
    <contour>
      <point x="103" y="0" type="curve" smooth="yes"/>
      <point x="120" y="0" type="line" smooth="yes"/>
      <point x="133" y="0"/>
      <point x="142" y="9"/>
      <point x="142" y="22" type="curve" smooth="yes"/>
      <point x="142" y="235" type="line"/>
      <point x="252" y="235" type="line"/>
      <point x="410" y="14" type="line" smooth="yes"/>
      <point x="417" y="5"/>
      <point x="424" y="0"/>
      <point x="436" y="0" type="curve" smooth="yes"/>
      <point x="462" y="0" type="line" smooth="yes"/>
      <point x="474" y="0"/>
      <point x="481" y="5"/>
      <point x="481" y="14" type="curve" smooth="yes"/>
      <point x="481" y="18"/>
      <point x="480" y="22"/>
      <point x="476" y="27" type="curve" smooth="yes"/>
      <point x="302" y="272" type="line"/>
      <point x="457" y="494" type="line" smooth="yes"/>
      <point x="460" y="499"/>
      <point x="462" y="503"/>
      <point x="462" y="506" type="curve" smooth="yes"/>
      <point x="462" y="515"/>
      <point x="454" y="520"/>
      <point x="442" y="520" type="curve" smooth="yes"/>
      <point x="422" y="520" type="line" smooth="yes"/>
      <point x="410" y="520"/>
      <point x="403" y="515"/>
      <point x="396" y="505" type="curve" smooth="yes"/>
      <point x="249" y="295" type="line"/>
      <point x="142" y="295" type="line"/>
      <point x="142" y="498" type="line" smooth="yes"/>
      <point x="142" y="511"/>
      <point x="133" y="520"/>
      <point x="120" y="520" type="curve" smooth="yes"/>
      <point x="103" y="520" type="line" smooth="yes"/>
      <point x="90" y="520"/>
      <point x="81" y="511"/>
      <point x="81" y="498" type="curve" smooth="yes"/>
      <point x="81" y="22" type="line" smooth="yes"/>
      <point x="81" y="9"/>
      <point x="90" y="0"/>
    </contour>
  </outline>
</glyph>
<glyph name="em-cy" format="2">
  <advance width="664"/>
  <unicode hex="043C"/>
  <guideline x="10" y="85" angle="0"/>
  <guideline x="10" y="113" angle="0"/>
  <outline>
    <contour>
      <point x="103" y="0" type="curve" smooth="yes"/>
      <point x="120" y="0" type="line" smooth="yes"/>
      <point x="133" y="0"/>
      <point x="142" y="9"/>
      <point x="142" y="22" type="curve" smooth="yes"/>
      <point x="142" y="433" type="line"/>
      <point x="118" y="433" type="line"/>
      <point x="288" y="113" type="line" smooth="yes"/>
      <point x="295" y="100"/>
      <point x="302" y="85"/>
      <point x="322" y="85" type="curve" smooth="yes"/>
      <point x="342" y="85" type="line" smooth="yes"/>
      <point x="362" y="85"/>
      <point x="369" y="100"/>
      <point x="376" y="113" type="curve" smooth="yes"/>
      <point x="551" y="452" type="line"/>
      <point x="522" y="452" type="line"/>
      <point x="522" y="22" type="line" smooth="yes"/>
      <point x="522" y="9"/>
      <point x="531" y="0"/>
      <point x="544" y="0" type="curve" smooth="yes"/>
      <point x="561" y="0" type="line" smooth="yes"/>
      <point x="574" y="0"/>
      <point x="583" y="9"/>
      <point x="583" y="22" type="curve" smooth="yes"/>
      <point x="583" y="501" type="line" smooth="yes"/>
      <point x="583" y="511"/>
      <point x="573" y="520"/>
      <point x="563" y="520" type="curve" smooth="yes"/>
      <point x="540" y="520" type="line" smooth="yes"/>
      <point x="529" y="520"/>
      <point x="522" y="514"/>
      <point x="517" y="505" type="curve" smooth="yes"/>
      <point x="332" y="155" type="line"/>
      <point x="147" y="505" type="line" smooth="yes"/>
      <point x="142" y="514"/>
      <point x="135" y="520"/>
      <point x="124" y="520" type="curve" smooth="yes"/>
      <point x="101" y="520" type="line" smooth="yes"/>
      <point x="91" y="520"/>
      <point x="81" y="511"/>
      <point x="81" y="501" type="curve" smooth="yes"/>
      <point x="81" y="22" type="line" smooth="yes"/>
      <point x="81" y="9"/>
      <point x="90" y="0"/>
    </contour>
  </outline>
</glyph>
<glyph name="pe-cy" format="2">
  <advance width="576"/>
  <unicode hex="043F"/>
  <guideline x="70"/>
  <anchor x="424" y="0" name="bottomright"/>
  <outline>
    <contour>
      <point x="103" y="0" type="curve"/>
      <point x="120" y="0" type="line" smooth="yes"/>
      <point x="133" y="0"/>
      <point x="142" y="9"/>
      <point x="142" y="22" type="curve" smooth="yes"/>
      <point x="142" y="462" type="line"/>
      <point x="434" y="462" type="line"/>
      <point x="434" y="22" type="line" smooth="yes"/>
      <point x="434" y="9"/>
      <point x="443" y="0"/>
      <point x="456" y="0" type="curve" smooth="yes"/>
      <point x="473" y="0" type="line" smooth="yes"/>
      <point x="486" y="0"/>
      <point x="495" y="9"/>
      <point x="495" y="22" type="curve" smooth="yes"/>
      <point x="495" y="498" type="line" smooth="yes"/>
      <point x="495" y="511"/>
      <point x="486" y="520"/>
      <point x="473" y="520" type="curve" smooth="yes"/>
      <point x="103" y="520" type="line" smooth="yes"/>
      <point x="90" y="520"/>
      <point x="81" y="511"/>
      <point x="81" y="498" type="curve" smooth="yes"/>
      <point x="81" y="22" type="line" smooth="yes"/>
      <point x="81" y="9"/>
      <point x="90" y="0"/>
    </contour>
  </outline>
</glyph>
<glyph name="te-cy" format="2">
  <advance width="497"/>
  <unicode hex="0442"/>
  <guideline x="30"/>
  <guideline x="501"/>
  <outline>
    <contour>
      <point x="240" y="0" type="curve"/>
      <point x="257" y="0" type="line" smooth="yes"/>
      <point x="270" y="0"/>
      <point x="279" y="9"/>
      <point x="279" y="22" type="curve" smooth="yes"/>
      <point x="279" y="462" type="line"/>
      <point x="462" y="462" type="line" smooth="yes"/>
      <point x="475" y="462"/>
      <point x="484" y="471"/>
      <point x="484" y="484" type="curve" smooth="yes"/>
      <point x="484" y="498" type="line" smooth="yes"/>
      <point x="484" y="511"/>
      <point x="475" y="520"/>
      <point x="462" y="520" type="curve" smooth="yes"/>
      <point x="35" y="520" type="line" smooth="yes"/>
      <point x="22" y="520"/>
      <point x="13" y="511"/>
      <point x="13" y="498" type="curve" smooth="yes"/>
      <point x="13" y="484" type="line" smooth="yes"/>
      <point x="13" y="471"/>
      <point x="22" y="462"/>
      <point x="35" y="462" type="curve" smooth="yes"/>
      <point x="218" y="462" type="line"/>
      <point x="218" y="22" type="line" smooth="yes"/>
      <point x="218" y="9"/>
      <point x="227" y="0"/>
    </contour>
  </outline>
</glyph>
<glyph name="u-cy" format="2">
  <advance width="529"/>
  <unicode hex="0443"/>
  <guideline y="-190"/>
  <guideline x="272"/>
  <guideline x="40"/>
  <anchor x="262" y="520" name="top"/>
  <outline>
    <contour>
      <point x="93" y="-190" type="curve" smooth="yes"/>
      <point x="127" y="-190" type="line" smooth="yes"/>
      <point x="223" y="-190"/>
      <point x="266" y="-50"/>
      <point x="302" y="34" type="curve" smooth="yes"/>
      <point x="492" y="480" type="line" smooth="yes"/>
      <point x="496" y="490"/>
      <point x="498" y="495"/>
      <point x="498" y="500" type="curve" smooth="yes"/>
      <point x="498" y="511"/>
      <point x="489" y="520"/>
      <point x="478" y="520" type="curve" smooth="yes"/>
      <point x="460" y="520" type="line" smooth="yes"/>
      <point x="447" y="520"/>
      <point x="441" y="514"/>
      <point x="437" y="505" type="curve" smooth="yes"/>
      <point x="213" y="-22" type="line" smooth="yes"/>
      <point x="178" y="-106"/>
      <point x="164" y="-132"/>
      <point x="116" y="-132" type="curve" smooth="yes"/>
      <point x="93" y="-132" type="line" smooth="yes"/>
      <point x="80" y="-132"/>
      <point x="71" y="-141"/>
      <point x="71" y="-154" type="curve"/>
      <point x="71" y="-168" type="line" smooth="yes"/>
      <point x="71" y="-181"/>
      <point x="80" y="-190"/>
    </contour>
    <contour>
      <point x="241" y="17" type="line"/>
      <point x="273" y="94" type="line"/>
      <point x="97" y="505" type="line" smooth="yes"/>
      <point x="93" y="513"/>
      <point x="87" y="520"/>
      <point x="74" y="520" type="curve" smooth="yes"/>
      <point x="55" y="520" type="line" smooth="yes"/>
      <point x="44" y="520"/>
      <point x="35" y="511"/>
      <point x="35" y="500" type="curve" smooth="yes"/>
      <point x="35" y="495"/>
      <point x="37" y="490"/>
      <point x="41" y="480" type="curve" smooth="yes"/>
    </contour>
  </outline>
</glyph>
<glyph name="ef-cy" format="2">
  <advance width="679"/>
  <unicode hex="0444"/>
  <guideline x="47" y="-190" angle="0"/>
  <guideline x="47" y="710" angle="0"/>
  <outline>
    <contour>
      <point x="331" y="-190" type="curve" smooth="yes"/>
      <point x="348" y="-190" type="line" smooth="yes"/>
      <point x="361" y="-190"/>
      <point x="370" y="-181"/>
      <point x="370" y="-168" type="curve" smooth="yes"/>
      <point x="370" y="0" type="line"/>
      <point x="544" y="0"/>
      <point x="616" y="99"/>
      <point x="622" y="228" type="curve" smooth="yes"/>
      <point x="623" y="248"/>
      <point x="623" y="272"/>
      <point x="622" y="292" type="curve" smooth="yes"/>
      <point x="616" y="421"/>
      <point x="544" y="520"/>
      <point x="370" y="520" type="curve"/>
      <point x="370" y="688" type="line" smooth="yes"/>
      <point x="370" y="701"/>
      <point x="361" y="710"/>
      <point x="348" y="710" type="curve" smooth="yes"/>
      <point x="331" y="710" type="line" smooth="yes"/>
      <point x="318" y="710"/>
      <point x="309" y="701"/>
      <point x="309" y="688" type="curve" smooth="yes"/>
      <point x="309" y="520" type="line"/>
      <point x="135" y="520"/>
      <point x="63" y="421"/>
      <point x="57" y="292" type="curve" smooth="yes"/>
      <point x="56" y="272"/>
      <point x="56" y="248"/>
      <point x="57" y="228" type="curve" smooth="yes"/>
      <point x="63" y="99"/>
      <point x="135" y="0"/>
      <point x="309" y="0" type="curve"/>
      <point x="309" y="-168" type="line" smooth="yes"/>
      <point x="309" y="-181"/>
      <point x="318" y="-190"/>
    </contour>
    <contour>
      <point x="309" y="58" type="line"/>
      <point x="186" y="58"/>
      <point x="124" y="119"/>
      <point x="118" y="233" type="curve" smooth="yes"/>
      <point x="117" y="253"/>
      <point x="117" y="267"/>
      <point x="118" y="287" type="curve" smooth="yes"/>
      <point x="124" y="401"/>
      <point x="186" y="462"/>
      <point x="309" y="462" type="curve"/>
    </contour>
    <contour>
      <point x="370" y="58" type="curve"/>
      <point x="370" y="462" type="line"/>
      <point x="493" y="462"/>
      <point x="555" y="401"/>
      <point x="561" y="287" type="curve" smooth="yes"/>
      <point x="562" y="267"/>
      <point x="562" y="253"/>
      <point x="561" y="233" type="curve" smooth="yes"/>
      <point x="555" y="119"/>
      <point x="493" y="58"/>
    </contour>
  </outline>
</glyph>
<glyph name="che-cy" format="2">
  <advance width="527"/>
  <unicode hex="0447"/>
  <anchor x="385" y="0" name="bottomright"/>
  <anchor x="230" y="200" name="center"/>
  <anchor x="252" y="520" name="top"/>
  <outline>
    <contour>
      <point x="407" y="0" type="curve" smooth="yes"/>
      <point x="424" y="0" type="line" smooth="yes"/>
      <point x="437" y="0"/>
      <point x="446" y="9"/>
      <point x="446" y="22" type="curve" smooth="yes"/>
      <point x="446" y="498" type="line" smooth="yes"/>
      <point x="446" y="511"/>
      <point x="437" y="520"/>
      <point x="424" y="520" type="curve" smooth="yes"/>
      <point x="407" y="520" type="line" smooth="yes"/>
      <point x="394" y="520"/>
      <point x="385" y="511"/>
      <point x="385" y="498" type="curve" smooth="yes"/>
      <point x="385" y="311" type="line" smooth="yes"/>
      <point x="385" y="250"/>
      <point x="323" y="231"/>
      <point x="229" y="231" type="curve" smooth="yes"/>
      <point x="146" y="231"/>
      <point x="106" y="261"/>
      <point x="106" y="327" type="curve" smooth="yes"/>
      <point x="106" y="498" type="line" smooth="yes"/>
      <point x="106" y="511"/>
      <point x="97" y="520"/>
      <point x="84" y="520" type="curve" smooth="yes"/>
      <point x="67" y="520" type="line" smooth="yes"/>
      <point x="54" y="520"/>
      <point x="45" y="511"/>
      <point x="45" y="498" type="curve" smooth="yes"/>
      <point x="45" y="322" type="line" smooth="yes"/>
      <point x="45" y="217"/>
      <point x="111" y="173"/>
      <point x="225" y="173" type="curve" smooth="yes"/>
      <point x="294" y="173"/>
      <point x="347" y="188"/>
      <point x="385" y="226" type="curve"/>
      <point x="385" y="22" type="line" smooth="yes"/>
      <point x="385" y="9"/>
      <point x="394" y="0"/>
    </contour>
  </outline>
</glyph>
<glyph name="sha-cy" format="2">
  <advance width="769"/>
  <unicode hex="0448"/>
  <outline>
    <contour>
      <point x="103" y="0" type="curve" smooth="yes"/>
      <point x="666" y="0" type="line" smooth="yes"/>
      <point x="679" y="0"/>
      <point x="688" y="9"/>
      <point x="688" y="22" type="curve" smooth="yes"/>
      <point x="688" y="498" type="line" smooth="yes"/>
      <point x="688" y="511"/>
      <point x="679" y="520"/>
      <point x="666" y="520" type="curve" smooth="yes"/>
      <point x="649" y="520" type="line" smooth="yes"/>
      <point x="636" y="520"/>
      <point x="627" y="511"/>
      <point x="627" y="498" type="curve" smooth="yes"/>
      <point x="627" y="58" type="line"/>
      <point x="415" y="58" type="line"/>
      <point x="415" y="498" type="line" smooth="yes"/>
      <point x="415" y="511"/>
      <point x="406" y="520"/>
      <point x="393" y="520" type="curve" smooth="yes"/>
      <point x="376" y="520" type="line" smooth="yes"/>
      <point x="363" y="520"/>
      <point x="354" y="511"/>
      <point x="354" y="498" type="curve" smooth="yes"/>
      <point x="354" y="58" type="line"/>
      <point x="142" y="58" type="line"/>
      <point x="142" y="498" type="line" smooth="yes"/>
      <point x="142" y="511"/>
      <point x="133" y="520"/>
      <point x="120" y="520" type="curve" smooth="yes"/>
      <point x="103" y="520" type="line" smooth="yes"/>
      <point x="90" y="520"/>
      <point x="81" y="511"/>
      <point x="81" y="498" type="curve" smooth="yes"/>
      <point x="81" y="22" type="line" smooth="yes"/>
      <point x="81" y="9"/>
      <point x="90" y="0"/>
    </contour>
  </outline>
</glyph>
<glyph name="shcha-cy" format="2">
  <advance width="795"/>
  <unicode hex="0449"/>
  <guideline x="10" y="58" angle="0"/>
  <guideline x="10" y="-110" angle="0"/>
  <outline>
    <contour>
      <point x="721" y="-130" type="curve" smooth="yes"/>
      <point x="738" y="-130" type="line" smooth="yes"/>
      <point x="751" y="-130"/>
      <point x="760" y="-121"/>
      <point x="760" y="-108" type="curve" smooth="yes"/>
      <point x="760" y="36" type="line" smooth="yes"/>
      <point x="760" y="49"/>
      <point x="751" y="58"/>
      <point x="738" y="58" type="curve" smooth="yes"/>
      <point x="688" y="58" type="line"/>
      <point x="688" y="498" type="line" smooth="yes"/>
      <point x="688" y="511"/>
      <point x="679" y="520"/>
      <point x="666" y="520" type="curve" smooth="yes"/>
      <point x="649" y="520" type="line" smooth="yes"/>
      <point x="636" y="520"/>
      <point x="627" y="511"/>
      <point x="627" y="498" type="curve" smooth="yes"/>
      <point x="627" y="58" type="line"/>
      <point x="415" y="58" type="line"/>
      <point x="415" y="498" type="line" smooth="yes"/>
      <point x="415" y="511"/>
      <point x="406" y="520"/>
      <point x="393" y="520" type="curve" smooth="yes"/>
      <point x="376" y="520" type="line" smooth="yes"/>
      <point x="363" y="520"/>
      <point x="354" y="511"/>
      <point x="354" y="498" type="curve" smooth="yes"/>
      <point x="354" y="58" type="line"/>
      <point x="142" y="58" type="line"/>
      <point x="142" y="498" type="line" smooth="yes"/>
      <point x="142" y="511"/>
      <point x="133" y="520"/>
      <point x="120" y="520" type="curve" smooth="yes"/>
      <point x="103" y="520" type="line" smooth="yes"/>
      <point x="90" y="520"/>
      <point x="81" y="511"/>
      <point x="81" y="498" type="curve" smooth="yes"/>
      <point x="81" y="22" type="line" smooth="yes"/>
      <point x="81" y="9"/>
      <point x="90" y="0"/>
      <point x="103" y="0" type="curve" smooth="yes"/>
      <point x="699" y="0" type="line"/>
      <point x="699" y="-108" type="line" smooth="yes"/>
      <point x="699" y="-121"/>
      <point x="708" y="-130"/>
    </contour>
  </outline>
</glyph>
<glyph name="hardsign-cy" format="2">
  <advance width="539"/>
  <unicode hex="044A"/>
  <outline>
    <contour>
      <point x="186" y="0" type="curve" smooth="yes"/>
      <point x="310" y="0" type="line" smooth="yes"/>
      <point x="450" y="0"/>
      <point x="514" y="51"/>
      <point x="514" y="169" type="curve" smooth="yes"/>
      <point x="514" y="277"/>
      <point x="461" y="346"/>
      <point x="325" y="346" type="curve" smooth="yes"/>
      <point x="225" y="346" type="line"/>
      <point x="225" y="498" type="line" smooth="yes"/>
      <point x="225" y="511"/>
      <point x="216" y="520"/>
      <point x="203" y="520" type="curve" smooth="yes"/>
      <point x="35" y="520" type="line" smooth="yes"/>
      <point x="22" y="520"/>
      <point x="13" y="511"/>
      <point x="13" y="498" type="curve" smooth="yes"/>
      <point x="13" y="484" type="line" smooth="yes"/>
      <point x="13" y="471"/>
      <point x="22" y="462"/>
      <point x="35" y="462" type="curve" smooth="yes"/>
      <point x="164" y="462" type="line"/>
      <point x="164" y="22" type="line" smooth="yes"/>
      <point x="164" y="9"/>
      <point x="173" y="0"/>
    </contour>
    <contour>
      <point x="225" y="58" type="line"/>
      <point x="225" y="288" type="line"/>
      <point x="319" y="288" type="line" smooth="yes"/>
      <point x="415" y="288"/>
      <point x="453" y="249"/>
      <point x="453" y="169" type="curve" smooth="yes"/>
      <point x="453" y="86"/>
      <point x="412" y="58"/>
      <point x="319" y="58" type="curve" smooth="yes"/>
    </contour>
  </outline>
</glyph>
<glyph name="ia-cy" format="2">
  <advance width="519"/>
  <unicode hex="044F"/>
  <guideline x="30"/>
  <outline>
    <contour>
      <point x="399" y="0" type="curve" smooth="yes"/>
      <point x="416" y="0" type="line" smooth="yes"/>
      <point x="429" y="0"/>
      <point x="438" y="9"/>
      <point x="438" y="22" type="curve" smooth="yes"/>
      <point x="438" y="498" type="line" smooth="yes"/>
      <point x="438" y="511"/>
      <point x="429" y="520"/>
      <point x="416" y="520" type="curve" smooth="yes"/>
      <point x="272" y="520" type="line" smooth="yes"/>
      <point x="139" y="520"/>
      <point x="78" y="472"/>
      <point x="78" y="361" type="curve" smooth="yes"/>
      <point x="78" y="269"/>
      <point x="130" y="199"/>
      <point x="249" y="199" type="curve"/>
      <point x="249" y="194" type="line"/>
      <point x="377" y="194" type="line"/>
      <point x="377" y="22" type="line"/>
      <point x="377" y="9"/>
      <point x="386" y="0"/>
    </contour>
    <contour>
      <point x="85" y="0" type="curve"/>
      <point x="103" y="0" type="line"/>
      <point x="114" y="0"/>
      <point x="124" y="8"/>
      <point x="130" y="15" type="curve"/>
      <point x="271" y="216" type="line"/>
      <point x="196" y="216" type="line"/>
      <point x="73" y="40" type="line"/>
      <point x="66" y="32"/>
      <point x="65" y="25"/>
      <point x="65" y="20" type="curve" smooth="yes"/>
      <point x="65" y="9"/>
      <point x="74" y="0"/>
    </contour>
    <contour>
      <point x="253" y="252" type="line" smooth="yes"/>
      <point x="174" y="252"/>
      <point x="139" y="298"/>
      <point x="139" y="361" type="curve" smooth="yes"/>
      <point x="139" y="437"/>
      <point x="177" y="462"/>
      <point x="263" y="462" type="curve" smooth="yes"/>
      <point x="377" y="462" type="line"/>
      <point x="377" y="252" type="line"/>
    </contour>
  </outline>
</glyph>
<glyph name="tshe-cy" format="2">
  <advance width="590"/>
  <unicode hex="045B"/>
  <guideline y="629"/>
  <guideline x="110"/>
  <outline>
    <contour>
      <point x="103" y="0" type="curve" smooth="yes"/>
      <point x="120" y="0" type="line" smooth="yes"/>
      <point x="133" y="0"/>
      <point x="142" y="9"/>
      <point x="142" y="22" type="curve" smooth="yes"/>
      <point x="142" y="241" type="line" smooth="yes"/>
      <point x="142" y="348"/>
      <point x="205" y="412"/>
      <point x="300" y="412" type="curve" smooth="yes"/>
      <point x="400" y="412"/>
      <point x="453" y="347"/>
      <point x="453" y="241" type="curve" smooth="yes"/>
      <point x="453" y="22" type="line" smooth="yes"/>
      <point x="453" y="9"/>
      <point x="462" y="0"/>
      <point x="475" y="0" type="curve" smooth="yes"/>
      <point x="492" y="0" type="line" smooth="yes"/>
      <point x="505" y="0"/>
      <point x="514" y="9"/>
      <point x="514" y="22" type="curve" smooth="yes"/>
      <point x="514" y="246" type="line" smooth="yes"/>
      <point x="514" y="373"/>
      <point x="446" y="470"/>
      <point x="310" y="470" type="curve" smooth="yes"/>
      <point x="224" y="470"/>
      <point x="178" y="438"/>
      <point x="142" y="391" type="curve"/>
      <point x="142" y="541" type="line"/>
      <point x="330" y="541" type="line" smooth="yes"/>
      <point x="343" y="541"/>
      <point x="352" y="550"/>
      <point x="352" y="563" type="curve" smooth="yes"/>
      <point x="352" y="577" type="line" smooth="yes"/>
      <point x="352" y="590"/>
      <point x="343" y="599"/>
      <point x="330" y="599" type="curve" smooth="yes"/>
      <point x="142" y="599" type="line"/>
      <point x="142" y="688" type="line" smooth="yes"/>
      <point x="142" y="701"/>
      <point x="133" y="710"/>
      <point x="120" y="710" type="curve" smooth="yes"/>
      <point x="103" y="710" type="line" smooth="yes"/>
      <point x="90" y="710"/>
      <point x="81" y="701"/>
      <point x="81" y="688" type="curve" smooth="yes"/>
      <point x="81" y="599" type="line"/>
      <point x="23" y="599" type="line" smooth="yes"/>
      <point x="10" y="599"/>
      <point x="1" y="590"/>
      <point x="1" y="577" type="curve" smooth="yes"/>
      <point x="1" y="563" type="line" smooth="yes"/>
      <point x="1" y="550"/>
      <point x="10" y="541"/>
      <point x="23" y="541" type="curve" smooth="yes"/>
      <point x="81" y="541" type="line"/>
      <point x="81" y="22" type="line" smooth="yes"/>
      <point x="81" y="9"/>
      <point x="90" y="0"/>
    </contour>
  </outline>
</glyph>
<glyph name="dzhe-cy" format="2">
  <advance width="576"/>
  <unicode hex="045F"/>
  <guideline x="20" y="-110" angle="0"/>
  <guideline x="90"/>
  <guideline x="463"/>
  <outline>
    <contour>
      <point x="279" y="-130" type="curve" smooth="yes"/>
      <point x="296" y="-130" type="line" smooth="yes"/>
      <point x="309" y="-130"/>
      <point x="318" y="-121"/>
      <point x="318" y="-108" type="curve" smooth="yes"/>
      <point x="318" y="0" type="line"/>
      <point x="473" y="0" type="line" smooth="yes"/>
      <point x="486" y="0"/>
      <point x="495" y="9"/>
      <point x="495" y="22" type="curve"/>
      <point x="495" y="498" type="line" smooth="yes"/>
      <point x="495" y="511"/>
      <point x="486" y="520"/>
      <point x="473" y="520" type="curve" smooth="yes"/>
      <point x="456" y="520" type="line" smooth="yes"/>
      <point x="443" y="520"/>
      <point x="434" y="511"/>
      <point x="434" y="498" type="curve" smooth="yes"/>
      <point x="434" y="58" type="line"/>
      <point x="142" y="58" type="line"/>
      <point x="142" y="498" type="line" smooth="yes"/>
      <point x="142" y="511"/>
      <point x="133" y="520"/>
      <point x="120" y="520" type="curve" smooth="yes"/>
      <point x="103" y="520" type="line" smooth="yes"/>
      <point x="90" y="520"/>
      <point x="81" y="511"/>
      <point x="81" y="498" type="curve" smooth="yes"/>
      <point x="81" y="22" type="line" smooth="yes"/>
      <point x="81" y="9"/>
      <point x="90" y="0"/>
      <point x="103" y="0" type="curve" smooth="yes"/>
      <point x="257" y="0" type="line"/>
      <point x="257" y="-108" type="line" smooth="yes"/>
      <point x="257" y="-121"/>
      <point x="266" y="-130"/>
    </contour>
  </outline>
</glyph>
<glyph name="Yusbig-cy" format="2">
  <advance width="851"/>
  <unicode hex="046A"/>
  <outline>
    <contour>
      <point x="68" y="0" type="curve" smooth="yes"/>
      <point x="88" y="0" type="line" smooth="yes"/>
      <point x="96" y="0"/>
      <point x="104" y="5"/>
      <point x="107" y="13" type="curve" smooth="yes"/>
      <point x="195" y="246" type="line" smooth="yes"/>
      <point x="218" y="305"/>
      <point x="240" y="325"/>
      <point x="302" y="325" type="curve" smooth="yes"/>
      <point x="394" y="325" type="line"/>
      <point x="394" y="22" type="line" smooth="yes"/>
      <point x="394" y="9"/>
      <point x="403" y="0"/>
      <point x="417" y="0" type="curve" smooth="yes"/>
      <point x="435" y="0" type="line" smooth="yes"/>
      <point x="448" y="0"/>
      <point x="457" y="9"/>
      <point x="457" y="22" type="curve" smooth="yes"/>
      <point x="457" y="325" type="line"/>
      <point x="549" y="325" type="line" smooth="yes"/>
      <point x="611" y="325"/>
      <point x="633" y="305"/>
      <point x="656" y="246" type="curve" smooth="yes"/>
      <point x="744" y="13" type="line" smooth="yes"/>
      <point x="747" y="5"/>
      <point x="755" y="0"/>
      <point x="763" y="0" type="curve" smooth="yes"/>
      <point x="783" y="0" type="line" smooth="yes"/>
      <point x="800" y="0"/>
      <point x="811" y="17"/>
      <point x="804" y="35" type="curve" smooth="yes"/>
      <point x="716" y="268" type="line" smooth="yes"/>
      <point x="681" y="360"/>
      <point x="630" y="384"/>
      <point x="549" y="384" type="curve" smooth="yes"/>
      <point x="495" y="384" type="line"/>
      <point x="732" y="667" type="line" smooth="yes"/>
      <point x="735" y="671"/>
      <point x="736" y="675"/>
      <point x="736" y="680" type="curve" smooth="yes"/>
      <point x="736" y="691"/>
      <point x="727" y="700"/>
      <point x="716" y="700" type="curve" smooth="yes"/>
      <point x="136" y="700" type="line" smooth="yes"/>
      <point x="125" y="700"/>
      <point x="116" y="691"/>
      <point x="116" y="680" type="curve" smooth="yes"/>
      <point x="116" y="675"/>
      <point x="117" y="671"/>
      <point x="120" y="667" type="curve" smooth="yes"/>
      <point x="354" y="384" type="line"/>
      <point x="302" y="384" type="line" smooth="yes"/>
      <point x="221" y="384"/>
      <point x="170" y="360"/>
      <point x="135" y="268" type="curve" smooth="yes"/>
      <point x="47" y="35" type="line" smooth="yes"/>
      <point x="40" y="17"/>
      <point x="51" y="0"/>
    </contour>
    <contour>
      <point x="426" y="390" type="line"/>
      <point x="218" y="640" type="line"/>
      <point x="636" y="640" type="line"/>
    </contour>
  </outline>
</glyph>
<glyph name="yusbig-cy" format="2">
  <advance width="697"/>
  <unicode hex="046B"/>
  <outline>
    <contour>
      <point x="19" y="0" type="curve" smooth="yes"/>
      <point x="45" y="0" type="line" smooth="yes"/>
      <point x="57" y="0"/>
      <point x="64" y="5"/>
      <point x="71" y="14" type="curve"/>
      <point x="174" y="182" type="line" smooth="yes"/>
      <point x="201" y="226"/>
      <point x="227" y="237"/>
      <point x="273" y="237" type="curve" smooth="yes"/>
      <point x="318" y="237" type="line"/>
      <point x="318" y="22" type="line" smooth="yes"/>
      <point x="318" y="9"/>
      <point x="327" y="0"/>
      <point x="340" y="0" type="curve" smooth="yes"/>
      <point x="357" y="0" type="line" smooth="yes"/>
      <point x="370" y="0"/>
      <point x="379" y="9"/>
      <point x="379" y="22" type="curve" smooth="yes"/>
      <point x="379" y="237" type="line"/>
      <point x="424" y="237" type="line" smooth="yes"/>
      <point x="470" y="237"/>
      <point x="496" y="226"/>
      <point x="523" y="182" type="curve" smooth="yes"/>
      <point x="626" y="14" type="line"/>
      <point x="633" y="5"/>
      <point x="640" y="0"/>
      <point x="652" y="0" type="curve" smooth="yes"/>
      <point x="678" y="0" type="line" smooth="yes"/>
      <point x="690" y="0"/>
      <point x="697" y="5"/>
      <point x="697" y="14" type="curve" smooth="yes"/>
      <point x="697" y="18"/>
      <point x="696" y="22"/>
      <point x="692" y="27" type="curve"/>
      <point x="572" y="216" type="line" smooth="yes"/>
      <point x="530" y="282"/>
      <point x="489" y="295"/>
      <point x="437" y="295" type="curve" smooth="yes"/>
      <point x="419" y="295" type="line"/>
      <point x="572" y="487" type="line" smooth="yes"/>
      <point x="575" y="491"/>
      <point x="577" y="496"/>
      <point x="577" y="501" type="curve" smooth="yes"/>
      <point x="577" y="511"/>
      <point x="570" y="520"/>
      <point x="557" y="520" type="curve" smooth="yes"/>
      <point x="137" y="520" type="line" smooth="yes"/>
      <point x="127" y="520"/>
      <point x="117" y="512"/>
      <point x="117" y="500" type="curve" smooth="yes"/>
      <point x="117" y="495"/>
      <point x="118" y="490"/>
      <point x="123" y="484" type="curve" smooth="yes"/>
      <point x="278" y="295" type="line"/>
      <point x="260" y="295" type="line" smooth="yes"/>
      <point x="208" y="295"/>
      <point x="167" y="282"/>
      <point x="125" y="216" type="curve" smooth="yes"/>
      <point x="5" y="27" type="line"/>
      <point x="1" y="22"/>
      <point x="0" y="18"/>
      <point x="0" y="14" type="curve" smooth="yes"/>
      <point x="0" y="5"/>
      <point x="7" y="0"/>
    </contour>
    <contour>
      <point x="349" y="295" type="line"/>
      <point x="214" y="462" type="line"/>
      <point x="483" y="462" type="line"/>
    </contour>
  </outline>
</glyph>
<glyph name="Fita-cy" format="2">
  <advance width="662"/>
  <unicode hex="0472"/>
  <outline>
    <contour>
      <point x="107" y="325" type="line"/>
      <point x="573" y="325" type="line"/>
      <point x="573" y="385" type="line"/>
      <point x="107" y="385" type="line"/>
    </contour>
    <component base="O"/>
  </outline>
</glyph>
<glyph name="Izhitsa-cy" format="2">
  <advance width="644"/>
  <unicode hex="0474"/>
  <outline>
    <contour>
      <point x="305" y="0" type="curve" smooth="yes"/>
      <point x="333" y="0" type="line" smooth="yes"/>
      <point x="351" y="0"/>
      <point x="361" y="8"/>
      <point x="367" y="24" type="curve" smooth="yes"/>
      <point x="521" y="511" type="line" smooth="yes"/>
      <point x="555" y="618"/>
      <point x="577" y="650"/>
      <point x="623" y="650" type="curve" smooth="yes"/>
      <point x="626" y="650" type="line" smooth="yes"/>
      <point x="636" y="650"/>
      <point x="644" y="660"/>
      <point x="644" y="672" type="curve" smooth="yes"/>
      <point x="644" y="688" type="line" smooth="yes"/>
      <point x="644" y="704"/>
      <point x="639" y="710"/>
      <point x="629" y="710" type="curve" smooth="yes"/>
      <point x="623" y="710" type="line" smooth="yes"/>
      <point x="544" y="710"/>
      <point x="504" y="658"/>
      <point x="463" y="527" type="curve" smooth="yes"/>
      <point x="320" y="72" type="line"/>
      <point x="101" y="681" type="line" smooth="yes"/>
      <point x="97" y="691"/>
      <point x="91" y="700"/>
      <point x="78" y="700" type="curve" smooth="yes"/>
      <point x="57" y="700" type="line" smooth="yes"/>
      <point x="41" y="700"/>
      <point x="34" y="683"/>
      <point x="39" y="669" type="curve" smooth="yes"/>
      <point x="271" y="24" type="line" smooth="yes"/>
      <point x="277" y="8"/>
      <point x="287" y="0"/>
    </contour>
  </outline>
</glyph>
<glyph name="izhitsa-cy" format="2">
  <advance width="547"/>
  <unicode hex="0475"/>
  <outline>
    <contour>
      <point x="257" y="0" type="curve" smooth="yes"/>
      <point x="273" y="0" type="line" smooth="yes"/>
      <point x="294" y="0"/>
      <point x="306" y="10"/>
      <point x="311" y="25" type="curve" smooth="yes"/>
      <point x="445" y="392" type="line" smooth="yes"/>
      <point x="463" y="441"/>
      <point x="483" y="462"/>
      <point x="525" y="462" type="curve" smooth="yes"/>
      <point x="538" y="462"/>
      <point x="547" y="471"/>
      <point x="547" y="484" type="curve" smooth="yes"/>
      <point x="547" y="498" type="line" smooth="yes"/>
      <point x="547" y="511"/>
      <point x="538" y="520"/>
      <point x="525" y="520" type="curve"/>
      <point x="521" y="520" type="line"/>
      <point x="445" y="519"/>
      <point x="412" y="481"/>
      <point x="383" y="401" type="curve" smooth="yes"/>
      <point x="265" y="74" type="line"/>
      <point x="99" y="505" type="line" smooth="yes"/>
      <point x="97" y="510"/>
      <point x="90" y="520"/>
      <point x="77" y="520" type="curve" smooth="yes"/>
      <point x="56" y="520" type="line" smooth="yes"/>
      <point x="45" y="520"/>
      <point x="36" y="511"/>
      <point x="36" y="500" type="curve" smooth="yes"/>
      <point x="36" y="498"/>
      <point x="37" y="492"/>
      <point x="38" y="489" type="curve"/>
      <point x="219" y="25" type="line" smooth="yes"/>
      <point x="225" y="10"/>
      <point x="236" y="0"/>
    </contour>
  </outline>
</glyph>
<glyph name="Gheupturn-cy" format="2">
  <advance width="505"/>
  <unicode hex="0490"/>
  <outline>
    <contour>
      <point x="482" y="840" type="curve" smooth="yes"/>
      <point x="464" y="840" type="line" smooth="yes"/>
      <point x="451" y="840"/>
      <point x="442" y="831"/>
      <point x="442" y="818" type="curve" smooth="yes"/>
      <point x="442" y="700" type="line"/>
      <point x="116" y="700" type="line" smooth="yes"/>
      <point x="103" y="700"/>
      <point x="94" y="691"/>
      <point x="94" y="677" type="curve" smooth="yes"/>
      <point x="94" y="22" type="line" smooth="yes"/>
      <point x="94" y="9"/>
      <point x="103" y="0"/>
      <point x="116" y="0" type="curve" smooth="yes"/>
      <point x="134" y="0" type="line" smooth="yes"/>
      <point x="148" y="0"/>
      <point x="157" y="9"/>
      <point x="157" y="22" type="curve" smooth="yes"/>
      <point x="157" y="640" type="line"/>
      <point x="482" y="640" type="line" smooth="yes"/>
      <point x="496" y="640"/>
      <point x="505" y="649"/>
      <point x="505" y="662" type="curve" smooth="yes"/>
      <point x="505" y="818" type="line" smooth="yes"/>
      <point x="505" y="831"/>
      <point x="496" y="840"/>
    </contour>
  </outline>
</glyph>
<glyph name="gheupturn-cy" format="2">
  <advance width="418"/>
  <unicode hex="0491"/>
  <outline>
    <contour>
      <point x="386" y="650" type="curve" smooth="yes"/>
      <point x="369" y="650" type="line" smooth="yes"/>
      <point x="356" y="650"/>
      <point x="347" y="641"/>
      <point x="347" y="628" type="curve" smooth="yes"/>
      <point x="347" y="520" type="line"/>
      <point x="103" y="520" type="line" smooth="yes"/>
      <point x="90" y="520"/>
      <point x="81" y="511"/>
      <point x="81" y="498" type="curve" smooth="yes"/>
      <point x="81" y="22" type="line" smooth="yes"/>
      <point x="81" y="9"/>
      <point x="90" y="0"/>
      <point x="103" y="0" type="curve" smooth="yes"/>
      <point x="120" y="0" type="line" smooth="yes"/>
      <point x="133" y="0"/>
      <point x="142" y="9"/>
      <point x="142" y="22" type="curve" smooth="yes"/>
      <point x="142" y="462" type="line"/>
      <point x="386" y="462" type="line" smooth="yes"/>
      <point x="399" y="462"/>
      <point x="408" y="471"/>
      <point x="408" y="484" type="curve" smooth="yes"/>
      <point x="408" y="628" type="line" smooth="yes"/>
      <point x="408" y="641"/>
      <point x="399" y="650"/>
    </contour>
  </outline>
</glyph>
<glyph name="Ghestroke-cy" format="2">
  <advance width="525"/>
  <unicode hex="0492"/>
  <outline>
    <contour>
      <point x="116" y="0" type="curve" smooth="yes"/>
      <point x="134" y="0" type="line" smooth="yes"/>
      <point x="148" y="0"/>
      <point x="157" y="9"/>
      <point x="157" y="22" type="curve" smooth="yes"/>
      <point x="157" y="640" type="line"/>
      <point x="482" y="640" type="line" smooth="yes"/>
      <point x="496" y="640"/>
      <point x="505" y="649"/>
      <point x="505" y="662" type="curve" smooth="yes"/>
      <point x="505" y="677" type="line" smooth="yes"/>
      <point x="505" y="691"/>
      <point x="496" y="700"/>
      <point x="482" y="700" type="curve" smooth="yes"/>
      <point x="116" y="700" type="line" smooth="yes"/>
      <point x="103" y="700"/>
      <point x="94" y="691"/>
      <point x="94" y="677" type="curve" smooth="yes"/>
      <point x="94" y="22" type="line" smooth="yes"/>
      <point x="94" y="9"/>
      <point x="103" y="0"/>
    </contour>
    <contour>
      <point x="37" y="321" type="curve" smooth="yes"/>
      <point x="312" y="321" type="line" smooth="yes"/>
      <point x="325" y="321"/>
      <point x="334" y="330"/>
      <point x="334" y="343" type="curve" smooth="yes"/>
      <point x="334" y="357" type="line" smooth="yes"/>
      <point x="334" y="370"/>
      <point x="325" y="379"/>
      <point x="312" y="379" type="curve" smooth="yes"/>
      <point x="37" y="379" type="line" smooth="yes"/>
      <point x="24" y="379"/>
      <point x="15" y="370"/>
      <point x="15" y="357" type="curve" smooth="yes"/>
      <point x="15" y="343" type="line" smooth="yes"/>
      <point x="15" y="330"/>
      <point x="24" y="321"/>
    </contour>
  </outline>
</glyph>
<glyph name="Zedescender-cy" format="2">
  <advance width="599"/>
  <unicode hex="0498"/>
  <outline>
    <contour>
      <point x="297" y="-140" type="curve" smooth="yes"/>
      <point x="315" y="-140" type="line" smooth="yes"/>
      <point x="329" y="-140"/>
      <point x="338" y="-131"/>
      <point x="338" y="-118" type="curve" smooth="yes"/>
      <point x="338" y="38" type="line"/>
      <point x="275" y="0" type="line"/>
      <point x="275" y="-118" type="line" smooth="yes"/>
      <point x="275" y="-131"/>
      <point x="284" y="-140"/>
    </contour>
    <component base="Ze-cy"/>
  </outline>
</glyph>
<glyph name="zedescender-cy" format="2">
  <advance width="492"/>
  <unicode hex="0499"/>
  <outline>
    <contour>
      <point x="253" y="-130" type="curve" smooth="yes"/>
      <point x="270" y="-130" type="line" smooth="yes"/>
      <point x="283" y="-130"/>
      <point x="292" y="-121"/>
      <point x="292" y="-108" type="curve" smooth="yes"/>
      <point x="292" y="36" type="line"/>
      <point x="231" y="0" type="line"/>
      <point x="231" y="-108" type="line" smooth="yes"/>
      <point x="231" y="-121"/>
      <point x="240" y="-130"/>
    </contour>
    <component base="ze-cy"/>
  </outline>
</glyph>
<glyph name="Kaverticalstroke-cy" format="2">
  <advance width="614"/>
  <unicode hex="049C"/>
  <outline>
    <contour>
      <point x="116" y="0" type="curve" smooth="yes"/>
      <point x="134" y="0" type="line" smooth="yes"/>
      <point x="148" y="0"/>
      <point x="157" y="9"/>
      <point x="157" y="22" type="curve" smooth="yes"/>
      <point x="157" y="325" type="line"/>
      <point x="234" y="325" type="line"/>
      <point x="234" y="225" type="line" smooth="yes"/>
      <point x="234" y="212"/>
      <point x="243" y="203"/>
      <point x="256" y="203" type="curve" smooth="yes"/>
      <point x="260" y="203" type="line" smooth="yes"/>
      <point x="273" y="203"/>
      <point x="282" y="212"/>
      <point x="282" y="225" type="curve" smooth="yes"/>
      <point x="282" y="325" type="line"/>
      <point x="296" y="325" type="line"/>
      <point x="506" y="13" type="line" smooth="yes"/>
      <point x="511" y="5"/>
      <point x="517" y="0"/>
      <point x="529" y="0" type="curve" smooth="yes"/>
      <point x="546" y="0" type="line" smooth="yes"/>
      <point x="559" y="0"/>
      <point x="569" y="11"/>
      <point x="569" y="24" type="curve" smooth="yes"/>
      <point x="569" y="28"/>
      <point x="569" y="32"/>
      <point x="567" y="35" type="curve" smooth="yes"/>
      <point x="352" y="360" type="line"/>
      <point x="547" y="667" type="line" smooth="yes"/>
      <point x="550" y="672"/>
      <point x="552" y="676"/>
      <point x="552" y="680" type="curve" smooth="yes"/>
      <point x="552" y="691"/>
      <point x="547" y="700"/>
      <point x="532" y="700" type="curve" smooth="yes"/>
      <point x="516" y="700" type="line" smooth="yes"/>
      <point x="500" y="700"/>
      <point x="490" y="695"/>
      <point x="483" y="685" type="curve" smooth="yes"/>
      <point x="293" y="385" type="line"/>
      <point x="282" y="385" type="line"/>
      <point x="282" y="490" type="line" smooth="yes"/>
      <point x="282" y="503"/>
      <point x="273" y="512"/>
      <point x="260" y="512" type="curve" smooth="yes"/>
      <point x="256" y="512" type="line" smooth="yes"/>
      <point x="243" y="512"/>
      <point x="234" y="503"/>
      <point x="234" y="490" type="curve" smooth="yes"/>
      <point x="234" y="385" type="line"/>
      <point x="157" y="385" type="line"/>
      <point x="157" y="677" type="line" smooth="yes"/>
      <point x="157" y="691"/>
      <point x="148" y="700"/>
      <point x="134" y="700" type="curve" smooth="yes"/>
      <point x="116" y="700" type="line" smooth="yes"/>
      <point x="103" y="700"/>
      <point x="94" y="691"/>
      <point x="94" y="677" type="curve" smooth="yes"/>
      <point x="94" y="22" type="line" smooth="yes"/>
      <point x="94" y="9"/>
      <point x="103" y="0"/>
    </contour>
  </outline>
</glyph>
<glyph name="kabashkir-cy" format="2">
  <advance width="623"/>
  <unicode hex="04A1"/>
  <outline>
    <contour>
      <point x="593" y="27" type="curve"/>
      <point x="419" y="272" type="line"/>
      <point x="574" y="494" type="line"/>
      <point x="577" y="499"/>
      <point x="579" y="503"/>
      <point x="579" y="506" type="curve" smooth="yes"/>
      <point x="579" y="515"/>
      <point x="571" y="520"/>
      <point x="559" y="520" type="curve" smooth="yes"/>
      <point x="539" y="520" type="line" smooth="yes"/>
      <point x="527" y="520"/>
      <point x="520" y="515"/>
      <point x="513" y="505" type="curve" smooth="yes"/>
      <point x="366" y="295" type="line"/>
      <point x="259" y="295" type="line"/>
      <point x="259" y="498" type="line" smooth="yes"/>
      <point x="259" y="511"/>
      <point x="250" y="520"/>
      <point x="237" y="520" type="curve" smooth="yes"/>
      <point x="35" y="520" type="line" smooth="yes"/>
      <point x="22" y="520"/>
      <point x="13" y="511"/>
      <point x="13" y="498" type="curve" smooth="yes"/>
      <point x="13" y="484" type="line" smooth="yes"/>
      <point x="13" y="471"/>
      <point x="22" y="462"/>
      <point x="35" y="462" type="curve" smooth="yes"/>
      <point x="198" y="462" type="line"/>
      <point x="198" y="22" type="line" smooth="yes"/>
      <point x="198" y="9"/>
      <point x="207" y="0"/>
      <point x="220" y="0" type="curve" smooth="yes"/>
      <point x="237" y="0" type="line" smooth="yes"/>
      <point x="250" y="0"/>
      <point x="259" y="9"/>
      <point x="259" y="22" type="curve" smooth="yes"/>
      <point x="259" y="235" type="line"/>
      <point x="369" y="235" type="line"/>
      <point x="527" y="14" type="line"/>
      <point x="534" y="5"/>
      <point x="541" y="0"/>
      <point x="553" y="0" type="curve" smooth="yes"/>
      <point x="579" y="0" type="line" smooth="yes"/>
      <point x="591" y="0"/>
      <point x="598" y="5"/>
      <point x="598" y="14" type="curve" smooth="yes"/>
      <point x="598" y="18"/>
      <point x="597" y="22"/>
    </contour>
  </outline>
</glyph>
<glyph name="enghe-cy" format="2">
  <advance width="741"/>
  <unicode hex="04A5"/>
  <outline>
    <contour>
      <point x="709" y="520" type="curve" smooth="yes"/>
      <point x="476" y="520" type="line" smooth="yes"/>
      <point x="463" y="520"/>
      <point x="454" y="511"/>
      <point x="454" y="498" type="curve" smooth="yes"/>
      <point x="454" y="295" type="line"/>
      <point x="142" y="295" type="line"/>
      <point x="142" y="498" type="line" smooth="yes"/>
      <point x="142" y="511"/>
      <point x="133" y="520"/>
      <point x="120" y="520" type="curve" smooth="yes"/>
      <point x="103" y="520" type="line" smooth="yes"/>
      <point x="90" y="520"/>
      <point x="81" y="511"/>
      <point x="81" y="498" type="curve" smooth="yes"/>
      <point x="81" y="22" type="line" smooth="yes"/>
      <point x="81" y="9"/>
      <point x="90" y="0"/>
      <point x="103" y="0" type="curve" smooth="yes"/>
      <point x="120" y="0" type="line" smooth="yes"/>
      <point x="133" y="0"/>
      <point x="142" y="9"/>
      <point x="142" y="22" type="curve" smooth="yes"/>
      <point x="142" y="237" type="line"/>
      <point x="454" y="237" type="line"/>
      <point x="454" y="22" type="line" smooth="yes"/>
      <point x="454" y="9"/>
      <point x="463" y="0"/>
      <point x="476" y="0" type="curve" smooth="yes"/>
      <point x="493" y="0" type="line" smooth="yes"/>
      <point x="506" y="0"/>
      <point x="515" y="9"/>
      <point x="515" y="22" type="curve" smooth="yes"/>
      <point x="515" y="462" type="line"/>
      <point x="709" y="462" type="line" smooth="yes"/>
      <point x="722" y="462"/>
      <point x="731" y="471"/>
      <point x="731" y="484" type="curve" smooth="yes"/>
      <point x="731" y="498" type="line" smooth="yes"/>
      <point x="731" y="511"/>
      <point x="722" y="520"/>
    </contour>
  </outline>
</glyph>
<glyph name="cheverticalstroke-cy" format="2">
  <advance width="517"/>
  <unicode hex="04B9"/>
  <outline>
    <contour>
      <point x="397" y="0" type="curve" smooth="yes"/>
      <point x="414" y="0" type="line" smooth="yes"/>
      <point x="427" y="0"/>
      <point x="436" y="9"/>
      <point x="436" y="22" type="curve" smooth="yes"/>
      <point x="436" y="498" type="line" smooth="yes"/>
      <point x="436" y="511"/>
      <point x="427" y="520"/>
      <point x="414" y="520" type="curve" smooth="yes"/>
      <point x="397" y="520" type="line" smooth="yes"/>
      <point x="384" y="520"/>
      <point x="375" y="511"/>
      <point x="375" y="498" type="curve" smooth="yes"/>
      <point x="375" y="311" type="line" smooth="yes"/>
      <point x="375" y="250"/>
      <point x="313" y="231"/>
      <point x="219" y="231" type="curve" smooth="yes"/>
      <point x="146" y="231"/>
      <point x="106" y="261"/>
      <point x="106" y="327" type="curve" smooth="yes"/>
      <point x="106" y="498" type="line" smooth="yes"/>
      <point x="106" y="511"/>
      <point x="97" y="520"/>
      <point x="84" y="520" type="curve" smooth="yes"/>
      <point x="67" y="520" type="line" smooth="yes"/>
      <point x="54" y="520"/>
      <point x="45" y="511"/>
      <point x="45" y="498" type="curve" smooth="yes"/>
      <point x="45" y="322" type="line" smooth="yes"/>
      <point x="45" y="217"/>
      <point x="111" y="173"/>
      <point x="215" y="173" type="curve" smooth="yes"/>
      <point x="284" y="173"/>
      <point x="337" y="188"/>
      <point x="375" y="226" type="curve"/>
      <point x="375" y="22" type="line" smooth="yes"/>
      <point x="375" y="9"/>
      <point x="384" y="0"/>
    </contour>
    <contour>
      <point x="216" y="323" type="curve" smooth="yes"/>
      <point x="216" y="98" type="line" smooth="yes"/>
      <point x="216" y="85"/>
      <point x="225" y="76"/>
      <point x="238" y="76" type="curve" smooth="yes"/>
      <point x="242" y="76" type="line" smooth="yes"/>
      <point x="255" y="76"/>
      <point x="264" y="85"/>
      <point x="264" y="98" type="curve" smooth="yes"/>
      <point x="264" y="323" type="line" smooth="yes"/>
      <point x="264" y="336"/>
      <point x="255" y="345"/>
      <point x="242" y="345" type="curve" smooth="yes"/>
      <point x="238" y="345" type="line" smooth="yes"/>
      <point x="225" y="345"/>
      <point x="216" y="336"/>
    </contour>
  </outline>
</glyph>
<glyph name="Schwa-cy" format="2">
  <advance width="655"/>
  <unicode hex="04D8"/>
  <outline>
    <contour>
      <point x="588" y="439" type="curve" smooth="yes"/>
      <point x="583" y="595"/>
      <point x="505" y="710"/>
      <point x="323" y="710" type="curve" smooth="yes"/>
      <point x="145" y="710"/>
      <point x="80" y="603"/>
      <point x="73" y="519" type="curve" smooth="yes"/>
      <point x="72" y="507"/>
      <point x="82" y="499"/>
      <point x="94" y="499" type="curve" smooth="yes"/>
      <point x="114" y="499" type="line" smooth="yes"/>
      <point x="125" y="499"/>
      <point x="133" y="504"/>
      <point x="136" y="520" type="curve" smooth="yes"/>
      <point x="157" y="621"/>
      <point x="225" y="650"/>
      <point x="323" y="650" type="curve" smooth="yes"/>
      <point x="445" y="650"/>
      <point x="520" y="585"/>
      <point x="525" y="434" type="curve" smooth="yes"/>
      <point x="526" y="416"/>
      <point x="526" y="397"/>
      <point x="526" y="379" type="curve"/>
      <point x="97" y="379" type="line" smooth="yes"/>
      <point x="79" y="379"/>
      <point x="66" y="367"/>
      <point x="66" y="350" type="curve" smooth="yes"/>
      <point x="66" y="329" type="line" smooth="yes"/>
      <point x="66" y="87"/>
      <point x="175" y="-10"/>
      <point x="330" y="-10" type="curve" smooth="yes"/>
      <point x="505" y="-10"/>
      <point x="582" y="105"/>
      <point x="588" y="261" type="curve" smooth="yes"/>
      <point x="590" y="315"/>
      <point x="590" y="382"/>
    </contour>
    <contour>
      <point x="330" y="50" type="curve" smooth="yes"/>
      <point x="197" y="50"/>
      <point x="129" y="134"/>
      <point x="129" y="315" type="curve" smooth="yes"/>
      <point x="129" y="321" type="line"/>
      <point x="526" y="321" type="line"/>
      <point x="526" y="303"/>
      <point x="526" y="284"/>
      <point x="525" y="266" type="curve" smooth="yes"/>
      <point x="520" y="115"/>
      <point x="445" y="50"/>
    </contour>
  </outline>
</glyph>
<glyph name="Obarred-cy" format="2">
  <advance width="662"/>
  <unicode hex="04E8"/>
  <anchor x="331" y="700" name="top"/>
  <outline>
    <contour>
      <point x="98" y="321" type="curve" smooth="yes"/>
      <point x="563" y="321" type="line" smooth="yes"/>
      <point x="576" y="321"/>
      <point x="585" y="330"/>
      <point x="585" y="343" type="curve" smooth="yes"/>
      <point x="585" y="357" type="line" smooth="yes"/>
      <point x="585" y="370"/>
      <point x="576" y="379"/>
      <point x="563" y="379" type="curve" smooth="yes"/>
      <point x="98" y="379" type="line" smooth="yes"/>
      <point x="85" y="379"/>
      <point x="76" y="370"/>
      <point x="76" y="357" type="curve" smooth="yes"/>
      <point x="76" y="343" type="line" smooth="yes"/>
      <point x="76" y="330"/>
      <point x="85" y="321"/>
    </contour>
    <component base="O-cy"/>
  </outline>
</glyph>
<glyph name="sheva-hb" format="2">
  <unicode hex="05B0"/>
  <anchor x="1" y="0" name="_bottom"/>
  <outline>
    <contour>
      <point x="-11" y="-146" type="curve" smooth="yes"/>
      <point x="12" y="-146" type="line" smooth="yes"/>
      <point x="25" y="-146"/>
      <point x="34" y="-137"/>
      <point x="34" y="-124" type="curve" smooth="yes"/>
      <point x="34" y="-101" type="line" smooth="yes"/>
      <point x="34" y="-88"/>
      <point x="25" y="-79"/>
      <point x="12" y="-79" type="curve" smooth="yes"/>
      <point x="-11" y="-79" type="line" smooth="yes"/>
      <point x="-24" y="-79"/>
      <point x="-33" y="-88"/>
      <point x="-33" y="-101" type="curve" smooth="yes"/>
      <point x="-33" y="-124" type="line" smooth="yes"/>
      <point x="-33" y="-137"/>
      <point x="-24" y="-146"/>
    </contour>
    <contour>
      <point x="-11" y="-245" type="curve" smooth="yes"/>
      <point x="12" y="-245" type="line" smooth="yes"/>
      <point x="25" y="-245"/>
      <point x="34" y="-236"/>
      <point x="34" y="-223" type="curve" smooth="yes"/>
      <point x="34" y="-200" type="line" smooth="yes"/>
      <point x="34" y="-187"/>
      <point x="25" y="-178"/>
      <point x="12" y="-178" type="curve" smooth="yes"/>
      <point x="-11" y="-178" type="line" smooth="yes"/>
      <point x="-24" y="-178"/>
      <point x="-33" y="-187"/>
      <point x="-33" y="-200" type="curve" smooth="yes"/>
      <point x="-33" y="-223" type="line" smooth="yes"/>
      <point x="-33" y="-236"/>
      <point x="-24" y="-245"/>
    </contour>
  </outline>
</glyph>
<glyph name="hiriq-hb" format="2">
  <unicode hex="05B4"/>
  <anchor x="0" y="0" name="_bottom"/>
  <outline>
    <contour>
      <point x="-11" y="-146" type="curve" smooth="yes"/>
      <point x="12" y="-146" type="line" smooth="yes"/>
      <point x="25" y="-146"/>
      <point x="34" y="-137"/>
      <point x="34" y="-124" type="curve" smooth="yes"/>
      <point x="34" y="-101" type="line" smooth="yes"/>
      <point x="34" y="-88"/>
      <point x="25" y="-79"/>
      <point x="12" y="-79" type="curve" smooth="yes"/>
      <point x="-11" y="-79" type="line" smooth="yes"/>
      <point x="-24" y="-79"/>
      <point x="-33" y="-88"/>
      <point x="-33" y="-101" type="curve" smooth="yes"/>
      <point x="-33" y="-124" type="line" smooth="yes"/>
      <point x="-33" y="-137"/>
      <point x="-24" y="-146"/>
    </contour>
  </outline>
</glyph>
<glyph name="patah-hb" format="2">
  <unicode hex="05B7"/>
  <anchor x="2" y="-5" name="_bottom"/>
  <outline>
    <contour>
      <point x="-102" y="-131" type="curve" smooth="yes"/>
      <point x="106" y="-131" type="line" smooth="yes"/>
      <point x="119" y="-131"/>
      <point x="128" y="-122"/>
      <point x="128" y="-109" type="curve" smooth="yes"/>
      <point x="128" y="-101" type="line" smooth="yes"/>
      <point x="128" y="-88"/>
      <point x="119" y="-79"/>
      <point x="106" y="-79" type="curve" smooth="yes"/>
      <point x="-102" y="-79" type="line" smooth="yes"/>
      <point x="-115" y="-79"/>
      <point x="-124" y="-88"/>
      <point x="-124" y="-101" type="curve" smooth="yes"/>
      <point x="-124" y="-109" type="line" smooth="yes"/>
      <point x="-124" y="-122"/>
      <point x="-115" y="-131"/>
    </contour>
  </outline>
</glyph>
<glyph name="uni05B8" format="2">
  <unicode hex="05B8"/>
  <anchor x="0" y="0" name="_bottom"/>
  <outline>
    <contour>
      <point x="128" y="-101" type="curve" smooth="yes"/>
      <point x="128" y="-109" type="line" smooth="yes"/>
      <point x="128" y="-122.4"/>
      <point x="119.4" y="-131"/>
      <point x="106" y="-131" type="curve" smooth="yes"/>
      <point x="26" y="-131" type="line"/>
      <point x="26" y="-223" type="line" smooth="yes"/>
      <point x="26" y="-236.4"/>
      <point x="17.4" y="-245"/>
      <point x="4" y="-245" type="curve" smooth="yes"/>
      <point x="-3" y="-245" type="line" smooth="yes"/>
      <point x="-16.4" y="-245"/>
      <point x="-25" y="-236.4"/>
      <point x="-25" y="-223" type="curve"/>
      <point x="-25" y="-131" type="line"/>
      <point x="-102" y="-131" type="line" smooth="yes"/>
      <point x="-115.4" y="-131"/>
      <point x="-124" y="-122.4"/>
      <point x="-124" y="-109" type="curve" smooth="yes"/>
      <point x="-124" y="-101" type="line" smooth="yes"/>
      <point x="-124" y="-87.6"/>
      <point x="-115.4" y="-79"/>
      <point x="-102" y="-79" type="curve" smooth="yes"/>
      <point x="106" y="-79" type="line" smooth="yes"/>
      <point x="119.4" y="-79"/>
      <point x="128" y="-87.6"/>
    </contour>
  </outline>
</glyph>
<glyph name="holam-hb" format="2">
  <unicode hex="05B9"/>
  <anchor x="51" y="415" name="_topleft"/>
  <outline>
    <contour>
      <point x="-11" y="533" type="curve" smooth="yes"/>
      <point x="12" y="533" type="line" smooth="yes"/>
      <point x="25" y="533"/>
      <point x="34" y="542"/>
      <point x="34" y="555" type="curve" smooth="yes"/>
      <point x="34" y="578" type="line" smooth="yes"/>
      <point x="34" y="591"/>
      <point x="25" y="600"/>
      <point x="12" y="600" type="curve" smooth="yes"/>
      <point x="-11" y="600" type="line" smooth="yes"/>
      <point x="-24" y="600"/>
      <point x="-33" y="591"/>
      <point x="-33" y="578" type="curve" smooth="yes"/>
      <point x="-33" y="555" type="line" smooth="yes"/>
      <point x="-33" y="542"/>
      <point x="-24" y="533"/>
    </contour>
  </outline>
</glyph>
